<?xml version="1.0" standalone="no"?>
<!DOCTYPE svg PUBLIC "-//W3C//DTD SVG 1.1//EN" "http://www.w3.org/Graphics/SVG/1.1/DTD/svg11.dtd" >
<svg xmlns="http://www.w3.org/2000/svg" xmlns:xlink="http://www.w3.org/1999/xlink" version="1.1">
<metadata>
Created by FontForge 20161003 at Wed Apr  4 09:08:10 2018
 By www-data
(c) 2004 Microsoft Corporation. All Rights Reserved.
</metadata>
<defs>
<font id="cambriabolditalic" horiz-adv-x="872" >
  <font-face 
    font-family="cambriabolditalic"
    font-weight="700"
    font-style="italic"
    font-stretch="normal"
    units-per-em="2048"
    panose-1="2 4 8 3 5 4 6 10 2 4"
    ascent="1593"
    descent="-455"
    x-height="992"
    cap-height="1365"
    bbox="-772 -447 2698 1946"
    underline-thickness="156"
    underline-position="-339"
    slope="-12.4"
    unicode-range="U+000D-FB04"
  />
<missing-glyph horiz-adv-x="1348" 
d="M567 487v22q0 22 3 40.5t14 39.5t32 47.5t57 65.5q23 25 42 48.5t32.5 49t21 54t7.5 63.5q0 75 -32.5 116t-94.5 41q-32 0 -56 -10t-42 -28t-30.5 -43t-21.5 -55h-96v130q60 30 128.5 53t135.5 23q70 0 119.5 -14.5t80.5 -40t45 -60.5t14 -76q0 -38 -7.5 -69t-25.5 -61.5
t-48 -65.5t-74 -80q-32 -33 -51 -55t-29.5 -41.5t-14 -39.5t-3.5 -48v-6h-106zM691 377v-161h-144v161h144zM1055 93v1178h-762v-1178h762zM1158 1364v-1364h-968v1364h968z" />
    <glyph glyph-name="uniFB03" unicode="f&#xfb01;" horiz-adv-x="1931" 
d="M136 867l14 66q41 4 61.5 10t35.5 17.5t28 37.5t28 82q25 95 63 157.5t99 109t142.5 68t179.5 21.5q39 0 84.5 -3t103.5 -15l-45 -200h-129q-4 62 -20 88t-50 26q-23 0 -41 -9t-35 -32t-32.5 -66.5t-32.5 -122.5l-25 -110h363q8 15 15 36.5t16 51.5q26 97 65 159.5
t99 108t142 67t183 21.5q82 0 149 -14l-41 -184h-99q-1 33 -12 52.5t-27.5 27t-32.5 7.5q-35 0 -59 -22t-41 -63.5t-34 -117.5l-30 -130h191l-28 -125h-191l-181 -836q-35 -161 -98.5 -266t-164.5 -158.5t-247 -53.5q-47 0 -95 13l27 109q28 -8 66 -8q45 0 73.5 12.5
t51.5 43t43 89.5t44 166l200 889h-375l-181 -836q-35 -161 -98.5 -266t-164.5 -158.5t-247 -53.5q-47 0 -95 13l27 109q28 -8 66 -8q45 0 73.5 12.5t51.5 43t43 89.5t44 166l200 889h-120zM1950 1391l-52 -245h-259l55 245h256zM1719 267q-11 -50 -14 -74t-3 -40
q0 -43 22.5 -62t77.5 -25l-11 -66h-416l156 698q13 60 18 93.5t5 56.5q0 39 -18.5 55.5t-77.5 22.5l15 66l293 11h114z" />
    <glyph glyph-name="uniFB04" unicode="f&#xfb02;" horiz-adv-x="1920" 
d="M136 867l14 66q41 4 61.5 10t35.5 17.5t28 37.5t28 82q25 95 63 157.5t99 109t142.5 68t179.5 21.5q39 0 84.5 -3t103.5 -15l-45 -200h-129q-4 62 -20 88t-50 26q-23 0 -41 -9t-35 -32t-32.5 -66.5t-32.5 -122.5l-25 -110h363q8 15 15 36.5t16 51.5q26 97 65 159.5
t99 108t142 67t183 21.5q82 0 149 -14l-1 -4l256 14h113l-258 -1165q-10 -46 -13.5 -71t-3.5 -43q0 -43 22.5 -62t77.5 -25l-11 -66h-416l253 1130q10 45 14 66.5t6 41.5t2 35q0 34 -13 49.5t-46 21.5l-23 -106h-99q-1 33 -12 52.5t-27.5 27t-32.5 7.5q-35 0 -59 -22
t-41 -63.5t-34 -117.5l-30 -130h191l-28 -125h-191l-181 -836q-35 -161 -98.5 -266t-164.5 -158.5t-247 -53.5q-47 0 -95 13l27 109q28 -8 66 -8q45 0 73.5 12.5t51.5 43t43 89.5t44 166l200 889h-375l-181 -836q-35 -161 -98.5 -266t-164.5 -158.5t-247 -53.5q-47 0 -95 13
l27 109q28 -8 66 -8q45 0 73.5 12.5t51.5 43t43 89.5t44 166l200 889h-120z" />
    <glyph glyph-name="uniFB00_b.liga" unicode="&#xfb00;b" horiz-adv-x="2474" 
d="M1811 820l13 -4q63 73 116 114.5t107.5 59.5t122.5 18q69 0 122.5 -32.5t85 -104.5t31.5 -182q0 -88 -21 -193.5t-59 -187t-91 -142.5t-118.5 -101t-141.5 -60.5t-163 -20.5q-66 0 -126 16t-124 56l-93 -72l-109 16l253 1130q21 94 21 143q0 32 -11.5 48t-46.5 23
l-23 -106h-99q-1 33 -12 52.5t-27.5 27t-32.5 7.5q-35 0 -59 -22t-41 -63.5t-34 -117.5l-30 -130h191l-28 -125h-191l-181 -836q-35 -161 -98.5 -266t-164.5 -158.5t-247 -53.5q-47 0 -95 13l27 109q28 -8 66 -8q45 0 73.5 12.5t51.5 43t43 89.5t44 166l200 889h-375
l-181 -836q-35 -161 -98.5 -266t-164.5 -158.5t-247 -53.5q-47 0 -95 13l27 109q28 -8 66 -8q45 0 73.5 12.5t51.5 43t43 89.5t44 166l200 889h-120l14 66q41 4 61.5 10t35.5 17.5t28 37.5t28 82q25 95 63 157.5t99 109t142.5 68t179.5 21.5q39 0 84.5 -3t103.5 -15
l-45 -200h-129q-4 62 -20 88t-50 26q-23 0 -41 -9t-35 -32t-32.5 -66.5t-32.5 -122.5l-25 -110h363q8 15 15 36.5t16 51.5q26 97 65 159.5t99 108t142 67t183 21.5q82 0 149 -14l-1 -4l251 14h117zM1722 370q-16 -74 -16 -145q0 -73 24.5 -105t82.5 -32q37 0 68.5 12
t62 39.5t61.5 80.5q39 66 68.5 150t46.5 176.5t17 169.5q0 74 -21.5 109.5t-66.5 35.5q-66 0 -134.5 -64.5t-109.5 -149.5t-75 -240z" />
    <glyph glyph-name="uniFB00_h.liga" unicode="&#xfb00;h" horiz-adv-x="2499" 
d="M1811 821l13 -4q80 98 162.5 144.5t184.5 46.5t161 -57.5t59 -158.5q0 -65 -20 -155l-82 -370q-10 -46 -13.5 -71t-3.5 -43q0 -45 22.5 -63t77.5 -24l-12 -66h-415l125 544q27 116 33 160t6 69q0 45 -19 67t-55 22q-32 0 -70 -24t-85 -75t-75 -108t-45 -142l-110 -513
h-287l253 1130q22 98 22 143q0 34 -13 49.5t-46 21.5l-23 -106h-99q-1 33 -12 52.5t-27.5 27t-32.5 7.5q-35 0 -59 -22t-41 -63.5t-34 -117.5l-30 -130h191l-28 -125h-191l-181 -836q-35 -161 -98.5 -266t-164.5 -158.5t-247 -53.5q-47 0 -95 13l27 109q28 -8 66 -8
q45 0 73.5 12.5t51.5 43t43 89.5t44 166l200 889h-375l-181 -836q-35 -161 -98.5 -266t-164.5 -158.5t-247 -53.5q-47 0 -95 13l27 109q28 -8 66 -8q45 0 73.5 12.5t51.5 43t43 89.5t44 166l200 889h-120l14 66q41 4 61.5 10t35.5 17.5t28 37.5t28 82q25 95 63 157.5t99 109
t142.5 68t179.5 21.5q39 0 84.5 -3t103.5 -15l-45 -200h-129q-4 62 -20 88t-50 26q-23 0 -41 -9t-35 -32t-32.5 -66.5t-32.5 -122.5l-25 -110h363q8 15 15 36.5t16 51.5q26 97 65 159.5t99 108t142 67t183 21.5q82 0 149 -14l-1 -4l256 14h113z" />
    <glyph glyph-name="uniFB00_j.liga" unicode="&#xfb00;j" horiz-adv-x="1920" 
d="M136 867l14 66q41 4 61.5 10t35.5 17.5t28 37.5t28 82q25 95 63 157.5t99 109t142.5 68t179.5 21.5q39 0 84.5 -3t103.5 -15l-45 -200h-129q-4 62 -20 88t-50 26q-23 0 -41 -9t-35 -32t-32.5 -66.5t-32.5 -122.5l-25 -110h363q8 15 15 36.5t16 51.5q26 97 65 159.5
t99 108t142 67t183 21.5q82 0 149 -14l-41 -184h-99q-1 33 -12 52.5t-27.5 27t-32.5 7.5q-35 0 -59 -22t-41 -63.5t-34 -117.5l-30 -130h191l-28 -125h-191l-181 -836q-35 -161 -98.5 -266t-164.5 -158.5t-247 -53.5q-47 0 -95 13l27 109q28 -8 66 -8q45 0 73.5 12.5
t51.5 43t43 89.5t44 166l200 889h-375l-181 -836q-35 -161 -98.5 -266t-164.5 -158.5t-247 -53.5q-47 0 -95 13l27 109q28 -8 66 -8q45 0 73.5 12.5t51.5 43t43 89.5t44 166l200 889h-120zM1950 1391l-52 -245h-259l55 245h256zM1668 31q-35 -162 -99 -267t-165 -158
t-246 -53q-47 0 -95 13l27 109q28 -8 66 -8q47 0 75 13.5t50.5 44t42.5 89t44 164.5l162 720q13 56 18 91t5 59q0 39 -18.5 55.5t-77.5 22.5l15 66l293 11h114z" />
    <glyph glyph-name="uniFB00_k.liga" unicode="&#xfb00;k" horiz-adv-x="2414" 
d="M1779 590h20q31 0 59.5 9.5t67.5 35t104 77.5q41 33 61.5 59t29 49t8.5 48q0 23 -12.5 39t-44.5 19l16 66h356l25 -65q-62 -68 -167 -148l-225 -169l130 -367q23 -66 40 -99t42 -52t73 -26l-15 -66h-356l-134 432q-10 31 -18.5 43t-21 16.5t-33.5 4.5h-25l-109 -496h-287
l253 1130q22 98 22 143q0 34 -13 49.5t-46 21.5l-23 -106h-99q-1 33 -12 52.5t-27.5 27t-32.5 7.5q-35 0 -59 -22t-41 -63.5t-34 -117.5l-30 -130h191l-28 -125h-191l-181 -836q-35 -161 -98.5 -266t-164.5 -158.5t-247 -53.5q-47 0 -95 13l27 109q28 -8 66 -8
q45 0 73.5 12.5t51.5 43t43 89.5t44 166l200 889h-375l-181 -836q-35 -161 -98.5 -266t-164.5 -158.5t-247 -53.5q-47 0 -95 13l27 109q28 -8 66 -8q45 0 73.5 12.5t51.5 43t43 89.5t44 166l200 889h-120l14 66q41 4 61.5 10t35.5 17.5t28 37.5t28 82q25 95 63 157.5t99 109
t142.5 68t179.5 21.5q39 0 84.5 -3t103.5 -15l-45 -200h-129q-4 62 -20 88t-50 26q-23 0 -41 -9t-35 -32t-32.5 -66.5t-32.5 -122.5l-25 -110h363q8 15 15 36.5t16 51.5q26 97 65 159.5t99 108t142 67t183 21.5q82 0 149 -14l-1 -4l256 14h113z" />
    <glyph glyph-name=".notdef" horiz-adv-x="1348" 
d="M567 487v22q0 22 3 40.5t14 39.5t32 47.5t57 65.5q23 25 42 48.5t32.5 49t21 54t7.5 63.5q0 75 -32.5 116t-94.5 41q-32 0 -56 -10t-42 -28t-30.5 -43t-21.5 -55h-96v130q60 30 128.5 53t135.5 23q70 0 119.5 -14.5t80.5 -40t45 -60.5t14 -76q0 -38 -7.5 -69t-25.5 -61.5
t-48 -65.5t-74 -80q-32 -33 -51 -55t-29.5 -41.5t-14 -39.5t-3.5 -48v-6h-106zM691 377v-161h-144v161h144zM1055 93v1178h-762v-1178h762zM1158 1364v-1364h-968v1364h968z" />
    <glyph glyph-name="glyph1" horiz-adv-x="0" 
 />
    <glyph glyph-name="glyph1" horiz-adv-x="0" 
 />
    <glyph glyph-name="uni000D" unicode="&#xd;" horiz-adv-x="451" 
 />
    <glyph glyph-name="space" unicode=" " horiz-adv-x="451" 
 />
    <glyph glyph-name="space" unicode="&#xa0;" horiz-adv-x="451" 
 />
    <glyph glyph-name="exclam" unicode="!" horiz-adv-x="672" 
d="M689 1365l-284 -919h-170l126 919h328zM420 302l-68 -302h-255l67 302h256z" />
    <glyph glyph-name="quotedbl" unicode="&#x22;" horiz-adv-x="820" 
d="M557 1432l-180 -487h-140l66 487h254zM926 1431l-179 -487h-142l67 487h254z" />
    <glyph glyph-name="numbersign" unicode="#" horiz-adv-x="1232" 
d="M1020 822l-94 -277h144v-141h-193l-140 -404h-159l139 404h-283l-140 -404h-159l139 404h-161v141h211l96 277h-166v141h215l142 402h159l-142 -402h284l142 402h159l-142 -402h139v-141h-190zM580 822l-97 -277h284l96 277h-283z" />
    <glyph glyph-name="dollar" unicode="$" horiz-adv-x="1062" 
d="M348 -156l37 170q-81 4 -177 23.5t-177 48.5l53 244h131q6 -72 26.5 -114t59 -62.5t109.5 -25.5l102 465q-108 79 -163 136t-85 120.5t-30 137.5q0 112 55 194t158 127.5t233 50.5l37 170h110l-37 -168q159 -7 321 -63l-53 -247h-131q-4 179 -163 193l-94 -434
q106 -77 165 -136.5t89.5 -124t30.5 -140.5q0 -179 -119 -280.5t-341 -113.5l-37 -171h-110zM573 873l83 372q-83 -9 -132 -61.5t-49 -130.5q0 -52 23 -92.5t75 -87.5zM607 528l-88 -399q86 10 134.5 64t48.5 138q0 112 -95 197z" />
    <glyph glyph-name="percent" unicode="%" horiz-adv-x="1991" 
d="M444 516q-70 0 -119.5 22t-81 60.5t-46 91.5t-14.5 115q0 64 15 142t42.5 143t67.5 119t91 92.5t110.5 58.5t123.5 20q74 0 125 -23.5t81.5 -63t44 -92.5t13.5 -111q0 -86 -27.5 -194.5t-85 -195t-144.5 -135.5t-196 -49zM372 710q0 -56 20 -80t61 -24q61 0 118 88.5
t96.5 249t39.5 241.5q0 56 -20 80.5t-65 24.5q-16 0 -32 -6.5t-36.5 -24.5t-44.5 -53.5t-48 -94t-42 -126t-34 -159.5q-13 -70 -13 -116zM1707 1365l-1147 -1461h-207l1148 1461h206zM1424 -112q-70 0 -119.5 22t-81 60.5t-46 91.5t-14.5 115q0 64 15 142t42.5 143t67.5 119
t91 92.5t110.5 58.5t123.5 20q74 0 125 -23.5t81.5 -63t44 -92.5t13.5 -111q0 -86 -27.5 -194.5t-85 -195t-144.5 -135.5t-196 -49zM1352 82q0 -56 20 -80t61 -24q61 0 118.5 89.5t96.5 249.5t39 240q0 56 -20 80.5t-65 24.5q-16 0 -32 -6.5t-36.5 -24.5t-44.5 -53.5
t-48 -94t-42 -126t-34 -159.5q-13 -70 -13 -116z" />
    <glyph glyph-name="ampersand" unicode="&#x26;" horiz-adv-x="1458" 
d="M836 116q-67 -40 -110.5 -61.5t-92 -37.5t-106 -24.5t-130.5 -8.5q-105 0 -182 36.5t-116.5 102t-39.5 150.5q0 131 99 242.5t321 218.5q-27 55 -44 113t-17 127q0 120 59.5 212.5t170.5 144t256 51.5q57 0 110 -10.5t94 -35t65.5 -64.5t24.5 -97q0 -54 -14.5 -97.5
t-43 -82t-75 -75t-99.5 -68.5t-175 -100q38 -76 96.5 -174.5t114.5 -181.5q74 73 105.5 131.5t31.5 112.5q0 30 -16.5 45.5t-55.5 18.5l14 66h275l30 -58q-82 -222 -317 -418q32 -51 57 -78.5t48.5 -39.5t56.5 -12q54 0 123 57l59 -92q-92 -78 -172 -111.5t-165 -33.5
q-83 0 -135.5 31t-104.5 101zM739 860q88 48 142 90.5t83.5 92.5t29.5 110q0 58 -28.5 91.5t-76.5 33.5q-57 0 -100.5 -33t-67 -88t-23.5 -121q0 -88 41 -176zM764 220q-25 37 -66.5 107.5t-92.5 160.5t-71 130q-102 -66 -150.5 -134.5t-48.5 -144.5q0 -94 49.5 -143
t138.5 -49q65 0 120.5 17t120.5 56z" />
    <glyph glyph-name="quotesingle" unicode="'" horiz-adv-x="500" 
d="M606 1432l-191 -497h-142l61 497h272z" />
    <glyph glyph-name="parenleft" unicode="(" horiz-adv-x="812" 
d="M568 -435q-142 0 -243 57.5t-152 163.5t-51 248q0 219 60 498q62 290 145 474q73 160 168 255q85 85 196 128q121 46 290 46l-25 -113q-81 0 -142.5 -31.5t-115.5 -102.5q-71 -95 -132 -276q-68 -200 -130 -513q-55 -280 -55 -439q0 -113 22 -175t66.5 -87.5t122.5 -25.5
z" />
    <glyph glyph-name="parenright" unicode=")" horiz-adv-x="812" 
d="M254 1435q142 0 243 -57.5t152 -163.5t51 -248q0 -239 -71.5 -549t-168 -493.5t-242.5 -271t-377 -87.5l25 113q76 0 135 27.5t111 91.5q67 82 120.5 224.5t101.5 340.5q36 152 63 294q44 237 44 396q0 103 -21 162t-66.5 86.5t-123.5 27.5z" />
    <glyph glyph-name="asterisk" unicode="*" horiz-adv-x="899" 
d="M564 1432h185l-114 -339l266 183l76 -158l-322 -95l259 -133l-95 -148l-220 213l-21 -325h-185l114 340l-266 -183l-76 158l322 95l-259 134l95 148l220 -212z" />
    <glyph glyph-name="plus" unicode="+" horiz-adv-x="1173" 
d="M693 487l-85 -388h-210l85 388h-358l44 196h357l86 389h210l-86 -389h357l-44 -196h-356z" />
    <glyph glyph-name="comma" unicode="," horiz-adv-x="461" 
d="M328 302q-2 -64 -8 -117t-19.5 -103t-35.5 -90.5t-69 -90t-106 -96.5t-140 -98l-68 94q73 54 115.5 115.5t66.5 160t33 225.5h231z" />
    <glyph glyph-name="hyphen" unicode="-" horiz-adv-x="666" 
d="M551 447h-450l46 210h450z" />
    <glyph glyph-name="hyphen" unicode="&#x2010;" horiz-adv-x="666" 
d="M551 447h-450l46 210h450z" />
    <glyph glyph-name="hyphen" unicode="&#xad;" horiz-adv-x="666" 
d="M551 447h-450l46 210h450z" />
    <glyph glyph-name="period" unicode="." horiz-adv-x="461" 
d="M319 302l-68 -302h-255l67 302h256z" />
    <glyph glyph-name="slash" unicode="/" horiz-adv-x="983" 
d="M1136 1431l-1076 -1861h-202l1077 1861h201z" />
    <glyph glyph-name="zero" unicode="0" horiz-adv-x="1173" 
d="M460 -16q-170 0 -259.5 106.5t-89.5 312.5q0 131 37 301t100 298t145.5 212t180.5 125.5t206 41.5q127 0 206 -51.5t113.5 -144t34.5 -225.5q0 -104 -25 -242t-62 -244t-92.5 -197t-130.5 -157t-166.5 -101t-197.5 -35zM375 245q0 -79 25 -114t82 -35q38 0 75 28
q61 46 116 162q70 150 131 405t61 403q0 59 -9 96t-32 58t-64 21q-47 0 -92 -42q-77 -71 -145 -256q-64 -174 -112 -423q-36 -190 -36 -303z" />
    <glyph glyph-name="one" unicode="1" horiz-adv-x="1173" 
d="M728 312q-19 -86 -19 -123q0 -39 22 -59.5t71.5 -29t147.5 -9.5l-19 -91h-822l19 91q108 5 156.5 14t74 28t41.5 51.5t34 112.5l144 653q11 50 11 81q0 29 -12 42t-33 13q-20 0 -44 -7.5t-58 -25.5t-135 -74l-51 103l575 299h136q-28 -106 -62 -266z" />
    <glyph glyph-name="two" unicode="2" horiz-adv-x="1173" 
d="M675 245q52 0 80.5 7.5t48.5 28t44 77.5h122l-89 -358h-881l14 66q53 91 145 200t258 266q152 143 228.5 233.5t116 174.5t39.5 174q0 73 -38 115.5t-102 42.5q-81 0 -140 -55t-102 -169h-182l57 240q151 52 254.5 72t207.5 20q120 0 200.5 -33.5t117.5 -90.5t37 -129
q0 -67 -22 -126.5t-72.5 -124t-137 -144t-241.5 -206.5q-73 -60 -157.5 -138t-134.5 -133l-2 -10h331z" />
    <glyph glyph-name="three" unicode="3" horiz-adv-x="1173" 
d="M252 1048l57 239q133 48 245.5 71t224.5 23q100 0 176 -27.5t120 -86t44 -145.5q0 -78 -28.5 -139.5t-78.5 -110.5t-118 -86.5t-147 -65.5l-2 -13q114 -29 180 -105.5t66 -179.5q0 -92 -34.5 -171.5t-108 -144t-175.5 -93.5t-250 -29q-100 0 -209.5 22.5t-183.5 55.5
l53 243h160q10 -209 183 -209q79 0 139.5 46.5t93 126t32.5 162.5q0 106 -59.5 156t-176.5 50h-89l25 114q122 3 222 48t157 129t57 200q0 69 -36.5 106.5t-104.5 37.5q-32 0 -66 -8.5t-67 -33.5t-63 -68.5t-56 -113.5h-182z" />
    <glyph glyph-name="four" unicode="4" horiz-adv-x="1173" 
d="M392 66q48 9 80 50.5t51 130.5l33 149h-517l23 108l755 868h236l-186 -850h27q47 0 67 6.5t37.5 25t39.5 63.5h105l-58 -221h-247l-27 -126q-13 -61 -13 -107q0 -50 18 -70.5t65 -26.5l-14 -66h-489zM257 522h326l82 364q23 98 42 168h-11l-436 -515z" />
    <glyph glyph-name="five" unicode="5" horiz-adv-x="1173" 
d="M65 62l52 244h162q1 -102 49 -156t136 -54q87 0 148 50t93 139.5t32 170.5q0 99 -47 150t-142 51q-49 0 -94.5 -8t-94.5 -25l-84 63l148 678h527q36 0 53 5.5t29 16.5t33 44h104l-88 -319h-549l-80 -359q103 34 236 34q104 0 182 -36t120.5 -105.5t42.5 -166.5
q0 -59 -9 -104q-14 -71 -41 -127q-31 -65 -77.5 -113t-108.5 -80q-71 -38 -154.5 -54.5t-178.5 -16.5q-102 0 -213.5 21.5t-185.5 56.5z" />
    <glyph glyph-name="six" unicode="6" horiz-adv-x="1173" 
d="M1104 1312l-13 -62q-149 -12 -264 -73t-200.5 -163t-146.5 -247l10 -4q81 37 141.5 50.5t130.5 13.5q100 0 171.5 -43t107.5 -119t36 -172q0 -134 -61 -254.5t-183 -187.5t-294 -67q-130 0 -220.5 51t-137 149t-46.5 235q0 127 35 260.5t116 259.5t203 222.5t271 153
t308 66.5zM789 495q0 197 -139 197q-43 0 -79 -10t-69 -31q-26 -16 -44 -40t-30 -58q-15 -43 -25 -109.5t-10 -124.5q0 -113 35.5 -168t114.5 -55q72 0 127 49t87 145t32 205z" />
    <glyph glyph-name="seven" unicode="7" horiz-adv-x="1173" 
d="M1231 1299l-797 -1302h-211l15 69l690 1017l3 15h-401q-54 0 -85 -10.5t-53 -38t-51 -99.5h-120l103 415h922z" />
    <glyph glyph-name="eight" unicode="8" horiz-adv-x="1173" 
d="M898 686q81 -41 121 -103.5t40 -151.5q0 -135 -67.5 -237t-192 -156t-290.5 -54q-137 0 -236.5 37t-152.5 109.5t-53 174.5q0 141 74.5 242t226.5 167l1 13q-66 52 -101 117.5t-35 141.5q0 127 68 216.5t187.5 134t272.5 44.5q147 0 243.5 -39.5t140 -106t43.5 -150.5
q0 -131 -71 -225t-219 -161v-13zM507 933q0 -49 12.5 -86.5t45 -61t88.5 -23.5q74 0 132 43t91 122t33 176q0 85 -36.5 125.5t-109.5 40.5q-69 0 -119.5 -31.5t-81 -84.5t-43 -114.5t-12.5 -105.5zM351 266q0 -88 39.5 -128.5t121.5 -40.5q48 0 83.5 13.5t67.5 43.5t57.5 79
t40 114t14.5 138q0 82 -38.5 125t-111.5 43q-82 0 -144 -54.5t-96 -151.5t-34 -181z" />
    <glyph glyph-name="nine" unicode="9" horiz-adv-x="1173" 
d="M194 52l13 62q197 29 344 148.5t230 334.5l-9 4q-81 -38 -140 -51t-124 -13q-100 0 -173.5 43.5t-111.5 119t-38 171.5q0 144 70 262t192.5 182.5t279.5 64.5q128 0 218 -52.5t136 -149.5t46 -231q0 -120 -34 -256.5t-110.5 -262t-191.5 -220.5t-259 -153t-302 -72z
M472 866q0 -194 140 -194q35 0 66.5 7t57 20.5t43 27t31.5 34.5t23 46.5t16.5 67.5t12 84t4.5 90q0 113 -35.5 166t-111.5 53q-71 0 -126.5 -51t-88 -145.5t-32.5 -205.5z" />
    <glyph glyph-name="colon" unicode=":" horiz-adv-x="555" 
d="M509 932l-68 -302h-255l67 302h256zM369 302l-68 -302h-255l67 302h256zM370 992z" />
    <glyph glyph-name="semicolon" unicode=";" horiz-adv-x="555" 
d="M509 932l-68 -302h-255l67 302h256zM348 302q-2 -64 -8 -117t-19.5 -103t-35.5 -90.5t-69 -90t-106 -96.5t-140 -98l-68 94q73 54 115.5 115.5t66.5 160t33 225.5h231zM390 992z" />
    <glyph glyph-name="less" unicode="&#x3c;" horiz-adv-x="1173" 
d="M126 483l51 230l1009 383l-53 -232l-783 -284l658 -283l-44 -204z" />
    <glyph glyph-name="equal" unicode="=" horiz-adv-x="1173" 
d="M193 709l43 196h890l-43 -196h-890zM94 266l43 196h890l-43 -196h-890z" />
    <glyph glyph-name="greater" unicode="&#x3e;" horiz-adv-x="1173" 
d="M1096 690l-51 -230l-1009 -383l53 232l783 284l-658 283l44 204z" />
    <glyph glyph-name="question" unicode="?" horiz-adv-x="898" 
d="M307 446l9 37q4 13 9 27t12.5 30t19.5 36t31 46t43.5 54.5t56.5 63.5q77 83 120 143.5t67.5 124.5t24.5 133q0 66 -25.5 101t-78.5 35q-60 0 -108 -48t-74 -134h-178l42 193q98 40 155.5 57.5t113.5 26.5t115 9q106 0 176.5 -31t102.5 -82t32 -114q0 -55 -15.5 -103.5
t-49 -97t-87 -101.5t-153.5 -143q-63 -58 -98 -98t-53.5 -75.5t-28.5 -80.5l-2 -9h-179zM497 302l-68 -302h-255l67 302h256z" />
    <glyph glyph-name="at" unicode="@" horiz-adv-x="1887" 
d="M1124 400l-11 2q-65 -106 -148 -166t-166 -60q-70 0 -118.5 36.5t-72 99t-23.5 140.5q0 82 19.5 166t59 161t96.5 136t134 94.5t169 35.5q54 0 101.5 -12t92.5 -42l81 55l100 -22l-112 -505q-12 -55 -15 -79t-3 -42q0 -47 18 -70t56 -23q64 0 115 52.5t80.5 147.5
t29.5 206q0 143 -38 246t-107 169.5t-165.5 97.5t-213.5 31q-211 0 -369 -91.5t-242.5 -258.5t-84.5 -379q0 -179 63 -304t186.5 -189t298.5 -64q84 0 161 12.5t166 40.5l33 -120q-76 -28 -172.5 -44t-197.5 -16q-261 0 -431 82.5t-250.5 237.5t-80.5 378q0 170 61.5 322
t182 270.5t292.5 184t374 65.5q135 0 242 -24t188.5 -66.5t139 -101.5t94 -129.5t53.5 -150.5t17 -163q0 -166 -55 -297.5t-157 -202.5t-235 -71q-49 0 -92 10t-75 34.5t-50.5 65.5t-18.5 102v12zM1158 724q4 21 8.5 53.5t4.5 59.5q0 54 -21.5 78.5t-68.5 24.5
q-76 0 -137.5 -64.5t-99 -180t-37.5 -231.5q0 -72 17 -106t60 -34q40 0 78 26.5t80.5 85t67 113t40.5 136.5z" />
    <glyph glyph-name="A" unicode="A" horiz-adv-x="1258" 
d="M750 423h-391l-14 -25q-23 -40 -39.5 -72.5t-29.5 -66t-18.5 -60t-5.5 -50.5q0 -72 85 -83l-15 -66h-422l15 66q35 8 61.5 27t50.5 51.5t68 111.5l621 1116h288l43 -1069q2 -61 7 -96.5t13 -60.5t19.5 -42t29.5 -26t40 -12l-15 -66h-517l15 66q44 3 69.5 22.5t35.5 53
t10 93.5q0 43 -2 90zM421 540h326l-4 240q-2 128 -2 212q0 64 1 131h-12z" />
    <glyph glyph-name="B" unicode="B" horiz-adv-x="1280" 
d="M855 1365q141 0 228 -19t138 -55q46 -32 70.5 -82.5t24.5 -120.5q0 -95 -34.5 -165t-104 -122.5t-184.5 -97.5l-2 -11q94 -38 145.5 -106t51.5 -157q0 -68 -19 -128.5t-55 -107t-94.5 -87t-120 -62t-147 -33t-203.5 -11.5h-543l14 66q42 12 64.5 33t38.5 59.5t32 111.5
l182 825q13 59 13 117q0 42 -19.5 61.5t-63.5 25.5l14 66h574zM717 767q88 0 153.5 39.5t100.5 109.5t35 161q0 86 -54 128.5t-168 42.5q-70 0 -118 -5l-105 -476h156zM420 120q21 -2 66.5 -2.5t61.5 -0.5q96 0 157.5 26.5t100 72t60 111.5t21.5 135q0 93 -53 140.5
t-160 47.5h-138z" />
    <glyph glyph-name="C" unicode="C" horiz-adv-x="1130" 
d="M1241 1332l-64 -292h-131q-3 89 -18 134t-47 67.5t-87 22.5q-44 0 -91 -19.5t-93 -61.5q-53 -49 -100.5 -125.5t-85.5 -176.5q-30 -81 -55.5 -184t-36 -189t-10.5 -153q0 -84 15.5 -139t54 -85t106.5 -30q75 0 128.5 25.5t92 73.5t75.5 132h131l-64 -295
q-97 -28 -193 -40.5t-206 -12.5q-213 0 -327 116.5t-114 335.5q0 66 12 153q20 134 62 255q48 138 121 240t164 167.5t197.5 97.5t227.5 32q92 0 174.5 -12.5t161.5 -36.5z" />
    <glyph glyph-name="D" unicode="D" horiz-adv-x="1390" 
d="M6 0l14 66q42 12 64.5 33t38.5 59.5t32 111.5l182 825q13 59 13 117q0 42 -19.5 61.5t-63.5 25.5l14 66h405q143 0 233 -13t158 -42q44 -20 95 -53t92.5 -90t63.5 -136t22 -176q0 -133 -30 -255t-88.5 -225.5t-140 -178t-163.5 -116t-185 -61t-244 -19.5h-493zM420 122
q46 -4 74 -4q129 0 222.5 51t166 155.5t114 255t41.5 302.5q0 103 -23 173t-63.5 113t-94 61.5t-113.5 18.5q-50 0 -77 -2z" />
    <glyph glyph-name="E" unicode="E" horiz-adv-x="1150" 
d="M1252 1365l-71 -322h-128q-5 95 -18 133t-40 55t-76 17h-251l-106 -480h139q40 0 67.5 13t51 43.5t46.5 84.5h110l-96 -406h-103q0 58 -7 89t-26 45t-65 14h-142l-118 -534h225q44 0 68.5 6t45 19t47.5 41.5t53.5 72t54.5 104.5h136l-92 -360h-951l14 66q42 12 64.5 33
t38.5 59.5t32 111.5l182 825q13 59 13 117q0 42 -19.5 61.5t-63.5 25.5l14 66h971z" />
    <glyph glyph-name="F" unicode="F" horiz-adv-x="1098" 
d="M453 270q-6 -26 -8 -41t-3.5 -32.5t-1.5 -43.5q0 -46 23.5 -65t73.5 -22l-14 -66h-517l14 66q42 12 64.5 33t38.5 59.5t32 111.5l182 825q13 59 13 117q0 42 -19.5 61.5t-63.5 25.5l14 66h946l-71 -322h-128q-5 95 -18 133t-40 55t-76 17h-226l-110 -500h134
q38 0 66 15.5t52 49t51 96.5h110l-105 -446h-103q0 70 -7.5 104t-26.5 49t-59 15h-137z" />
    <glyph glyph-name="G" unicode="G" horiz-adv-x="1268" 
d="M807 371q8 37 10 61.5t2 44.5q0 41 -19 61.5t-65 26.5l14 66h488l-14 -66q-39 -13 -58 -31.5t-34 -54t-33 -118.5l-77 -345l-138 -32l-53 71q-131 -71 -273 -71q-210 0 -322.5 118t-112.5 341q0 109 30 247t83 250.5t124 196t157 138t180.5 80.5t203.5 26q212 0 380 -57
l-61 -286h-131q0 87 -18.5 135.5t-56.5 69.5t-102 21q-63 0 -118 -26q-64 -31 -120 -95q-66 -75 -119 -195q-58 -130 -100 -305q-36 -154 -36 -289q0 -126 41.5 -189.5t125.5 -63.5q50 0 85 17.5t59.5 46.5t39.5 66.5t24 76.5z" />
    <glyph glyph-name="H" unicode="H" horiz-adv-x="1415" 
d="M1175 270q-6 -26 -8 -41t-3.5 -32.5t-1.5 -43.5q0 -42 19.5 -61.5t63.5 -25.5l-14 -66h-503l14 66q42 12 64.5 33t38.5 59.5t32 111.5l84 382h-424l-84 -382q-6 -27 -8 -41.5t-3.5 -32t-1.5 -43.5q0 -42 19.5 -61.5t63.5 -25.5l-14 -66h-503l14 66q42 12 64.5 33
t38.5 59.5t32 111.5l182 825q13 59 13 117q0 42 -19.5 61.5t-63.5 25.5l14 66h503l-14 -66q-42 -12 -64.5 -33t-38.5 -59.5t-32 -111.5l-70 -317h424l70 317q13 59 13 117q0 42 -19.5 61.5t-63.5 25.5l14 66h503l-14 -66q-42 -12 -64.5 -33t-38.5 -59.5t-32 -111.5z" />
    <glyph glyph-name="I" unicode="I" horiz-adv-x="699" 
d="M509 0h-503l14 66q42 12 64.5 33t38.5 59.5t32 111.5l182 825q13 59 13 117q0 42 -19.5 61.5t-63.5 25.5l14 66h503l-14 -66q-42 -12 -64.5 -33t-38.5 -59.5t-32 -111.5l-182 -825q-6 -26 -8 -41t-3.5 -32.5t-1.5 -43.5q0 -42 19.5 -61.5t63.5 -25.5z" />
    <glyph glyph-name="J" unicode="J" horiz-adv-x="682" 
d="M404 85q-53 -239 -178 -355t-332 -116q-55 0 -109 15l29 118q36 -10 72 -10q59 0 94 28t60 88.5t54 189.5l234 1052q13 58 13 117q0 42 -19.5 61.5t-63.5 25.5l14 66h503l-14 -66q-42 -12 -64.5 -33t-38.5 -59.5t-32 -111.5z" />
    <glyph glyph-name="K" unicode="K" horiz-adv-x="1341" 
d="M560 757h15q38 0 72 13t78.5 48.5t145.5 135.5q89 88 131.5 140t57.5 89q11 27 11 50q0 35 -16 48.5t-53 17.5l15 66h488l-15 -68q-33 -7 -58 -19t-62.5 -43t-111.5 -102l-362 -347l211 -520q26 -63 45 -99.5t37 -57t37 -30t42 -14.5l-13 -65h-500l15 66q27 3 38 14
t11 36q0 24 -10 61.5t-43 122.5l-91 236q-19 49 -35.5 71.5t-35 31.5t-53.5 9h-15l-83 -378q-6 -27 -8 -41.5t-3.5 -32t-1.5 -43.5q0 -42 19.5 -61.5t63.5 -25.5l-14 -66h-503l14 66q42 12 64.5 33t38.5 59.5t32 111.5l182 825q13 59 13 117q0 42 -19.5 61.5t-63.5 25.5
l14 66h503l-14 -66q-42 -12 -64.5 -33t-38.5 -59.5t-32 -111.5z" />
    <glyph glyph-name="L" unicode="L" horiz-adv-x="1088" 
d="M608 119q49 0 76 8t49 25t48.5 47t52.5 78t53 120h136l-102 -397h-915l14 66q42 12 64.5 33t38.5 59.5t32 111.5l182 825q13 59 13 117q0 42 -19.5 61.5t-63.5 25.5l14 66h503l-14 -66q-42 -12 -64.5 -33t-38.5 -59.5t-32 -111.5l-216 -976h189z" />
    <glyph glyph-name="M" unicode="M" horiz-adv-x="1676" 
d="M743 1365l78 -835l474 835h465l-14 -66q-42 -12 -64.5 -33t-38.5 -59.5t-32 -111.5l-182 -825q-6 -26 -8 -41t-3.5 -32.5t-1.5 -43.5q0 -42 19.5 -61.5t63.5 -25.5l-14 -66h-503l14 66q42 12 64.5 33t38.5 59.5t32 111.5l92 420q15 68 43 181.5t65 237.5h-20
q-47 -86 -101 -179l-450 -779h-162l-66 601q-13 114 -19.5 199t-10.5 168h-16q-14 -92 -36 -210.5t-40 -199.5l-97 -439q-6 -26 -8 -41t-3.5 -32.5t-1.5 -43.5q0 -42 19.5 -61.5t63.5 -25.5l-14 -66h-367l14 66q42 12 64.5 33t38.5 59.5t32 111.5l182 825q13 59 13 117
q0 42 -19.5 61.5t-63.5 25.5l14 66h466z" />
    <glyph glyph-name="N" unicode="N" horiz-adv-x="1355" 
d="M280 1365h380l193 -566q79 -231 125 -408h13q29 173 76 383l70 321q13 60 13 117q0 42 -19.5 61.5t-63.5 25.5l14 66h368l-14 -66q-42 -12 -64.5 -33t-38.5 -59.5t-32 -111.5l-241 -1095h-228l-240 699q-28 82 -50 153.5t-53 181.5l-15 1q-8 -67 -30.5 -184.5
t-53.5 -254.5l-72 -326q-6 -26 -8 -41t-3.5 -32.5t-1.5 -43.5q0 -42 19.5 -61.5t63.5 -25.5l-14 -66h-368l14 66q42 12 64.5 33t38.5 59.5t32 111.5l182 825q13 59 13 117q0 42 -19.5 61.5t-63.5 25.5z" />
    <glyph glyph-name="O" unicode="O" horiz-adv-x="1383" 
d="M581 -16q-228 0 -344 119.5t-116 351.5q0 79 16 181t54 215.5t105 214.5t157.5 172.5t201.5 107t233 35.5q228 0 345.5 -119t117.5 -346q0 -96 -20.5 -213.5t-67 -236t-114.5 -210.5t-157 -153.5t-191.5 -90t-219.5 -28.5zM422 362q0 -138 40 -199.5t130 -61.5
q48 0 92 22q55 27 105 83q62 69 114 176t86 234q28 103 49 240q12 76 12 150q0 134 -40 196t-132 62q-87 0 -169 -77.5t-148.5 -218.5t-102.5 -316.5t-36 -289.5z" />
    <glyph glyph-name="P" unicode="P" horiz-adv-x="1221" 
d="M780 1365q105 0 160 -6q75 -7 136.5 -30.5t103.5 -62t64 -93t22 -124.5q0 -112 -41.5 -200.5t-117.5 -152.5t-193.5 -96.5t-262.5 -32.5h-29q-61 0 -102 5l-67 -302q-7 -32 -10 -55.5t-3 -61.5q0 -46 23.5 -65t73.5 -22l-14 -66h-517l14 66q42 12 64.5 33t38.5 59.5
t32 111.5l182 825q13 59 13 117q0 42 -19.5 61.5t-63.5 25.5l14 66h499zM597 683q101 0 166 23t108.5 72t66 118.5t22.5 150.5q0 101 -47.5 151t-147.5 50q-56 0 -97 -2l-123 -563h52z" />
    <glyph glyph-name="Q" unicode="Q" horiz-adv-x="1383" 
d="M788 9l22 -59q22 -60 41 -91t43.5 -46.5t62.5 -15.5t75 21t83 68l77 -77q-100 -100 -181 -146t-175 -46q-108 0 -182 61t-116 191l-39 119q-184 20 -281 137.5t-97 329.5q0 79 16 181t54 215.5t105 214.5t157.5 172.5t201.5 107t233 35.5q228 0 345.5 -119t117.5 -346
q0 -98 -22 -220.5t-68.5 -236.5t-117 -206.5t-161 -156t-194.5 -87.5zM422 362q0 -138 40 -199.5t130 -61.5q48 0 92 22q55 27 105 83q62 69 114 176t86 234q28 103 49 240q12 76 12 150q0 134 -40 196t-132 62q-87 0 -169 -77.5t-148.5 -218.5t-102.5 -316.5t-36 -289.5z
" />
    <glyph glyph-name="R" unicode="R" horiz-adv-x="1294" 
d="M907 625q60 -49 87.5 -94.5t46.5 -132.5l29 -140q16 -76 30.5 -108.5t39 -53t67.5 -30.5l-14 -66h-357q-33 94 -58 223l-32 166q-14 75 -33 118t-48 62t-78 19h-62l-72 -318q-7 -33 -10 -57t-3 -60q0 -46 23.5 -65t73.5 -22l-14 -66h-517l14 66q42 12 64.5 33t38.5 59.5
t32 111.5l182 825q13 59 13 117q0 42 -19.5 61.5t-63.5 25.5l14 66h499q101 0 159.5 -5.5t112 -22t92 -41t66 -58.5t42 -79t14.5 -101q0 -151 -89 -256t-271 -168zM614 705q99 0 163.5 23t107.5 71t66 112t23 144q0 97 -49 145t-155 48q-76 0 -102 -2l-117 -541h63z" />
    <glyph glyph-name="S" unicode="S" horiz-adv-x="1026" 
d="M185 333q3 -88 27 -138.5t68 -72t116 -21.5q109 0 172 62.5t63 174.5q0 58 -20 102.5t-61.5 86.5t-143.5 117q-95 70 -143.5 155t-48.5 178q0 79 34 155t100.5 132.5t167.5 86.5t236 30q100 0 184 -10.5t173 -37.5l-61 -285h-131q-1 112 -44 164t-139 52
q-105 0 -166 -56.5t-61 -155.5q0 -70 48.5 -132.5t146.5 -133.5q89 -66 137 -118.5t72 -111.5t24 -135q0 -102 -49 -194q-47 -86 -127 -143q-71 -50 -146 -72q-92 -28 -235 -28q-92 0 -192.5 16t-193.5 45l62 288h131z" />
    <glyph glyph-name="T" unicode="T" horiz-adv-x="1234" 
d="M1363 1365l-79 -362h-128q-1 111 -13 155.5t-38.5 67t-74.5 22.5h-89l-215 -978q-6 -27 -8 -41.5t-3.5 -32t-1.5 -43.5q0 -46 23.5 -65t73.5 -22l-14 -66h-531l14 66q44 6 70 26t43.5 59.5t35.5 118.5l215 978h-80q-39 0 -63.5 -7t-42.5 -19.5t-39 -35t-46.5 -61
t-54.5 -101.5h-131l75 341h1102z" />
    <glyph glyph-name="U" unicode="U" horiz-adv-x="1339" 
d="M1160 476q-29 -135 -77.5 -231t-116.5 -152.5t-158 -82.5t-220 -26q-85 0 -160.5 21.5t-131.5 66.5t-88.5 112.5t-32.5 160.5q0 49 7 108t34 181l104 461q13 58 13 117q0 42 -19.5 61.5t-63.5 25.5l14 66h503l-14 -66q-42 -12 -64.5 -33t-38.5 -59.5t-32 -111.5
l-135 -613q-15 -67 -20 -111.5t-5 -85.5q0 -90 44.5 -137t130.5 -47q85 0 142 37t91.5 105.5t58.5 176.5l149 675q9 39 11 66.5t2 50.5q0 42 -19.5 61.5t-63.5 25.5l14 66h426l-14 -66q-44 -13 -66.5 -35t-38 -61t-30.5 -108z" />
    <glyph glyph-name="V" unicode="V" horiz-adv-x="1221" 
d="M942 928q57 107 78 153.5t28 77t7 57.5q0 72 -85 83l15 66h426l-15 -66q-30 -6 -53 -20.5t-43.5 -38t-40 -56t-43.5 -75.5l-621 -1116h-251l-43 1069q-2 61 -7 96.5t-13 60.5t-19.5 42t-29.5 26t-40 12l15 66h517l-15 -66q-44 -3 -68.5 -22t-35 -51t-10.5 -96v-43
q0 -22 1 -47l9 -491q2 -138 2 -227h12z" />
    <glyph glyph-name="W" unicode="W" horiz-adv-x="1904" 
d="M1649 975q44 85 65 139t21 90q0 30 -7 48t-26 30t-52 17l15 66h425l-15 -66q-33 -6 -58.5 -24t-48.5 -48t-45 -68.5t-59 -107.5l-573 -1058h-240l-2 644v170q0 65 1 136h-13q-33 -71 -56 -119l-418 -831h-240l-20 1064q-2 95 -14.5 144t-33.5 70.5t-59 27.5l15 66h512
l-15 -66q-29 -4 -49.5 -13.5t-34 -28t-19 -47.5t-6.5 -53l-1 -117l-4 -376q-1 -83 -5 -200l-5 -119h13q23 51 49.5 106t96.5 195l361 719h219l1 -655l1 -89q0 -140 -7 -276h13q47 98 169 339z" />
    <glyph glyph-name="X" unicode="X" horiz-adv-x="1200" 
d="M727 1365l-15 -66q-43 -4 -62.5 -26.5t-19.5 -58.5q0 -30 11 -71.5t34 -99.5l63 -166l134 166q64 80 89 120.5t25 67.5q0 34 -17 48.5t-56 19.5l15 66h416l-15 -67q-18 -3 -37 -12.5t-43 -30.5t-64 -63.5t-107 -121.5l-287 -333l177 -461q33 -87 56 -127t45 -57.5
t54 -25.5l-14 -66h-510l14 66q39 4 59 22t20 50q0 36 -9 73t-26 82l-89 235l-207 -247q-46 -55 -65 -87t-19 -63q0 -60 74 -65l-14 -66h-417l14 66q24 6 48.5 21t61.5 52t125 137l345 390l-153 404q-11 29 -29 71.5t-34.5 74t-31 47.5t-28.5 24t-35 12l15 66h509z" />
    <glyph glyph-name="Y" unicode="Y" horiz-adv-x="1181" 
d="M681 269q-7 -29 -10 -54.5t-3 -61.5q0 -46 23.5 -65t73.5 -22l-14 -66h-531l14 66q44 6 70 26t43.5 59.5t35.5 118.5l59 271l-130 556q-9 38 -18 69.5t-21.5 59t-25.5 42.5t-25.5 21.5t-36.5 9.5l15 66h489l-15 -66q-78 -9 -78 -92q0 -53 20 -142l79 -366l229 332
q55 79 72 120.5t17 83.5q0 28 -16 43.5t-56 20.5l15 66h410l-15 -66q-20 -5 -36.5 -14t-38 -29.5t-60.5 -69.5t-90 -121l-387 -534z" />
    <glyph glyph-name="Z" unicode="Z" horiz-adv-x="1114" 
d="M374 119h254q33 0 54.5 5t37 13.5t32.5 25t42 50t44 70.5t38 88h131l-80 -371h-954l14 66l839 1180h-244q-42 0 -64 -6t-40.5 -18.5t-42.5 -39.5t-53.5 -77.5t-45.5 -90.5h-131l77 351h946l-15 -66z" />
    <glyph glyph-name="bracketleft" unicode="[" horiz-adv-x="727" 
d="M483 -430h-491l408 1861h491l-24 -109h-221l-360 -1643h221z" />
    <glyph glyph-name="backslash" unicode="\" horiz-adv-x="983" 
d="M445 1431l280 -1861h-179l-278 1861h177z" />
    <glyph glyph-name="bracketright" unicode="]" horiz-adv-x="727" 
d="M253 1431h491l-408 -1861h-491l24 109h221l360 1643h-221z" />
    <glyph glyph-name="asciicircum" unicode="^" horiz-adv-x="1173" 
d="M846 667l-105 517l-319 -517h-233l475 714h227l164 -714h-209z" />
    <glyph glyph-name="underscore" unicode="_" horiz-adv-x="721" 
d="M-161 -261l34 156h720l-34 -156h-720z" />
    <glyph glyph-name="grave" unicode="`" horiz-adv-x="554" 
d="M471 1475l136 -339l-85 -48l-246 321l14 66h181z" />
    <glyph glyph-name="a" unicode="a" horiz-adv-x="1167" 
d="M912 936l90 72l112 -16l-154 -697q-12 -53 -17.5 -85t-5.5 -54q0 -45 22 -65t78 -25l-11 -66h-384l54 205l-13 4q-68 -88 -126.5 -136.5t-115 -68.5t-130.5 -20q-70 0 -123 33t-84 104.5t-31 181.5q0 105 24.5 212t72.5 199.5t121 158.5t165.5 100.5t201.5 34.5
q149 0 254 -72zM761 622q7 32 11.5 71.5t4.5 76.5q0 66 -25 100t-82 34q-93 0 -165 -93.5t-116 -251.5t-44 -283q0 -73 21.5 -109t66.5 -36q66 0 134.5 64.5t110.5 151.5t75 238z" />
    <glyph glyph-name="b" unicode="b" horiz-adv-x="1162" 
d="M499 820l13 -4q63 73 116 114.5t107.5 59.5t122.5 18q69 0 122.5 -32.5t85 -104.5t31.5 -182q0 -88 -21 -193.5t-59 -187t-91 -142.5t-118.5 -101t-141.5 -60.5t-163 -20.5q-66 0 -126 16t-124 56l-93 -72l-109 16l253 1130q21 94 21 143q0 22 -4.5 34.5t-13.5 20.5
t-23.5 12.5t-58.5 10.5l16 65l294 16h117zM410 370q-16 -74 -16 -145q0 -73 24.5 -105t82.5 -32q37 0 68.5 12t62 39.5t61.5 80.5q39 66 68.5 150t46.5 176.5t17 169.5q0 74 -21.5 109.5t-66.5 35.5q-66 0 -134.5 -64.5t-109.5 -149.5t-75 -240z" />
    <glyph glyph-name="c" unicode="c" horiz-adv-x="926" 
d="M759 265l81 -87q-105 -105 -210 -149.5t-231 -44.5q-103 0 -176 44t-109.5 125.5t-36.5 191.5q0 87 21 173q15 63 39 124q32 81 75 141q51 70 122.5 121t161 77.5t192.5 26.5q67 0 145 -10.5t138 -29.5l-56 -244h-180q2 21 2 43q0 72 -22 104.5t-65 32.5q-74 0 -141 -85
t-112 -236t-45 -265q0 -188 137 -188q69 0 130.5 31t139.5 104z" />
    <glyph glyph-name="d" unicode="d" horiz-adv-x="1167" 
d="M863 1130q6 25 14 72t8 71q0 22 -4.5 34.5t-13.5 20.5t-24 12.5t-59 10.5l16 65l299 16h113l-252 -1137q-11 -49 -17 -82.5t-6 -56.5q0 -45 22 -65t78 -25l-11 -66h-384l54 205l-13 4q-68 -88 -126.5 -136.5t-115 -68.5t-130.5 -20q-70 0 -123 33t-84 104.5t-31 181.5
q0 105 24.5 212t72 199.5t120.5 158.5t165.5 100.5t201.5 34.5q89 0 172 -31zM761 622q6 30 11 69.5t5 77.5q0 67 -25 101t-82 34q-93 0 -165 -93.5t-116 -251.5t-44 -283q0 -73 21.5 -109t66.5 -36q66 0 134.5 64.5t110.5 151.5t75 238z" />
    <glyph glyph-name="e" unicode="e" horiz-adv-x="1021" 
d="M910 208q-101 -114 -217.5 -169t-252.5 -55q-117 0 -199 41t-123.5 121.5t-41.5 192.5q0 52 14 133q19 110 58 196q49 106 128 182t185.5 117t233.5 41q150 0 228 -54.5t78 -166.5q0 -76 -30.5 -134t-101.5 -105t-200.5 -76t-312.5 -33q-13 -59 -13 -122q0 -37 7 -70.5
t25 -59.5t48 -41.5t77 -15.5q88 0 159 35.5t167 126.5zM380 544q184 5 281.5 70.5t97.5 185.5q0 51 -23.5 77.5t-65.5 26.5q-93 0 -167.5 -92t-122.5 -268z" />
    <glyph glyph-name="f" unicode="f" horiz-adv-x="656" 
d="M136 867l14 66q41 4 61.5 10t35.5 17.5t28 37.5t28 82q25 95 63 157.5t99 109t142.5 68t179.5 21.5q39 0 84.5 -3t103.5 -15l-45 -200h-129q-4 62 -20 88t-50 26q-23 0 -41 -9t-35 -32t-32.5 -66.5t-32.5 -122.5l-25 -110h190l-27 -125h-191l-181 -836
q-35 -161 -98.5 -266t-164.5 -158.5t-247 -53.5q-47 0 -95 13l27 109q28 -8 66 -8q45 0 73.5 12.5t51.5 43t43 89.5t44 166l200 889h-120z" />
    <glyph glyph-name="g" unicode="g" horiz-adv-x="1157" 
d="M152 -83q-27 -33 -37.5 -62t-10.5 -63q0 -68 47.5 -101.5t142.5 -33.5q70 0 126 23t103 75.5t87.5 156t77.5 278.5l-13 9q-65 -82 -120.5 -128t-112.5 -66.5t-130 -20.5q-69 0 -122.5 33t-85 104.5t-31.5 181.5q0 137 40 270.5t113.5 229.5t183 150.5t250.5 54.5
q71 0 130.5 -15.5t121.5 -56.5l90 72l112 -16l-86 -391q-21 -96 -38 -184l-63 -308q-26 -125 -53 -205q-24 -70 -53 -119q-26 -46 -61 -82q-34 -36 -73 -61q-41 -27 -91 -45q-57 -21 -127 -32q-75 -12 -171 -12q-140 0 -235.5 25t-142 75.5t-46.5 125.5q0 62 44 117t130 105
zM761 623q16 74 16 144q0 69 -25 103t-82 34q-90 0 -162 -90t-117.5 -250t-45.5 -288q0 -73 21.5 -109t66.5 -36q43 0 87 27.5t92.5 85t81.5 138.5t59 204z" />
    <glyph glyph-name="h" unicode="h" horiz-adv-x="1187" 
d="M499 821l13 -4q80 98 162.5 144.5t184.5 46.5t161 -57.5t59 -158.5q0 -65 -20 -155l-82 -370q-10 -46 -13.5 -71t-3.5 -43q0 -45 22.5 -63t77.5 -24l-12 -66h-415l125 544q27 116 33 160t6 69q0 45 -19 67t-55 22q-32 0 -70 -24t-85 -75t-75 -108t-45 -142l-110 -513
h-287l253 1130q22 98 22 143q0 22 -4.5 34.5t-13.5 20.5t-24 12.5t-59 10.5l16 65l299 16h113z" />
    <glyph glyph-name="i" unicode="i" horiz-adv-x="619" 
d="M638 1391l-52 -245h-259l55 245h256zM407 267q-11 -50 -14 -74t-3 -40q0 -43 22.5 -62t77.5 -25l-11 -66h-416l156 698q13 60 18 93.5t5 56.5q0 39 -18.5 55.5t-77.5 22.5l15 66l293 11h114z" />
    <glyph glyph-name="j" unicode="j" horiz-adv-x="608" 
d="M638 1391l-52 -245h-259l55 245h256zM356 31q-35 -162 -99 -267t-165 -158t-246 -53q-47 0 -95 13l27 109q28 -8 66 -8q45 0 73.5 12.5t51.5 43t43 89.5t44 166l162 720q13 56 18 91t5 59q0 39 -18.5 55.5t-77.5 22.5l15 66l293 11h114z" />
    <glyph glyph-name="k" unicode="k" horiz-adv-x="1102" 
d="M467 590h20q31 0 59.5 9.5t67.5 35t104 77.5q41 33 61.5 59t29 49t8.5 48q0 23 -12.5 39t-44.5 19l16 66h356l25 -65q-62 -68 -167 -148l-225 -169l130 -367q23 -66 40 -99t42 -52t73 -26l-15 -66h-356l-134 432q-10 31 -18.5 43t-21 16.5t-33.5 4.5h-25l-109 -496h-287
l253 1130q22 98 22 143q0 22 -4.5 34.5t-13.5 20.5t-24 12.5t-59 10.5l16 65l299 16h113z" />
    <glyph glyph-name="l" unicode="l" horiz-adv-x="608" 
d="M540 1432h113l-258 -1165q-10 -46 -13.5 -71t-3.5 -43q0 -43 22.5 -62t77.5 -25l-11 -66h-416l253 1130q22 98 22 143q0 22 -4.5 34.5t-13.5 20.5t-24 12.5t-59 10.5l16 65z" />
    <glyph glyph-name="m" unicode="m" horiz-adv-x="1774" 
d="M1087 801q85 108 170 157.5t191 49.5q103 0 160.5 -57.5t57.5 -158.5q0 -65 -20 -155l-82 -370q-10 -46 -13.5 -71t-3.5 -43q0 -45 22.5 -63t77.5 -24l-12 -66h-415l138 601q11 47 16.5 77t8 52t2.5 40q0 45 -18.5 68.5t-55.5 23.5q-30 0 -69 -25.5t-84.5 -75.5
t-73.5 -106.5t-45 -141.5l-110 -513h-288l144 627q10 40 14 64t5.5 41t1.5 31q0 52 -18 75.5t-57 23.5q-47 0 -112.5 -61t-102 -124.5t-56.5 -163.5l-110 -513h-287l157 706q5 24 13.5 68.5t8.5 74.5q0 42 -23.5 57.5t-73.5 19.5l15 66l275 11h105l-57 -216l12 -4
q70 86 128.5 134.5t116.5 69.5t129 21q100 0 157.5 -55t60.5 -152z" />
    <glyph glyph-name="n" unicode="n" horiz-adv-x="1199" 
d="M1060 0h-415l125 544q27 116 33 160t6 69q0 45 -19 67t-55 22q-32 0 -70 -24t-85 -75t-75 -108t-45 -142l-110 -513h-287l157 706q5 24 13.5 68.5t8.5 74.5q0 42 -23.5 57.5t-73.5 19.5l15 66l275 11h105l-57 -216l12 -4q69 85 128 133.5t117.5 70t129.5 21.5
q103 0 162 -57.5t59 -158.5q0 -65 -20 -155l-82 -370q-10 -46 -13.5 -71t-3.5 -43q0 -45 22.5 -63t77.5 -24z" />
    <glyph glyph-name="o" unicode="o" horiz-adv-x="1106" 
d="M448 -16q-110 0 -193.5 39.5t-131 120t-47.5 196.5q0 44 6 98q8 68 28 139q23 82 58 146q38 72 88 124.5t108.5 87t127.5 52.5q82 21 172 21q124 0 208 -45.5t124.5 -126.5t40.5 -188q0 -132 -44 -265t-121.5 -223t-183.5 -133t-240 -43zM345 275q0 -94 30.5 -140.5
t96.5 -46.5q37 0 70.5 15.5t66 53t58.5 95t49.5 142t36.5 165.5t13 151q0 100 -30.5 147t-94.5 47q-84 0 -145.5 -81.5t-106 -252t-44.5 -295.5z" />
    <glyph glyph-name="p" unicode="p" horiz-adv-x="1170" 
d="M218 697q24 108 24 150q0 41 -21 57.5t-76 21.5l15 66l271 11h109l-57 -216l12 -4q68 87 126 135.5t115 69t131 20.5q70 0 123 -33t84 -104.5t31 -181.5q0 -105 -24.5 -212t-72 -199.5t-120.5 -158.5t-165.5 -100.5t-201.5 -34.5q-89 0 -172 31l-45 -211
q-3 -16 -5.5 -30.5t-3.5 -27t-1 -23.5q0 -43 22.5 -62t77.5 -25l-11 -66h-416zM418 370q-16 -74 -16 -145q0 -73 24.5 -105t82.5 -32q37 0 68.5 12t62 39.5t61.5 80.5q39 66 68.5 150t46.5 176.5t17 169.5q0 74 -21.5 109.5t-66.5 35.5q-66 0 -134.5 -64.5t-109.5 -149.5
t-75 -240z" />
    <glyph glyph-name="q" unicode="q" horiz-adv-x="1156" 
d="M667 188q-61 -77 -116.5 -122t-111.5 -64t-127 -19t-124 33t-84 105t-31 182q0 105 24.5 212t72.5 199.5t121 158.5t165.5 100.5t201.5 34.5q149 0 254 -72l90 72l112 -16l-254 -1156q-11 -49 -14 -73t-3 -41q0 -44 22 -62t78 -25l-11 -66h-415l163 615zM761 622
q16 74 16 146q0 68 -25 102t-82 34q-94 0 -165 -92t-115.5 -250.5t-44.5 -285.5q0 -73 21.5 -109t66.5 -36q66 0 134.5 64.5t110.5 151.5t75 238z" />
    <glyph glyph-name="r" unicode="r" horiz-adv-x="934" 
d="M944 720h-179q0 67 -14.5 93t-49.5 26q-16 0 -33.5 -6.5t-40 -23t-54 -53.5t-52.5 -72t-35 -73.5t-26 -97.5l-110 -513h-287l157 706q22 99 22 143q0 42 -23.5 57.5t-73.5 19.5l15 66l275 11h113l-75 -232l12 -4q84 119 177 180t201 61q66 0 140 -19z" />
    <glyph glyph-name="s" unicode="s" horiz-adv-x="906" 
d="M179 280q5 -72 29.5 -115.5t60.5 -60t84 -16.5q79 0 122 38.5t43 108.5q0 42 -14 71t-46 56.5t-104 71.5q-100 60 -145.5 124.5t-45.5 144.5q0 147 110 226t308 79q77 0 165.5 -12.5t161.5 -33.5l-52 -239h-127q-9 93 -47.5 137t-110.5 44q-67 0 -107.5 -34.5
t-40.5 -93.5q0 -37 15.5 -65t49.5 -56t101 -68q106 -63 152 -130t46 -157q0 -102 -54.5 -174t-149 -107t-215.5 -35q-107 0 -199 13t-173 35l56 248h127z" />
    <glyph glyph-name="t" unicode="t" horiz-adv-x="745" 
d="M732 182q-71 -77 -127 -118t-117 -60.5t-141 -19.5q-81 0 -134.5 29.5t-77.5 79t-24 111.5q0 47 7 89.5t29 139.5l103 434h-135l14 66q62 4 97 20.5t59.5 48.5t46.5 88t49 152h240l-58 -250h243l-27 -125h-245l-111 -457q-7 -30 -13 -59t-10 -55.5t-5.5 -44t-1.5 -31.5
q0 -47 17 -68.5t50 -21.5q45 0 92.5 32t102.5 99z" />
    <glyph glyph-name="u" unicode="u" horiz-adv-x="1197" 
d="M147 992h415l-125 -544q-27 -116 -33 -160t-6 -69q0 -47 18.5 -68t54.5 -21q20 0 43 9.5t46 28t56 51.5t58 70.5t41.5 80.5t30.5 109l110 513h287l-157 -706q-5 -24 -13.5 -68.5t-8.5 -74.5q0 -42 23.5 -57.5t73.5 -19.5l-15 -66h-377l54 205l-12 4
q-93 -116 -179.5 -170.5t-196.5 -54.5q-101 0 -160 57.5t-59 158.5q0 65 20 155l82 370q10 46 13.5 71t3.5 43q0 44 -22 62t-78 25z" />
    <glyph glyph-name="v" unicode="v" horiz-adv-x="1024" 
d="M1025 992l35 -66q-126 -334 -582 -941h-194l-93 762q-10 80 -22.5 113t-31.5 48t-57 18l15 66h352l69 -747q151 215 222.5 360.5t71.5 241.5q0 38 -18 57.5t-63 21.5l14 66h282z" />
    <glyph glyph-name="w" unicode="w" horiz-adv-x="1583" 
d="M1580 992l35 -66q-47 -135 -205.5 -393.5t-376.5 -547.5h-169l-31 296q-13 120 -17 181t-4 97h-10q-56 -117 -145 -264t-206 -310h-182l-79 769q-7 70 -17.5 103.5t-30 49.5t-57.5 19l15 66h349l55 -726q115 179 168.5 284t79.5 192.5t36 183.5l14 66h225l62 -727
q145 219 210.5 356t65.5 226q0 38 -18 57.5t-63 21.5l14 66h282z" />
    <glyph glyph-name="x" unicode="x" horiz-adv-x="989" 
d="M591 642q90 82 117 128t27 92q0 25 -13 42.5t-46 21.5l15 66h323l25 -66q-44 -47 -119 -121t-149.5 -144t-135.5 -125l139 -309q21 -44 38 -75t31 -46.5t28.5 -24.5t39.5 -15l-15 -66h-328l-141 376q-110 -97 -142 -146.5t-32 -96.5q0 -27 12.5 -45t46.5 -22l-15 -66
h-323l-26 66q64 68 204.5 202.5t230.5 213.5l-104 236q-32 72 -51 108.5t-35 54.5t-31.5 27.5t-46.5 17.5l15 66h332z" />
    <glyph glyph-name="y" unicode="y" horiz-adv-x="1024" 
d="M282 0l-90 742q-9 73 -20.5 109.5t-31 53.5t-60.5 21l15 66h352l69 -747q151 216 222.5 361t71.5 241q0 38 -18 57.5t-63 21.5l14 66h282l35 -66q-42 -113 -128 -267t-214.5 -342t-271.5 -374q-120 -156 -201 -235q-61 -60 -116 -92q-44 -27 -93 -40t-113 -13
q-30 0 -69.5 6.5t-70.5 16.5l49 225h106q1 -42 17 -62t47 -20q42 0 75.5 14t68.5 43t83 82.5t110 131.5h-57z" />
    <glyph glyph-name="z" unicode="z" horiz-adv-x="967" 
d="M541 357q-49 -62 -105.5 -129t-99.5 -113l7 -9h189q42 0 71 11.5t54.5 37.5t48 65.5t45.5 91.5h106l-67 -312h-770l-35 66l443 558q110 139 214 253l-7 9h-188q-38 0 -69 -15t-61.5 -51.5t-76.5 -121.5h-107l63 294h762l35 -66z" />
    <glyph glyph-name="braceleft" unicode="{" horiz-adv-x="759" 
d="M490 -432q-116 0 -200 33.5t-127.5 95t-43.5 141.5q0 38 6.5 88.5t14.5 87.5l46 208q15 68 15 116q0 60 -33.5 87.5t-96.5 29.5l23 112q52 1 87.5 14t58.5 39.5t41 72t36 128.5l64 291q25 114 90 184.5t168.5 102.5t254.5 32h26l-24 -109q-73 0 -114.5 -16.5t-67 -48
t-42.5 -81.5t-38 -145l-47 -206q-18 -79 -43.5 -130t-59 -86t-77 -59.5t-93.5 -43.5l-4 -18q72 -41 103 -95t31 -137q0 -67 -21 -164l-31 -149q-9 -44 -13.5 -78t-4.5 -53q0 -55 15 -81.5t51.5 -39t102.5 -12.5l-24 -111h-29z" />
    <glyph glyph-name="bar" unicode="|" horiz-adv-x="633" 
d="M210 -430h-188l410 1861h188z" />
    <glyph glyph-name="braceright" unicode="}" horiz-adv-x="759" 
d="M279 1431q116 0 200 -33.5t127.5 -95t43.5 -141.5q0 -37 -5.5 -83t-15.5 -93l-46 -208q-15 -68 -15 -116q0 -60 33.5 -87.5t96.5 -29.5l-23 -112q-66 -2 -105 -21.5t-65.5 -67.5t-52.5 -165l-64 -291q-25 -114 -90 -184.5t-168.5 -102.5t-254.5 -32h-26l24 109
q62 0 99 11t60 30.5t40 49t29.5 68.5t33.5 132l47 206q18 79 43.5 130t59 86t77 59.5t93.5 43.5l4 18q-70 39 -102 93.5t-32 138.5q0 67 21 164l31 149q9 46 13.5 79.5t4.5 51.5q0 53 -14.5 80t-51 40t-103.5 13l24 111h29z" />
    <glyph glyph-name="asciitilde" unicode="~" horiz-adv-x="1173" 
d="M73 520q38 45 83 95.5t83.5 84.5t72 54t65 28.5t65.5 8.5q38 0 69.5 -10t59.5 -30t77 -69q45 -46 68.5 -64.5t45 -27.5t51.5 -9q27 0 52.5 12t56 41.5t99.5 119.5l127 -105q-91 -111 -147.5 -164t-109.5 -80t-110 -27q-41 0 -72 10t-62.5 32.5t-76.5 69.5q-40 42 -64 61
t-46 28t-47 9q-28 0 -51 -9t-44.5 -28t-44.5 -46t-73 -90z" />
    <glyph glyph-name="exclamdown" unicode="&#xa1;" horiz-adv-x="672" 
d="M250 690l68 302h255l-67 -302h-256zM-19 -373l284 919h170l-126 -919h-328z" />
    <glyph glyph-name="cent" unicode="&#xa2;" horiz-adv-x="947" 
d="M364 -156l37 167q-99 4 -169 49t-106 125t-36 187q0 148 63 304t182 245.5t289 108.5l37 169h110l-36 -165q151 -8 249 -39l-53 -227h-162q2 21 2 43q0 38 -5.5 58.5t-18.5 35t-36 20.5l-168 -766q105 13 229 133l81 -87q-73 -74 -156.5 -122.5t-184.5 -64.5l-38 -174
h-110zM436 170l165 750q-83 -44 -137.5 -129.5t-89.5 -218t-35 -226.5q0 -74 24.5 -117t72.5 -59z" />
    <glyph glyph-name="sterling" unicode="&#xa3;" horiz-adv-x="1094" 
d="M983 389l-136 -389h-888l14 66q59 54 94 94.5t62.5 87t50 108t39.5 134.5l39 169h-145l32 151h142l37 171q25 117 79 196q71 105 190 154.5t288 49.5q82 0 157 -9.5t123 -24.5l-51 -224h-125q-7 73 -42.5 109.5t-96.5 36.5q-90 0 -146.5 -78t-88.5 -232l-33 -149h350
l-32 -151h-348l-7 -32q-11 -48 -27 -92t-43 -90.5t-65.5 -94t-89.5 -97.5l-2 -8h294q65 0 99 5t53.5 17t39.5 41.5t42 80.5h141z" />
    <glyph glyph-name="currency" unicode="&#xa4;" horiz-adv-x="1203" 
d="M990 221l-127 128q-99 -69 -218 -69q-117 0 -216 68l-127 -128l-109 109l127 128q-69 97 -69 217q0 119 68 216l-127 128l109 109l127 -129q101 69 217 69q120 0 217 -67l127 128l109 -109l-127 -128q69 -97 69 -217q0 -119 -68 -216l127 -128zM645 886q-58 0 -107 -28.5
t-77.5 -77.5t-28.5 -106q0 -58 29 -107t78 -77t106 -28q58 0 106.5 28t77.5 77t29 107q0 57 -28.5 106t-77.5 77.5t-107 28.5z" />
    <glyph glyph-name="yen" unicode="&#xa5;" horiz-adv-x="1251" 
d="M765 510h373l-27 -126h-374l-25 -115q-5 -23 -7 -36.5t-4 -34t-2 -45.5q0 -46 23.5 -65t73.5 -22l-14 -66h-523l14 66q44 6 70 26t43.5 59.5t35.5 118.5l25 114h-361l27 126h361l7 31l-33 139h-298l27 126h242l-68 291q-15 63 -29.5 103t-29 60t-28.5 28t-40 11l15 66
h485l-15 -66q-78 -9 -78 -92q0 -53 20 -142l79 -366l229 332q55 79 72 120.5t17 83.5q0 28 -16 43.5t-56 20.5l15 66h406l-15 -66q-20 -5 -36 -14t-37.5 -29t-61 -69.5t-90.5 -121.5l-188 -259h233l-27 -126h-297l-108 -149z" />
    <glyph glyph-name="brokenbar" unicode="&#xa6;" horiz-adv-x="633" 
d="M447 647h-188l173 784h188zM210 -430h-188l173 784h188z" />
    <glyph glyph-name="section" unicode="&#xa7;" horiz-adv-x="1036" 
d="M909 1142q-5 91 -46.5 136.5t-111.5 45.5q-55 0 -96.5 -24t-62.5 -61.5t-21 -78.5t16.5 -75.5t57 -74.5t116.5 -93q80 -57 124.5 -103.5t66 -98t21.5 -116.5q0 -80 -35 -144.5t-95.5 -116.5t-161.5 -111q37 -42 55 -86.5t18 -94.5q0 -106 -54.5 -188.5t-152 -127.5
t-222.5 -45q-91 0 -185.5 19t-178.5 55l51 230h129q2 -94 42.5 -143t121.5 -49q61 0 106 25.5t67 67t22 91.5q0 44 -18.5 79.5t-57 72t-110.5 87.5q-113 80 -164 156t-51 167q0 77 33.5 140t95 116.5t163.5 112.5q-36 42 -53.5 90.5t-17.5 101.5q0 101 57 177t154 115.5
t214 39.5q86 0 165.5 -15t174.5 -53l-48 -226h-128zM483 822q-80 -53 -111 -102t-31 -116q0 -50 36 -97t121 -112q34 -27 54 -45l36 -32q76 48 109.5 97.5t33.5 116.5q0 53 -35 98.5t-114 107.5q-43 34 -99 84z" />
    <glyph glyph-name="dieresis" unicode="&#xa8;" horiz-adv-x="554" 
d="M400 1379l-48 -220h-202l48 220h202zM752 1379l-48 -220h-203l48 220h203z" />
    <glyph glyph-name="copyright" unicode="&#xa9;" horiz-adv-x="1742" 
d="M1664 624q0 -161 -56 -300.5t-160.5 -243.5t-245 -160t-299.5 -56q-157 0 -295.5 54t-244 156.5t-163.5 244.5t-58 305t58 305t164 244.5t244 156.5t295 54q159 0 299.5 -56t245 -160t160.5 -243.5t56 -300.5zM1514 624q0 182 -77.5 327.5t-218.5 226.5t-316 81t-315 -80
t-217.5 -226.5t-77.5 -328.5q0 -183 77.5 -329.5t217.5 -226.5t315 -80q176 0 317 81t218 227t77 328zM1215 1029v-203h-117q-13 74 -49.5 114t-100.5 40q-108 0 -169.5 -98t-61.5 -273q0 -161 54 -250.5t151 -89.5q73 0 117.5 40.5t58.5 119.5h118v-209q-74 -23 -150 -35
t-158 -12q-92 0 -169 22.5t-132 74t-85.5 136.5t-30.5 210q0 140 53 244.5t153 160t237 55.5q153 0 281 -47z" />
    <glyph glyph-name="ordfeminine" unicode="&#xaa;" horiz-adv-x="850" 
d="M599 810l-7 2q-60 -50 -121 -74.5t-127 -24.5q-77 0 -121.5 38t-44.5 103q0 81 54.5 133.5t155.5 79.5t253 36l6 35q2 10 4 30t2 33q0 46 -23.5 69t-69.5 23q-50 0 -87.5 -32t-54.5 -88h-143l26 123q90 38 134.5 52.5t89.5 23t96 8.5q115 0 179 -41.5t64 -117.5
q0 -47 -17 -127l-43 -210q-3 -14 -4 -24.5t-1 -19.5q0 -26 14.5 -37.5t46.5 -15.5l-14 -63h-266zM626 1024q-115 -3 -181.5 -39t-66.5 -97q0 -33 19 -49t54 -16q32 0 65 12.5t57.5 35.5t29.5 49zM777 473h-678l27 126h678z" />
    <glyph glyph-name="guillemotleft" unicode="&#xab;" horiz-adv-x="1049" 
d="M454 112l-101 -48l-263 408l22 105l425 388l87 -84l-303 -379zM886 112l-101 -48l-263 408l22 105l425 388l87 -84l-303 -379z" />
    <glyph glyph-name="logicalnot" unicode="&#xac;" horiz-adv-x="1173" 
d="M777 269l89 407h-707l42 196h918l-131 -603h-211z" />
    <glyph glyph-name="registered" unicode="&#xae;" horiz-adv-x="1742" 
d="M1664 622q0 -161 -56 -300.5t-160.5 -243.5t-245 -160t-299.5 -56q-157 0 -295.5 54t-244 156.5t-163.5 244.5t-58 305t58 305t164 244.5t244 156.5t295 54q159 0 299.5 -56t245 -160t160.5 -243.5t56 -300.5zM1514 622q0 182 -77.5 327.5t-218.5 226.5t-316 81t-315 -80
t-217.5 -226.5t-77.5 -328.5q0 -183 77.5 -329.5t217.5 -226.5t315 -80q176 0 317 81t218 227t77 328zM887 187h-379v61q38 9 52 20.5t19 30.5t5 69v515q0 49 -5 68t-18.5 30.5t-52.5 21.5v61h412q182 0 264 -57t82 -171q0 -80 -51 -140.5t-151 -96.5v-13q56 -21 92 -60.5
t63 -104.5l31 -73q16 -38 29 -56.5t30 -29t45 -14.5v-61h-258q-22 35 -39.5 68.5t-36.5 79.5l-50 120q-9 22 -22 44t-28.5 35t-34.5 17t-51 4h-31v-187q0 -43 6 -64.5t22.5 -34t55.5 -21.5v-61zM803 966v-316h55q57 0 94 13.5t58.5 36t29.5 53t8 64.5q0 74 -40 112.5
t-129 38.5q-44 0 -76 -2z" />
    <glyph glyph-name="macron" unicode="&#xaf;" horiz-adv-x="554" 
d="M701 1192h-535l34 154h535z" />
    <glyph glyph-name="macron" unicode="&#x2c9;" horiz-adv-x="554" 
d="M701 1192h-535l34 154h535z" />
    <glyph glyph-name="degree" unicode="&#xb0;" horiz-adv-x="774" 
d="M511 763q-92 0 -161 40t-106.5 110.5t-37.5 160.5q0 89 39.5 159t111.5 109t164 39q91 0 161.5 -39t109 -109.5t38.5 -159.5q0 -90 -41.5 -161t-114.5 -110t-163 -39zM517 1252q-50 0 -89.5 -22t-61.5 -63.5t-22 -93.5q0 -53 22 -94.5t61.5 -64t89.5 -22.5q52 0 92 23
t61.5 64t21.5 94q0 52 -21.5 92.5t-61.5 63.5t-92 23z" />
    <glyph glyph-name="plusminus" unicode="&#xb1;" horiz-adv-x="1173" 
d="M726 632l-73 -332h-210l73 332h-358l44 196h357l82 372h210l-82 -372h357l-44 -196h-356zM23 0l43 196h918l-43 -196h-918z" />
    <glyph glyph-name="uni00B2" unicode="&#xb2;" 
d="M436 999h212q36 0 55 4.5t32 16t27 40.5h97l-57 -231h-628l12 57q38 61 104 130.5t167 152.5q64 54 101 87.5t58.5 56t40 46.5t31 48.5t18 47.5t5.5 48q0 40 -26.5 63.5t-68.5 23.5q-61 0 -99 -35t-63 -100h-139l39 166q125 35 192.5 45.5t132.5 10.5q86 0 145 -23
t87.5 -61t28.5 -83q0 -43 -15.5 -80.5t-52.5 -78t-114 -99.5q-29 -23 -139 -104q-28 -21 -85.5 -66.5t-97.5 -82.5z" />
    <glyph glyph-name="uni00B3" unicode="&#xb3;" 
d="M324 1457l40 165q98 30 175 42.5t155 12.5q117 0 183.5 -43.5t66.5 -125.5q0 -164 -238 -237v-10q74 -18 119 -66.5t45 -108.5q0 -90 -48 -149t-129.5 -90t-215.5 -31q-72 0 -152 15t-133 36l36 165h121q6 -61 36.5 -95t90.5 -34q47 0 79.5 17.5t53 45t30 61.5t9.5 65
q0 59 -40 87t-120 28h-75l19 89q60 3 109 15.5t84 32.5t58 46.5t34 55t11 62.5q0 42 -25.5 62t-67.5 20q-65 0 -106.5 -34.5t-64.5 -98.5h-140z" />
    <glyph glyph-name="acute" unicode="&#xb4;" horiz-adv-x="554" 
d="M730 1475l-14 -66l-410 -322l-71 72l267 316h228z" />
    <glyph glyph-name="mu" unicode="&#xb5;" horiz-adv-x="1217" 
d="M274 992h285l-140 -608q-9 -37 -15 -70.5t-8 -52t-2 -31.5q0 -50 18.5 -72.5t57.5 -22.5q44 0 100 45t101.5 115.5t59.5 135.5l122 561h289l-162 -715q-6 -27 -9.5 -52.5t-3.5 -34.5q0 -31 12 -45.5t39 -14.5q23 0 52 21.5t71 69.5l71 -71q-55 -56 -91.5 -84.5t-74.5 -47
t-72 -26.5t-71 -8q-61 0 -103 22t-63.5 60.5t-21.5 82.5q0 9 1.5 24t4.5 28l-14 2q-55 -69 -93 -105.5t-76.5 -59.5t-71 -32.5t-68.5 -9.5q-82 0 -139 57q-17 -115 -17 -232q0 -63 4 -99l-13 -62l-114 -61h-154z" />
    <glyph glyph-name="paragraph" unicode="&#xb6;" horiz-adv-x="1165" 
d="M1087 1237l-366 -1667h-142l366 1667h-167l-366 -1667h-142l246 1117q-105 12 -179 55.5t-110.5 111.5t-36.5 153q0 89 30 156t89 113t138 67.5t204 21.5h634l-28 -128h-170z" />
    <glyph glyph-name="periodcentered" unicode="&#xb7;" horiz-adv-x="551" 
d="M494 838l-69 -318h-281l69 318h281z" />
    <glyph glyph-name="cedilla" unicode="&#xb8;" horiz-adv-x="554" 
d="M254 -66q5 -29 5 -69q0 -135 -100 -209.5t-293 -85.5v95q86 10 136.5 57t53.5 133l10 43l299 179l40 -49z" />
    <glyph glyph-name="uni00B9" unicode="&#xb9;" 
d="M707 1038q-9 -41 -9 -69q0 -22 13 -35t49.5 -20.5t105.5 -7.5l-15 -77h-588l16 77q60 1 97.5 6.5t59.5 18.5t32.5 35t18.5 56l84 387q6 28 6 46q0 9 -6 15.5t-20 6.5q-19 0 -44 -9.5t-126 -59.5l-40 82l403 187h105q-14 -51 -41 -175z" />
    <glyph glyph-name="ordmasculine" unicode="&#xba;" horiz-adv-x="869" 
d="M492 713q-81 0 -144.5 28t-99 81.5t-35.5 127.5q0 59 6 94q12 67 40 124q32 66 84.5 114t124.5 73t159 25q91 0 155.5 -33t94.5 -87t30 -118q0 -48 -4 -76q-5 -39 -20 -86q-22 -66 -58 -115t-83.5 -82.5t-110 -51.5t-139.5 -18zM418 910q0 -110 88 -110q18 0 34.5 5.5
t33 18t33 34t31 52.5t26 66t18.5 61.5t12.5 69t5.5 74.5q0 54 -22.5 83.5t-63.5 29.5q-40 0 -72 -24q-38 -30 -66 -92.5t-47 -159.5q-11 -54 -11 -108zM770 473h-668l27 126h668z" />
    <glyph glyph-name="guillemotright" unicode="&#xbb;" horiz-adv-x="1049" 
d="M608 906l101 48l263 -408l-22 -105l-425 -388l-87 84l303 379zM176 906l101 48l263 -408l-22 -105l-425 -388l-87 84l303 379z" />
    <glyph glyph-name="onequarter" unicode="&#xbc;" horiz-adv-x="1921" 
d="M646 743q-9 -41 -9 -69q0 -22 13 -35t49.5 -20.5t105.5 -7.5l-15 -77h-588l16 77q60 1 97.5 6.5t59.5 18.5t32.5 35t18.5 56l84 387q6 28 6 46q0 9 -6 15.5t-20 6.5q-19 0 -44 -9.5t-126 -59.5l-40 82l403 187h105q-14 -51 -41 -175zM1701 1365l-1147 -1461h-207
l1148 1461h206zM1301 -35q34 6 54.5 29t31.5 73l16 72h-362l18 83l508 524h178l-110 -512h9q33 0 46.5 3.5t24.5 14.5t26 39h80l-40 -152h-168l-13 -64v1q-7 -36 -7 -63q0 -11 4.5 -21.5t16.5 -16.5t42 -10l-13 -61h-355zM1209 234h215l26 119q6 29 19.5 80t27.5 98h-8z" />
    <glyph glyph-name="onehalf" unicode="&#xbd;" horiz-adv-x="1991" 
d="M642 739q-9 -41 -9 -69q0 -22 13 -35t49.5 -20.5t105.5 -7.5l-15 -77h-588l16 77q60 1 97.5 6.5t59.5 18.5t32.5 35t18.5 56l84 387q6 28 6 46q0 9 -6 15.5t-20 6.5q-19 0 -44 -9.5t-126 -59.5l-40 82l403 187h105q-14 -51 -41 -175zM1709 1365l-1147 -1461h-207
l1148 1461h206zM1351 74h212q36 0 55 4.5t32 16t27 40.5h97l-57 -231h-628l12 57q38 61 104 130.5t167 152.5q64 54 101 87.5t58.5 56t40 46.5t31 48.5t18 47.5t5.5 48q0 40 -26.5 63.5t-68.5 23.5q-61 0 -99 -35t-63 -100h-139l39 166q125 35 192.5 45.5t132.5 10.5
q86 0 145 -23t87.5 -61t28.5 -83q0 -43 -15.5 -80.5t-52.5 -78t-114 -99.5q-29 -23 -139 -104q-28 -21 -85.5 -66.5t-97.5 -82.5z" />
    <glyph glyph-name="threequarters" unicode="&#xbe;" horiz-adv-x="1921" 
d="M259 1158l40 165q98 30 175 42.5t155 12.5q117 0 183.5 -43.5t66.5 -125.5q0 -164 -238 -237v-10q74 -18 119 -66.5t45 -108.5q0 -90 -48 -149t-129.5 -90t-215.5 -31q-72 0 -152 15t-133 36l36 165h121q6 -61 36.5 -95t90.5 -34q47 0 79.5 17.5t53 45t30 61.5t9.5 65
q0 59 -40 87t-120 28h-75l19 89q60 3 109 15.5t84 32.5t58 46.5t34 55t11 62.5q0 42 -25.5 62t-67.5 20q-65 0 -106.5 -34.5t-64.5 -98.5h-140zM1711 1365l-1147 -1461h-207l1148 1461h206zM1301 -35q34 6 54.5 29t31.5 73l16 72h-362l18 83l508 524h178l-110 -512h9
q33 0 46.5 3.5t24.5 14.5t26 39h80l-40 -152h-168l-13 -64v1q-7 -36 -7 -63q0 -11 4.5 -21.5t16.5 -16.5t42 -10l-13 -61h-355zM1209 234h215l26 119q6 29 19.5 80t27.5 98h-8z" />
    <glyph glyph-name="questiondown" unicode="&#xbf;" horiz-adv-x="898" 
d="M409 690l68 302h255l-67 -302h-256zM599 546l-8 -35l-10 -29q-8 -22 -20 -45.5t-29.5 -48.5t-47 -60.5t-66.5 -75.5q-77 -83 -120 -143.5t-67.5 -124.5t-24.5 -133q0 -66 25.5 -101t78.5 -35q59 0 106.5 46.5t75.5 135.5h178l-42 -193q-98 -40 -155.5 -57.5t-113.5 -26.5
t-115 -9q-106 0 -176.5 31t-102.5 82t-32 114q0 55 15.5 103.5t49 97t87 101.5t153.5 143q62 56 97.5 97.5t54 76.5t28.5 80l2 9h179z" />
    <glyph glyph-name="Agrave" unicode="&#xc0;" horiz-adv-x="1258" 
d="M750 423h-391l-14 -25q-23 -40 -39.5 -72.5t-29.5 -66t-18.5 -60t-5.5 -50.5q0 -72 85 -83l-15 -66h-422l15 66q35 8 61.5 27t50.5 51.5t68 111.5l621 1116h288l43 -1069q2 -61 7 -96.5t13 -60.5t19.5 -42t29.5 -26t40 -12l-15 -66h-517l15 66q44 3 69.5 22.5t35.5 53
t10 93.5q0 43 -2 90zM421 540h326l-4 240q-2 128 -2 212q0 64 1 131h-12zM877 1798l187 -266l-69 -64l-351 264l15 66h218z" />
    <glyph glyph-name="Aacute" unicode="&#xc1;" horiz-adv-x="1258" 
d="M750 423h-391l-14 -25q-23 -40 -39.5 -72.5t-29.5 -66t-18.5 -60t-5.5 -50.5q0 -72 85 -83l-15 -66h-422l15 66q35 8 61.5 27t50.5 51.5t68 111.5l621 1116h288l43 -1069q2 -61 7 -96.5t13 -60.5t19.5 -42t29.5 -26t40 -12l-15 -66h-517l15 66q44 3 69.5 22.5t35.5 53
t10 93.5q0 43 -2 90zM421 540h326l-4 240q-2 128 -2 212q0 64 1 131h-12zM1251 1798l-15 -66l-454 -264l-59 77l269 253h259z" />
    <glyph glyph-name="Acircumflex" unicode="&#xc2;" horiz-adv-x="1258" 
d="M750 423h-391l-14 -25q-23 -40 -39.5 -72.5t-29.5 -66t-18.5 -60t-5.5 -50.5q0 -72 85 -83l-15 -66h-422l15 66q35 8 61.5 27t50.5 51.5t68 111.5l621 1116h288l43 -1069q2 -61 7 -96.5t13 -60.5t19.5 -42t29.5 -26t40 -12l-15 -66h-517l15 66q44 3 69.5 22.5t35.5 53
t10 93.5q0 43 -2 90zM421 540h326l-4 240q-2 128 -2 212q0 64 1 131h-12zM1025 1785l153 -262l-72 -56l-183 167h-10l-271 -167l-57 70l275 248h165z" />
    <glyph glyph-name="Atilde" unicode="&#xc3;" horiz-adv-x="1258" 
d="M750 423h-391l-14 -25q-23 -40 -39.5 -72.5t-29.5 -66t-18.5 -60t-5.5 -50.5q0 -72 85 -83l-15 -66h-422l15 66q35 8 61.5 27t50.5 51.5t68 111.5l621 1116h288l43 -1069q2 -61 7 -96.5t13 -60.5t19.5 -42t29.5 -26t40 -12l-15 -66h-517l15 66q44 3 69.5 22.5t35.5 53
t10 93.5q0 43 -2 90zM421 540h326l-4 240q-2 128 -2 212q0 64 1 131h-12zM1176 1749l82 -63q-55 -83 -97 -128.5t-77 -64t-77 -18.5q-35 0 -61 11.5t-72 48.5l-29 23q-13 10 -24.5 16t-24 9t-28.5 3q-27 0 -47 -9t-43 -33t-54 -71l-82 63q61 89 98.5 130.5t73 61t80.5 19.5
q23 0 41.5 -5t36.5 -15.5t49 -35.5q33 -27 47.5 -36.5t28.5 -14t38 -4.5q37 0 68.5 25t72.5 88z" />
    <glyph glyph-name="Adieresis" unicode="&#xc4;" horiz-adv-x="1258" 
d="M750 423h-391l-14 -25q-23 -40 -39.5 -72.5t-29.5 -66t-18.5 -60t-5.5 -50.5q0 -72 85 -83l-15 -66h-422l15 66q35 8 61.5 27t50.5 51.5t68 111.5l621 1116h288l43 -1069q2 -61 7 -96.5t13 -60.5t19.5 -42t29.5 -26t40 -12l-15 -66h-517l15 66q44 3 69.5 22.5t35.5 53
t10 93.5q0 43 -2 90zM421 540h326l-4 240q-2 128 -2 212q0 64 1 131h-12zM839 1721l-48 -220h-203l48 220h203zM1210 1721l-48 -220h-203l48 220h203z" />
    <glyph glyph-name="Aring" unicode="&#xc5;" horiz-adv-x="1258" 
d="M750 423h-391l-14 -25q-23 -40 -39.5 -72.5t-29.5 -66t-18.5 -60t-5.5 -50.5q0 -72 85 -83l-15 -66h-422l15 66q35 8 61.5 27t50.5 51.5t68 111.5l621 1116h288l43 -1069q2 -61 7 -96.5t13 -60.5t19.5 -42t29.5 -26t40 -12l-15 -66h-517l15 66q44 3 69.5 22.5t35.5 53
t10 93.5q0 43 -2 90zM421 540h326l-4 240q-2 128 -2 212q0 64 1 131h-12zM861 1415q-91 0 -139.5 40.5t-48.5 114.5q0 52 19.5 104.5t55 88.5t84.5 54.5t107 18.5q98 0 150 -42t52 -114q0 -73 -35 -136t-98.5 -96t-146.5 -33zM789 1581q0 -41 21 -65t65 -24q47 0 82.5 28.5
t51.5 71t16 79.5q0 43 -22 65.5t-63 22.5q-42 0 -76.5 -24t-54.5 -66.5t-20 -87.5z" />
    <glyph glyph-name="AE" unicode="&#xc6;" horiz-adv-x="1728" 
d="M1759 1043h-128q-5 95 -18 133t-40 55t-76 17h-284l-73 -480h139q40 0 67.5 13t51 43.5t46.5 84.5h110l-96 -406h-103q0 58 -7 89t-26 45t-65 14h-135l-83 -534h183q44 0 68.5 6t45 19t47.5 41.5t53.5 72t54.5 104.5h136l-92 -360h-903l14 66q34 8 54 22t32 33.5
t21.5 52.5t19.5 96l23 153h-377l-88 -130q-16 -23 -27 -42t-18 -36.5t-9.5 -31t-2.5 -27.5q0 -40 22 -61.5t62 -28.5l-15 -66h-448l15 66q26 4 56 26.5t66 63.5t78 101l788 1108h932zM814 540l41 270q13 87 44 247l13 71h-14l-401 -588h317z" />
    <glyph glyph-name="Ccedilla" unicode="&#xc7;" horiz-adv-x="1130" 
d="M589 -66q5 -29 5 -69q0 -135 -100 -209.5t-293 -85.5v95q86 10 136.5 57t53.5 133l10 43l144 87q-207 5 -315.5 121.5t-108.5 329.5q0 66 12 153q20 134 62 255q48 138 121 240t164 167.5t197.5 97.5t227.5 32q92 0 174.5 -12.5t161.5 -36.5l-64 -292h-131q-3 89 -18 134
t-47 67.5t-87 22.5q-44 0 -91 -19.5t-93 -61.5q-53 -49 -100.5 -125.5t-85.5 -176.5q-30 -81 -55.5 -184t-36 -189t-10.5 -153q0 -84 15.5 -139t54 -85t106.5 -30q75 0 128.5 25.5t92 73.5t75.5 132h131l-64 -295q-140 -40 -286 -49z" />
    <glyph glyph-name="Egrave" unicode="&#xc8;" horiz-adv-x="1150" 
d="M1252 1365l-71 -322h-128q-5 95 -18 133t-40 55t-76 17h-251l-106 -480h139q40 0 67.5 13t51 43.5t46.5 84.5h110l-96 -406h-103q0 58 -7 89t-26 45t-65 14h-142l-118 -534h225q44 0 68.5 6t45 19t47.5 41.5t53.5 72t54.5 104.5h136l-92 -360h-951l14 66q42 12 64.5 33
t38.5 59.5t32 111.5l182 825q13 59 13 117q0 42 -19.5 61.5t-63.5 25.5l14 66h971zM790 1798l187 -266l-69 -64l-351 264l15 66h218z" />
    <glyph glyph-name="Eacute" unicode="&#xc9;" horiz-adv-x="1150" 
d="M1252 1365l-71 -322h-128q-5 95 -18 133t-40 55t-76 17h-251l-106 -480h139q40 0 67.5 13t51 43.5t46.5 84.5h110l-96 -406h-103q0 58 -7 89t-26 45t-65 14h-142l-118 -534h225q44 0 68.5 6t45 19t47.5 41.5t53.5 72t54.5 104.5h136l-92 -360h-951l14 66q42 12 64.5 33
t38.5 59.5t32 111.5l182 825q13 59 13 117q0 42 -19.5 61.5t-63.5 25.5l14 66h971zM1174 1798l-15 -66l-454 -264l-59 77l269 253h259z" />
    <glyph glyph-name="Ecircumflex" unicode="&#xca;" horiz-adv-x="1150" 
d="M1252 1365l-71 -322h-128q-5 95 -18 133t-40 55t-76 17h-251l-106 -480h139q40 0 67.5 13t51 43.5t46.5 84.5h110l-96 -406h-103q0 58 -7 89t-26 45t-65 14h-142l-118 -534h225q44 0 68.5 6t45 19t47.5 41.5t53.5 72t54.5 104.5h136l-92 -360h-951l14 66q42 12 64.5 33
t38.5 59.5t32 111.5l182 825q13 59 13 117q0 42 -19.5 61.5t-63.5 25.5l14 66h971zM960 1785l153 -262l-72 -56l-183 167h-10l-271 -167l-57 70l275 248h165z" />
    <glyph glyph-name="Edieresis" unicode="&#xcb;" horiz-adv-x="1150" 
d="M1252 1365l-71 -322h-128q-5 95 -18 133t-40 55t-76 17h-251l-106 -480h139q40 0 67.5 13t51 43.5t46.5 84.5h110l-96 -406h-103q0 58 -7 89t-26 45t-65 14h-142l-118 -534h225q44 0 68.5 6t45 19t47.5 41.5t53.5 72t54.5 104.5h136l-92 -360h-951l14 66q42 12 64.5 33
t38.5 59.5t32 111.5l182 825q13 59 13 117q0 42 -19.5 61.5t-63.5 25.5l14 66h971zM774 1721l-48 -220h-203l48 220h203zM1145 1721l-48 -220h-203l48 220h203z" />
    <glyph glyph-name="Igrave" unicode="&#xcc;" horiz-adv-x="699" 
d="M509 0h-503l14 66q42 12 64.5 33t38.5 59.5t32 111.5l182 825q13 59 13 117q0 42 -19.5 61.5t-63.5 25.5l14 66h503l-14 -66q-42 -12 -64.5 -33t-38.5 -59.5t-32 -111.5l-182 -825q-6 -26 -8 -41t-3.5 -32.5t-1.5 -43.5q0 -42 19.5 -61.5t63.5 -25.5zM540 1798l187 -266
l-69 -64l-351 264l15 66h218z" />
    <glyph glyph-name="Iacute" unicode="&#xcd;" horiz-adv-x="699" 
d="M509 0h-503l14 66q42 12 64.5 33t38.5 59.5t32 111.5l182 825q13 59 13 117q0 42 -19.5 61.5t-63.5 25.5l14 66h503l-14 -66q-42 -12 -64.5 -33t-38.5 -59.5t-32 -111.5l-182 -825q-6 -26 -8 -41t-3.5 -32.5t-1.5 -43.5q0 -42 19.5 -61.5t63.5 -25.5zM938 1798l-15 -66
l-454 -264l-59 77l269 253h259z" />
    <glyph glyph-name="Icircumflex" unicode="&#xce;" horiz-adv-x="699" 
d="M509 0h-503l14 66q42 12 64.5 33t38.5 59.5t32 111.5l182 825q13 59 13 117q0 42 -19.5 61.5t-63.5 25.5l14 66h503l-14 -66q-42 -12 -64.5 -33t-38.5 -59.5t-32 -111.5l-182 -825q-6 -26 -8 -41t-3.5 -32.5t-1.5 -43.5q0 -42 19.5 -61.5t63.5 -25.5zM725 1785l153 -262
l-72 -56l-183 167h-10l-271 -167l-57 70l275 248h165z" />
    <glyph glyph-name="Idieresis" unicode="&#xcf;" horiz-adv-x="699" 
d="M509 0h-503l14 66q42 12 64.5 33t38.5 59.5t32 111.5l182 825q13 59 13 117q0 42 -19.5 61.5t-63.5 25.5l14 66h503l-14 -66q-42 -12 -64.5 -33t-38.5 -59.5t-32 -111.5l-182 -825q-6 -26 -8 -41t-3.5 -32.5t-1.5 -43.5q0 -42 19.5 -61.5t63.5 -25.5zM538 1721l-48 -220
h-203l48 220h203zM909 1721l-48 -220h-203l48 220h203z" />
    <glyph glyph-name="Eth" unicode="&#xd0;" horiz-adv-x="1398" 
d="M14 0l14 66q42 12 64.5 33t38.5 59.5t32 111.5l84 382h-165l27 126h166l70 317q13 59 13 117q0 42 -19.5 61.5t-63.5 25.5l14 66h405q143 0 233 -13t158 -42q44 -20 95 -53t92.5 -90t63.5 -136t22 -176q0 -156 -40.5 -294t-115.5 -246q-69 -101 -177 -179
q-94 -69 -208 -101q-125 -35 -310 -35h-493zM572 778h246l-27 -126h-247l-116 -530q46 -4 74 -4q129 0 222.5 51t166 155.5t114 255t41.5 302.5q0 103 -23 173t-63.5 113t-94 61.5t-113.5 18.5q-50 0 -77 -2z" />
    <glyph glyph-name="Ntilde" unicode="&#xd1;" horiz-adv-x="1355" 
d="M280 1365h380l193 -566q79 -231 125 -408h13q29 173 76 383l70 321q13 60 13 117q0 42 -19.5 61.5t-63.5 25.5l14 66h368l-14 -66q-42 -12 -64.5 -33t-38.5 -59.5t-32 -111.5l-241 -1095h-228l-240 699q-28 82 -50 153.5t-53 181.5l-15 1q-8 -67 -30.5 -184.5
t-53.5 -254.5l-72 -326q-6 -26 -8 -41t-3.5 -32.5t-1.5 -43.5q0 -42 19.5 -61.5t63.5 -25.5l-14 -66h-368l14 66q42 12 64.5 33t38.5 59.5t32 111.5l182 825q13 59 13 117q0 42 -19.5 61.5t-63.5 25.5zM1218 1749l82 -63q-55 -83 -97 -128.5t-77 -64t-77 -18.5
q-35 0 -61 11.5t-72 48.5l-29 23q-13 10 -24.5 16t-24 9t-28.5 3q-27 0 -47 -9t-43 -33t-54 -71l-82 63q61 89 98.5 130.5t73 61t80.5 19.5q23 0 41.5 -5t36.5 -15.5t49 -35.5q33 -27 47.5 -36.5t28.5 -14t38 -4.5q37 0 68.5 25t72.5 88z" />
    <glyph glyph-name="Ograve" unicode="&#xd2;" horiz-adv-x="1383" 
d="M581 -16q-228 0 -344 119.5t-116 351.5q0 79 16 181t54 215.5t105 214.5t157.5 172.5t201.5 107t233 35.5q228 0 345.5 -119t117.5 -346q0 -96 -20.5 -213.5t-67 -236t-114.5 -210.5t-157 -153.5t-191.5 -90t-219.5 -28.5zM422 362q0 -138 40 -199.5t130 -61.5
q48 0 92 22q55 27 105 83q62 69 114 176t86 234q28 103 49 240q12 76 12 150q0 134 -40 196t-132 62q-87 0 -169 -77.5t-148.5 -218.5t-102.5 -316.5t-36 -289.5zM907 1798l187 -266l-69 -64l-351 264l15 66h218z" />
    <glyph glyph-name="Oacute" unicode="&#xd3;" horiz-adv-x="1383" 
d="M581 -16q-228 0 -344 119.5t-116 351.5q0 79 16 181t54 215.5t105 214.5t157.5 172.5t201.5 107t233 35.5q228 0 345.5 -119t117.5 -346q0 -96 -20.5 -213.5t-67 -236t-114.5 -210.5t-157 -153.5t-191.5 -90t-219.5 -28.5zM422 362q0 -138 40 -199.5t130 -61.5
q48 0 92 22q55 27 105 83q62 69 114 176t86 234q28 103 49 240q12 76 12 150q0 134 -40 196t-132 62q-87 0 -169 -77.5t-148.5 -218.5t-102.5 -316.5t-36 -289.5zM1280 1798l-15 -66l-454 -264l-59 77l269 253h259z" />
    <glyph glyph-name="Ocircumflex" unicode="&#xd4;" horiz-adv-x="1383" 
d="M581 -16q-228 0 -344 119.5t-116 351.5q0 79 16 181t54 215.5t105 214.5t157.5 172.5t201.5 107t233 35.5q228 0 345.5 -119t117.5 -346q0 -96 -20.5 -213.5t-67 -236t-114.5 -210.5t-157 -153.5t-191.5 -90t-219.5 -28.5zM422 362q0 -138 40 -199.5t130 -61.5
q48 0 92 22q55 27 105 83q62 69 114 176t86 234q28 103 49 240q12 76 12 150q0 134 -40 196t-132 62q-87 0 -169 -77.5t-148.5 -218.5t-102.5 -316.5t-36 -289.5zM1067 1785l153 -262l-72 -56l-183 167h-10l-271 -167l-57 70l275 248h165z" />
    <glyph glyph-name="Otilde" unicode="&#xd5;" horiz-adv-x="1383" 
d="M581 -16q-228 0 -344 119.5t-116 351.5q0 79 16 181t54 215.5t105 214.5t157.5 172.5t201.5 107t233 35.5q228 0 345.5 -119t117.5 -346q0 -96 -20.5 -213.5t-67 -236t-114.5 -210.5t-157 -153.5t-191.5 -90t-219.5 -28.5zM422 362q0 -138 40 -199.5t130 -61.5
q48 0 92 22q55 27 105 83q62 69 114 176t86 234q28 103 49 240q12 76 12 150q0 134 -40 196t-132 62q-87 0 -169 -77.5t-148.5 -218.5t-102.5 -316.5t-36 -289.5zM1217 1749l82 -63q-55 -83 -97 -128.5t-77 -64t-77 -18.5q-35 0 -61 11.5t-72 48.5l-29 23q-13 10 -24.5 16
t-24 9t-28.5 3q-27 0 -47 -9t-43 -33t-54 -71l-82 63q61 89 98.5 130.5t73 61t80.5 19.5q23 0 41.5 -5t36.5 -15.5t49 -35.5q33 -27 47.5 -36.5t28.5 -14t38 -4.5q37 0 68.5 25t72.5 88z" />
    <glyph glyph-name="Odieresis" unicode="&#xd6;" horiz-adv-x="1383" 
d="M581 -16q-228 0 -344 119.5t-116 351.5q0 79 16 181t54 215.5t105 214.5t157.5 172.5t201.5 107t233 35.5q228 0 345.5 -119t117.5 -346q0 -96 -20.5 -213.5t-67 -236t-114.5 -210.5t-157 -153.5t-191.5 -90t-219.5 -28.5zM422 362q0 -138 40 -199.5t130 -61.5
q48 0 92 22q55 27 105 83q62 69 114 176t86 234q28 103 49 240q12 76 12 150q0 134 -40 196t-132 62q-87 0 -169 -77.5t-148.5 -218.5t-102.5 -316.5t-36 -289.5zM881 1721l-48 -220h-203l48 220h203zM1252 1721l-48 -220h-203l48 220h203z" />
    <glyph glyph-name="multiply" unicode="&#xd7;" horiz-adv-x="1173" 
d="M482 595l-245 326l160 123l234 -325l378 330l120 -149l-391 -327l245 -326l-161 -123l-233 324l-377 -328l-121 148z" />
    <glyph glyph-name="Oslash" unicode="&#xd8;" horiz-adv-x="1383" 
d="M12 -135l205 260q-96 117 -96 330q0 79 16 181t54 215.5t105 214.5t157.5 172.5t201.5 107t233 35.5q161 0 271 -62l142 180h160l-206 -261q96 -118 96 -322q0 -96 -20.5 -213.5t-67 -236t-114.5 -210.5t-157 -153.5t-191.5 -90t-219.5 -28.5q-163 0 -268 60l-141 -179
h-160zM417 373l617 788q-20 56 -59 79.5t-97 23.5q-88 0 -171 -76.5t-150 -217.5t-102.5 -311t-37.5 -286zM1055 989l-617 -786q19 -51 56 -76.5t98 -25.5q89 0 172 76t148.5 215t102.5 312t40 285z" />
    <glyph glyph-name="Ugrave" unicode="&#xd9;" horiz-adv-x="1339" 
d="M1160 476q-29 -135 -77.5 -231t-116.5 -152.5t-158 -82.5t-220 -26q-85 0 -160.5 21.5t-131.5 66.5t-88.5 112.5t-32.5 160.5q0 49 7 108t34 181l104 461q13 58 13 117q0 42 -19.5 61.5t-63.5 25.5l14 66h503l-14 -66q-42 -12 -64.5 -33t-38.5 -59.5t-32 -111.5
l-135 -613q-15 -67 -20 -111.5t-5 -85.5q0 -90 44.5 -137t130.5 -47q85 0 142 37t91.5 105.5t58.5 176.5l149 675q9 39 11 66.5t2 50.5q0 42 -19.5 61.5t-63.5 25.5l14 66h426l-14 -66q-44 -13 -66.5 -35t-38 -61t-30.5 -108zM861 1798l187 -266l-69 -64l-351 264l15 66h218
z" />
    <glyph glyph-name="Uacute" unicode="&#xda;" horiz-adv-x="1339" 
d="M1160 476q-29 -135 -77.5 -231t-116.5 -152.5t-158 -82.5t-220 -26q-85 0 -160.5 21.5t-131.5 66.5t-88.5 112.5t-32.5 160.5q0 49 7 108t34 181l104 461q13 58 13 117q0 42 -19.5 61.5t-63.5 25.5l14 66h503l-14 -66q-42 -12 -64.5 -33t-38.5 -59.5t-32 -111.5
l-135 -613q-15 -67 -20 -111.5t-5 -85.5q0 -90 44.5 -137t130.5 -47q85 0 142 37t91.5 105.5t58.5 176.5l149 675q9 39 11 66.5t2 50.5q0 42 -19.5 61.5t-63.5 25.5l14 66h426l-14 -66q-44 -13 -66.5 -35t-38 -61t-30.5 -108zM1303 1798l-15 -66l-454 -264l-59 77l269 253
h259z" />
    <glyph glyph-name="Ucircumflex" unicode="&#xdb;" horiz-adv-x="1339" 
d="M1160 476q-29 -135 -77.5 -231t-116.5 -152.5t-158 -82.5t-220 -26q-85 0 -160.5 21.5t-131.5 66.5t-88.5 112.5t-32.5 160.5q0 49 7 108t34 181l104 461q13 58 13 117q0 42 -19.5 61.5t-63.5 25.5l14 66h503l-14 -66q-42 -12 -64.5 -33t-38.5 -59.5t-32 -111.5
l-135 -613q-15 -67 -20 -111.5t-5 -85.5q0 -90 44.5 -137t130.5 -47q85 0 142 37t91.5 105.5t58.5 176.5l149 675q9 39 11 66.5t2 50.5q0 42 -19.5 61.5t-63.5 25.5l14 66h426l-14 -66q-44 -13 -66.5 -35t-38 -61t-30.5 -108zM1060 1785l153 -262l-72 -56l-183 167h-10
l-271 -167l-57 70l275 248h165z" />
    <glyph glyph-name="Udieresis" unicode="&#xdc;" horiz-adv-x="1339" 
d="M1160 476q-29 -135 -77.5 -231t-116.5 -152.5t-158 -82.5t-220 -26q-85 0 -160.5 21.5t-131.5 66.5t-88.5 112.5t-32.5 160.5q0 49 7 108t34 181l104 461q13 58 13 117q0 42 -19.5 61.5t-63.5 25.5l14 66h503l-14 -66q-42 -12 -64.5 -33t-38.5 -59.5t-32 -111.5
l-135 -613q-15 -67 -20 -111.5t-5 -85.5q0 -90 44.5 -137t130.5 -47q85 0 142 37t91.5 105.5t58.5 176.5l149 675q9 39 11 66.5t2 50.5q0 42 -19.5 61.5t-63.5 25.5l14 66h426l-14 -66q-44 -13 -66.5 -35t-38 -61t-30.5 -108zM874 1721l-48 -220h-203l48 220h203zM1245 1721
l-48 -220h-203l48 220h203z" />
    <glyph glyph-name="Yacute" unicode="&#xdd;" horiz-adv-x="1181" 
d="M681 269q-7 -29 -10 -54.5t-3 -61.5q0 -46 23.5 -65t73.5 -22l-14 -66h-531l14 66q44 6 70 26t43.5 59.5t35.5 118.5l59 271l-130 556q-9 38 -18 69.5t-21.5 59t-25.5 42.5t-25.5 21.5t-36.5 9.5l15 66h489l-15 -66q-78 -9 -78 -92q0 -53 20 -142l79 -366l229 332
q55 79 72 120.5t17 83.5q0 28 -16 43.5t-56 20.5l15 66h410l-15 -66q-20 -5 -36.5 -14t-38 -29.5t-60.5 -69.5t-90 -121l-387 -534zM1227 1798l-15 -66l-454 -264l-59 77l269 253h259z" />
    <glyph glyph-name="Thorn" unicode="&#xde;" horiz-adv-x="1231" 
d="M523 0h-517l14 66q42 12 64.5 33t38.5 59.5t32 111.5l182 825q13 59 13 117q0 42 -19.5 61.5t-63.5 25.5l14 66h503l-14 -66q-40 -11 -62 -31t-38 -55t-30 -97h85q105 0 160 -6q75 -7 136.5 -30.5t103.5 -62t64 -93t22 -124.5q0 -112 -41.5 -200.5t-117.5 -152.5
t-193.5 -96.5t-262.5 -32.5h-29q-61 0 -102 5l-12 -53q-7 -33 -10 -57t-3 -60q0 -44 23 -64t74 -23zM542 434q101 0 166 23t108.5 72t66 118.5t22.5 150.5q0 101 -47.5 151t-147.5 50q-56 0 -97 -2l-123 -563h52z" />
    <glyph glyph-name="germandbls" unicode="&#xdf;" horiz-adv-x="1324" 
d="M356 31q-37 -170 -103.5 -274t-166 -154t-240.5 -50q-47 0 -95 13l27 109q28 -8 66 -8q45 0 73 12.5t50.5 42t42.5 86.5t46 170l202 889h-120l14 66q53 5 75 14.5t38.5 31t43.5 87.5q55 136 136.5 215t199.5 116.5t280 37.5q159 0 240.5 -58t81.5 -163q0 -71 -22 -122
t-65 -93.5t-131 -100.5q-66 -44 -97 -69.5t-42 -45t-11 -43.5q0 -26 11.5 -44t41 -38.5t113.5 -69.5q72 -42 114 -83.5t62 -90t20 -112.5q0 -103 -54.5 -175t-150.5 -107.5t-219 -35.5q-98 0 -190 11.5t-151 28.5l40 189h110q10 -48 33 -75.5t58 -38.5t91 -11q79 0 121.5 38
t42.5 109q0 39 -13 67t-46 56.5t-106 72.5q-60 37 -94.5 67.5t-55 70t-20.5 91.5t17 89t58 76t121 94q77 53 118 94t59 82.5t18 94.5q0 65 -38.5 103.5t-105.5 38.5q-55 0 -97.5 -18t-80.5 -54.5t-68 -93.5t-53 -128.5t-45 -171.5z" />
    <glyph glyph-name="agrave" unicode="&#xe0;" horiz-adv-x="1167" 
d="M912 936l90 72l112 -16l-154 -697q-12 -53 -17.5 -85t-5.5 -54q0 -45 22 -65t78 -25l-11 -66h-384l54 205l-13 4q-68 -88 -126.5 -136.5t-115 -68.5t-130.5 -20q-70 0 -123 33t-84 104.5t-31 181.5q0 105 24.5 212t72.5 199.5t121 158.5t165.5 100.5t201.5 34.5
q149 0 254 -72zM761 622q7 32 11.5 71.5t4.5 76.5q0 66 -25 100t-82 34q-93 0 -165 -93.5t-116 -251.5t-44 -283q0 -73 21.5 -109t66.5 -36q66 0 134.5 64.5t110.5 151.5t75 238zM726 1475l136 -339l-85 -48l-246 321l14 66h181z" />
    <glyph glyph-name="aacute" unicode="&#xe1;" horiz-adv-x="1167" 
d="M912 936l90 72l112 -16l-154 -697q-12 -53 -17.5 -85t-5.5 -54q0 -45 22 -65t78 -25l-11 -66h-384l54 205l-13 4q-68 -88 -126.5 -136.5t-115 -68.5t-130.5 -20q-70 0 -123 33t-84 104.5t-31 181.5q0 105 24.5 212t72.5 199.5t121 158.5t165.5 100.5t201.5 34.5
q149 0 254 -72zM761 622q7 32 11.5 71.5t4.5 76.5q0 66 -25 100t-82 34q-93 0 -165 -93.5t-116 -251.5t-44 -283q0 -73 21.5 -109t66.5 -36q66 0 134.5 64.5t110.5 151.5t75 238zM1078 1475l-14 -66l-410 -322l-71 72l267 316h228z" />
    <glyph glyph-name="acircumflex" unicode="&#xe2;" horiz-adv-x="1167" 
d="M912 936l90 72l112 -16l-154 -697q-12 -53 -17.5 -85t-5.5 -54q0 -45 22 -65t78 -25l-11 -66h-384l54 205l-13 4q-68 -88 -126.5 -136.5t-115 -68.5t-130.5 -20q-70 0 -123 33t-84 104.5t-31 181.5q0 105 24.5 212t72.5 199.5t121 158.5t165.5 100.5t201.5 34.5
q149 0 254 -72zM761 622q7 32 11.5 71.5t4.5 76.5q0 66 -25 100t-82 34q-93 0 -165 -93.5t-116 -251.5t-44 -283q0 -73 21.5 -109t66.5 -36q66 0 134.5 64.5t110.5 151.5t75 238zM890 1468l131 -332l-90 -48l-146 218h-10l-269 -218l-66 68l281 312h169z" />
    <glyph glyph-name="atilde" unicode="&#xe3;" horiz-adv-x="1167" 
d="M912 936l90 72l112 -16l-154 -697q-12 -53 -17.5 -85t-5.5 -54q0 -45 22 -65t78 -25l-11 -66h-384l54 205l-13 4q-68 -88 -126.5 -136.5t-115 -68.5t-130.5 -20q-70 0 -123 33t-84 104.5t-31 181.5q0 105 24.5 212t72.5 199.5t121 158.5t165.5 100.5t201.5 34.5
q149 0 254 -72zM761 622q7 32 11.5 71.5t4.5 76.5q0 66 -25 100t-82 34q-93 0 -165 -93.5t-116 -251.5t-44 -283q0 -73 21.5 -109t66.5 -36q66 0 134.5 64.5t110.5 151.5t75 238zM1033 1404l82 -63q-55 -83 -97 -128.5t-77 -64t-77 -18.5q-35 0 -61 11.5t-72 48.5l-29 23
q-13 10 -24.5 16t-24 9t-28.5 3q-27 0 -47 -9t-43 -33t-54 -71l-82 63q61 89 98.5 130.5t73 61t80.5 19.5q23 0 41.5 -5t36.5 -15.5t49 -35.5q33 -27 47.5 -36.5t28.5 -14t38 -4.5q37 0 68.5 25t72.5 88z" />
    <glyph glyph-name="adieresis" unicode="&#xe4;" horiz-adv-x="1167" 
d="M912 936l90 72l112 -16l-154 -697q-12 -53 -17.5 -85t-5.5 -54q0 -45 22 -65t78 -25l-11 -66h-384l54 205l-13 4q-68 -88 -126.5 -136.5t-115 -68.5t-130.5 -20q-70 0 -123 33t-84 104.5t-31 181.5q0 105 24.5 212t72.5 199.5t121 158.5t165.5 100.5t201.5 34.5
q149 0 254 -72zM761 622q7 32 11.5 71.5t4.5 76.5q0 66 -25 100t-82 34q-93 0 -165 -93.5t-116 -251.5t-44 -283q0 -73 21.5 -109t66.5 -36q66 0 134.5 64.5t110.5 151.5t75 238zM706 1379l-48 -220h-202l48 220h202zM1058 1379l-48 -220h-203l48 220h203z" />
    <glyph glyph-name="aring" unicode="&#xe5;" horiz-adv-x="1167" 
d="M912 936l90 72l112 -16l-154 -697q-12 -53 -17.5 -85t-5.5 -54q0 -45 22 -65t78 -25l-11 -66h-384l54 205l-13 4q-68 -88 -126.5 -136.5t-115 -68.5t-130.5 -20q-70 0 -123 33t-84 104.5t-31 181.5q0 105 24.5 212t72.5 199.5t121 158.5t165.5 100.5t201.5 34.5
q149 0 254 -72zM761 622q7 32 11.5 71.5t4.5 76.5q0 66 -25 100t-82 34q-93 0 -165 -93.5t-116 -251.5t-44 -283q0 -73 21.5 -109t66.5 -36q66 0 134.5 64.5t110.5 151.5t75 238zM717 1084q-91 0 -139.5 40.5t-48.5 114.5q0 53 19 103t57 87t90.5 56.5t111.5 19.5
q95 0 142.5 -40.5t47.5 -115.5q0 -73 -34.5 -135.5t-98.5 -96t-147 -33.5zM645 1250q0 -41 21 -65t65 -24q47 0 82.5 28.5t51.5 71t16 79.5q0 43 -22 65.5t-63 22.5q-42 0 -76.5 -24t-54.5 -66.5t-20 -87.5z" />
    <glyph glyph-name="ae" unicode="&#xe6;" horiz-adv-x="1538" 
d="M1427 208q-101 -114 -217.5 -169t-252.5 -55q-117 0 -200.5 45.5t-130.5 137.5h-10q-90 -93 -177.5 -138t-177.5 -45q-120 0 -182.5 54t-62.5 155q0 110 75 190t215.5 122.5t332.5 44.5l23 110q14 67 14 110q0 65 -28.5 97.5t-92.5 32.5q-77 0 -125 -51.5t-69 -148.5
h-195l37 177q99 48 167.5 73.5t139.5 41.5t140 16q53 0 89 -10t67 -36.5t53 -74.5h10q86 60 171 90.5t174 30.5q150 0 227 -55t77 -162q0 -81 -32 -141t-103.5 -105.5t-199.5 -73.5t-310 -32q-13 -59 -13 -122q0 -37 7 -70.5t25 -59.5t48 -41.5t77 -15.5q90 0 161 36.5
t165 125.5zM897 544q184 5 281.5 70.5t97.5 185.5q0 51 -23.5 77.5t-65.5 26.5q-93 0 -167.5 -92t-122.5 -268zM619 452q-174 -3 -263 -57.5t-89 -157.5q0 -54 30 -81t82 -27q45 0 89 25.5t81 82t54 140.5z" />
    <glyph glyph-name="ccedilla" unicode="&#xe7;" horiz-adv-x="926" 
d="M735 724q2 21 2 43q0 72 -22 104.5t-65 32.5q-74 0 -141 -85t-112 -236t-45 -265q0 -188 137 -188q69 0 130.5 31t139.5 104l81 -87q-42 -41 -88.5 -78t-105.5 -64l-164 -102q5 -29 5 -69q0 -135 -100 -209.5t-293 -85.5v95q86 10 136.5 57t53.5 133l10 43l152 88
q-23 -2 -47 -2q-103 0 -176 44t-109.5 125.5t-36.5 191.5q0 87 21 173q15 63 39 124q32 81 75 141q51 70 122.5 121t161 77.5t192.5 26.5q67 0 145 -10.5t138 -29.5l-56 -244h-180z" />
    <glyph glyph-name="egrave" unicode="&#xe8;" horiz-adv-x="1021" 
d="M910 208q-101 -114 -217.5 -169t-252.5 -55q-117 0 -199 41t-123.5 121.5t-41.5 192.5q0 52 14 133q19 110 58 196q49 106 128 182t185.5 117t233.5 41q150 0 228 -54.5t78 -166.5q0 -76 -30.5 -134t-101.5 -105t-200.5 -76t-312.5 -33q-13 -59 -13 -122q0 -37 7 -70.5
t25 -59.5t48 -41.5t77 -15.5q88 0 159 35.5t167 126.5zM380 544q184 5 281.5 70.5t97.5 185.5q0 51 -23.5 77.5t-65.5 26.5q-93 0 -167.5 -92t-122.5 -268zM683 1475l136 -339l-85 -48l-246 321l14 66h181z" />
    <glyph glyph-name="eacute" unicode="&#xe9;" horiz-adv-x="1021" 
d="M910 208q-101 -114 -217.5 -169t-252.5 -55q-117 0 -199 41t-123.5 121.5t-41.5 192.5q0 52 14 133q19 110 58 196q49 106 128 182t185.5 117t233.5 41q150 0 228 -54.5t78 -166.5q0 -76 -30.5 -134t-101.5 -105t-200.5 -76t-312.5 -33q-13 -59 -13 -122q0 -37 7 -70.5
t25 -59.5t48 -41.5t77 -15.5q88 0 159 35.5t167 126.5zM380 544q184 5 281.5 70.5t97.5 185.5q0 51 -23.5 77.5t-65.5 26.5q-93 0 -167.5 -92t-122.5 -268zM1035 1475l-14 -66l-410 -322l-71 72l267 316h228z" />
    <glyph glyph-name="ecircumflex" unicode="&#xea;" horiz-adv-x="1021" 
d="M910 208q-101 -114 -217.5 -169t-252.5 -55q-117 0 -199 41t-123.5 121.5t-41.5 192.5q0 52 14 133q19 110 58 196q49 106 128 182t185.5 117t233.5 41q150 0 228 -54.5t78 -166.5q0 -76 -30.5 -134t-101.5 -105t-200.5 -76t-312.5 -33q-13 -59 -13 -122q0 -37 7 -70.5
t25 -59.5t48 -41.5t77 -15.5q88 0 159 35.5t167 126.5zM380 544q184 5 281.5 70.5t97.5 185.5q0 51 -23.5 77.5t-65.5 26.5q-93 0 -167.5 -92t-122.5 -268zM837 1468l131 -332l-90 -48l-146 218h-10l-269 -218l-66 68l281 312h169z" />
    <glyph glyph-name="edieresis" unicode="&#xeb;" horiz-adv-x="1021" 
d="M910 208q-101 -114 -217.5 -169t-252.5 -55q-117 0 -199 41t-123.5 121.5t-41.5 192.5q0 52 14 133q19 110 58 196q49 106 128 182t185.5 117t233.5 41q150 0 228 -54.5t78 -166.5q0 -76 -30.5 -134t-101.5 -105t-200.5 -76t-312.5 -33q-13 -59 -13 -122q0 -37 7 -70.5
t25 -59.5t48 -41.5t77 -15.5q88 0 159 35.5t167 126.5zM380 544q184 5 281.5 70.5t97.5 185.5q0 51 -23.5 77.5t-65.5 26.5q-93 0 -167.5 -92t-122.5 -268zM654 1379l-48 -220h-202l48 220h202zM1006 1379l-48 -220h-203l48 220h203z" />
    <glyph glyph-name="igrave" unicode="&#xec;" horiz-adv-x="619" 
d="M407 267q-11 -50 -14 -74t-3 -40q0 -43 22.5 -62t77.5 -25l-11 -66h-416l156 698q13 60 18 93.5t5 56.5q0 39 -18.5 55.5t-77.5 22.5l15 66l293 11h114zM446 1475l136 -339l-85 -48l-246 321l14 66h181z" />
    <glyph glyph-name="iacute" unicode="&#xed;" horiz-adv-x="619" 
d="M407 267q-11 -50 -14 -74t-3 -40q0 -43 22.5 -62t77.5 -25l-11 -66h-416l156 698q13 60 18 93.5t5 56.5q0 39 -18.5 55.5t-77.5 22.5l15 66l293 11h114zM804 1475l-14 -66l-410 -322l-71 72l267 316h228z" />
    <glyph glyph-name="icircumflex" unicode="&#xee;" horiz-adv-x="619" 
d="M407 267q-11 -50 -14 -74t-3 -40q0 -43 22.5 -62t77.5 -25l-11 -66h-416l156 698q13 60 18 93.5t5 56.5q0 39 -18.5 55.5t-77.5 22.5l15 66l293 11h114zM616 1468l131 -332l-90 -48l-146 218h-10l-269 -218l-66 68l281 312h169z" />
    <glyph glyph-name="idieresis" unicode="&#xef;" horiz-adv-x="619" 
d="M407 267q-11 -50 -14 -74t-3 -40q0 -43 22.5 -62t77.5 -25l-11 -66h-416l156 698q13 60 18 93.5t5 56.5q0 39 -18.5 55.5t-77.5 22.5l15 66l293 11h114zM432 1379l-48 -220h-202l48 220h202zM784 1379l-48 -220h-203l48 220h203z" />
    <glyph glyph-name="eth" unicode="&#xf0;" horiz-adv-x="1116" 
d="M409 1148l237 105q-44 42 -118 83l50 99q124 -47 215 -114l224 102l49 -95l-187 -82q85 -89 127 -207.5t42 -261.5q0 -175 -41.5 -333t-120 -260t-189.5 -151t-252 -49q-111 0 -194 39.5t-128.5 118.5t-45.5 192q0 116 31 230.5t101.5 204.5t175.5 139t224 49
q115 0 192 -60l17 9q-25 153 -102 263l-258 -116zM344 271q0 -92 31 -137.5t94 -45.5q55 0 101.5 34.5t84.5 106.5t69.5 195t31.5 250q0 90 -32.5 134.5t-94.5 44.5q-84 0 -147.5 -84.5t-100.5 -237t-37 -260.5z" />
    <glyph glyph-name="ntilde" unicode="&#xf1;" horiz-adv-x="1199" 
d="M1060 0h-415l125 544q27 116 33 160t6 69q0 45 -19 67t-55 22q-32 0 -70 -24t-85 -75t-75 -108t-45 -142l-110 -513h-287l157 706q5 24 13.5 68.5t8.5 74.5q0 42 -23.5 57.5t-73.5 19.5l15 66l275 11h105l-57 -216l12 -4q69 85 128 133.5t117.5 70t129.5 21.5
q103 0 162 -57.5t59 -158.5q0 -65 -20 -155l-82 -370q-10 -46 -13.5 -71t-3.5 -43q0 -45 22.5 -63t77.5 -24zM1049 1404l82 -63q-55 -83 -97 -128.5t-77 -64t-77 -18.5q-35 0 -61 11.5t-72 48.5l-29 23q-13 10 -24.5 16t-24 9t-28.5 3q-27 0 -47 -9t-43 -33t-54 -71l-82 63
q61 89 98.5 130.5t73 61t80.5 19.5q23 0 41.5 -5t36.5 -15.5t49 -35.5q33 -27 47.5 -36.5t28.5 -14t38 -4.5q37 0 68.5 25t72.5 88z" />
    <glyph glyph-name="ograve" unicode="&#xf2;" horiz-adv-x="1106" 
d="M448 -16q-110 0 -193.5 39.5t-131 120t-47.5 196.5q0 44 6 98q8 68 28 139q23 82 58 146q38 72 88 124.5t108.5 87t127.5 52.5q82 21 172 21q124 0 208 -45.5t124.5 -126.5t40.5 -188q0 -132 -44 -265t-121.5 -223t-183.5 -133t-240 -43zM345 275q0 -94 30.5 -140.5
t96.5 -46.5q37 0 70.5 15.5t66 53t58.5 95t49.5 142t36.5 165.5t13 151q0 100 -30.5 147t-94.5 47q-84 0 -145.5 -81.5t-106 -252t-44.5 -295.5zM696 1475l136 -339l-85 -48l-246 321l14 66h181z" />
    <glyph glyph-name="oacute" unicode="&#xf3;" horiz-adv-x="1106" 
d="M448 -16q-110 0 -193.5 39.5t-131 120t-47.5 196.5q0 44 6 98q8 68 28 139q23 82 58 146q38 72 88 124.5t108.5 87t127.5 52.5q82 21 172 21q124 0 208 -45.5t124.5 -126.5t40.5 -188q0 -132 -44 -265t-121.5 -223t-183.5 -133t-240 -43zM345 275q0 -94 30.5 -140.5
t96.5 -46.5q37 0 70.5 15.5t66 53t58.5 95t49.5 142t36.5 165.5t13 151q0 100 -30.5 147t-94.5 47q-84 0 -145.5 -81.5t-106 -252t-44.5 -295.5zM1047 1475l-14 -66l-410 -322l-71 72l267 316h228z" />
    <glyph glyph-name="ocircumflex" unicode="&#xf4;" horiz-adv-x="1106" 
d="M448 -16q-110 0 -193.5 39.5t-131 120t-47.5 196.5q0 44 6 98q8 68 28 139q23 82 58 146q38 72 88 124.5t108.5 87t127.5 52.5q82 21 172 21q124 0 208 -45.5t124.5 -126.5t40.5 -188q0 -132 -44 -265t-121.5 -223t-183.5 -133t-240 -43zM345 275q0 -94 30.5 -140.5
t96.5 -46.5q37 0 70.5 15.5t66 53t58.5 95t49.5 142t36.5 165.5t13 151q0 100 -30.5 147t-94.5 47q-84 0 -145.5 -81.5t-106 -252t-44.5 -295.5zM860 1468l131 -332l-90 -48l-146 218h-10l-269 -218l-66 68l281 312h169z" />
    <glyph glyph-name="otilde" unicode="&#xf5;" horiz-adv-x="1106" 
d="M448 -16q-110 0 -193.5 39.5t-131 120t-47.5 196.5q0 44 6 98q8 68 28 139q23 82 58 146q38 72 88 124.5t108.5 87t127.5 52.5q82 21 172 21q124 0 208 -45.5t124.5 -126.5t40.5 -188q0 -132 -44 -265t-121.5 -223t-183.5 -133t-240 -43zM345 275q0 -94 30.5 -140.5
t96.5 -46.5q37 0 70.5 15.5t66 53t58.5 95t49.5 142t36.5 165.5t13 151q0 100 -30.5 147t-94.5 47q-84 0 -145.5 -81.5t-106 -252t-44.5 -295.5zM1003 1404l82 -63q-55 -83 -97 -128.5t-77 -64t-77 -18.5q-35 0 -61 11.5t-72 48.5l-29 23q-13 10 -24.5 16t-24 9t-28.5 3
q-27 0 -47 -9t-43 -33t-54 -71l-82 63q61 89 98.5 130.5t73 61t80.5 19.5q23 0 41.5 -5t36.5 -15.5t49 -35.5q33 -27 47.5 -36.5t28.5 -14t38 -4.5q37 0 68.5 25t72.5 88z" />
    <glyph glyph-name="odieresis" unicode="&#xf6;" horiz-adv-x="1106" 
d="M448 -16q-110 0 -193.5 39.5t-131 120t-47.5 196.5q0 44 6 98q8 68 28 139q23 82 58 146q38 72 88 124.5t108.5 87t127.5 52.5q82 21 172 21q124 0 208 -45.5t124.5 -126.5t40.5 -188q0 -132 -44 -265t-121.5 -223t-183.5 -133t-240 -43zM345 275q0 -94 30.5 -140.5
t96.5 -46.5q37 0 70.5 15.5t66 53t58.5 95t49.5 142t36.5 165.5t13 151q0 100 -30.5 147t-94.5 47q-84 0 -145.5 -81.5t-106 -252t-44.5 -295.5zM676 1379l-48 -220h-202l48 220h202zM1028 1379l-48 -220h-203l48 220h203z" />
    <glyph glyph-name="divide" unicode="&#xf7;" horiz-adv-x="1173" 
d="M691 806q-38 0 -71 19.5t-52.5 52.5t-19.5 71q0 37 19 70t52 52.5t72 19.5q38 0 71 -19t52 -52t19 -71q0 -39 -19.5 -72t-52.5 -52t-70 -19zM129 487l43 196h918l-43 -196h-918zM531 78q-38 0 -71 19.5t-52.5 52.5t-19.5 71q0 37 19 70t52 52.5t72 19.5q38 0 71 -19
t52 -52t19 -71q0 -39 -19.5 -72t-52.5 -52t-70 -19z" />
    <glyph glyph-name="oslash" unicode="&#xf8;" horiz-adv-x="1106" 
d="M157 95q-81 93 -81 245q0 44 6 98q8 68 28 139q23 82 58 146q38 72 88 124.5t108.5 87t127.5 52.5q82 21 172 21q119 0 202 -42l131 161h146l-188 -230q82 -94 82 -249q0 -132 -44 -265t-121.5 -223t-183.5 -133t-240 -43q-114 0 -201 43l-132 -162h-145zM340 315
l414 513q-16 42 -45 59t-68 17q-87 0 -148 -79.5t-102.5 -236.5t-50.5 -273zM771 676l-414 -514q15 -39 43.5 -56.5t71.5 -17.5q57 0 101 33q51 38 90.5 117t71 210.5t36.5 227.5z" />
    <glyph glyph-name="ugrave" unicode="&#xf9;" horiz-adv-x="1197" 
d="M147 992h415l-125 -544q-27 -116 -33 -160t-6 -69q0 -47 18.5 -68t54.5 -21q20 0 43 9.5t46 28t56 51.5t58 70.5t41.5 80.5t30.5 109l110 513h287l-157 -706q-5 -24 -13.5 -68.5t-8.5 -74.5q0 -42 23.5 -57.5t73.5 -19.5l-15 -66h-377l54 205l-12 4
q-93 -116 -179.5 -170.5t-196.5 -54.5q-101 0 -160 57.5t-59 158.5q0 65 20 155l82 370q10 46 13.5 71t3.5 43q0 44 -22 62t-78 25zM706 1475l136 -339l-85 -48l-246 321l14 66h181z" />
    <glyph glyph-name="uacute" unicode="&#xfa;" horiz-adv-x="1197" 
d="M147 992h415l-125 -544q-27 -116 -33 -160t-6 -69q0 -47 18.5 -68t54.5 -21q20 0 43 9.5t46 28t56 51.5t58 70.5t41.5 80.5t30.5 109l110 513h287l-157 -706q-5 -24 -13.5 -68.5t-8.5 -74.5q0 -42 23.5 -57.5t73.5 -19.5l-15 -66h-377l54 205l-12 4
q-93 -116 -179.5 -170.5t-196.5 -54.5q-101 0 -160 57.5t-59 158.5q0 65 20 155l82 370q10 46 13.5 71t3.5 43q0 44 -22 62t-78 25zM1093 1475l-14 -66l-410 -322l-71 72l267 316h228z" />
    <glyph glyph-name="ucircumflex" unicode="&#xfb;" horiz-adv-x="1197" 
d="M147 992h415l-125 -544q-27 -116 -33 -160t-6 -69q0 -47 18.5 -68t54.5 -21q20 0 43 9.5t46 28t56 51.5t58 70.5t41.5 80.5t30.5 109l110 513h287l-157 -706q-5 -24 -13.5 -68.5t-8.5 -74.5q0 -42 23.5 -57.5t73.5 -19.5l-15 -66h-377l54 205l-12 4
q-93 -116 -179.5 -170.5t-196.5 -54.5q-101 0 -160 57.5t-59 158.5q0 65 20 155l82 370q10 46 13.5 71t3.5 43q0 44 -22 62t-78 25zM905 1468l131 -332l-90 -48l-146 218h-10l-269 -218l-66 68l281 312h169z" />
    <glyph glyph-name="udieresis" unicode="&#xfc;" horiz-adv-x="1197" 
d="M147 992h415l-125 -544q-27 -116 -33 -160t-6 -69q0 -47 18.5 -68t54.5 -21q20 0 43 9.5t46 28t56 51.5t58 70.5t41.5 80.5t30.5 109l110 513h287l-157 -706q-5 -24 -13.5 -68.5t-8.5 -74.5q0 -42 23.5 -57.5t73.5 -19.5l-15 -66h-377l54 205l-12 4
q-93 -116 -179.5 -170.5t-196.5 -54.5q-101 0 -160 57.5t-59 158.5q0 65 20 155l82 370q10 46 13.5 71t3.5 43q0 44 -22 62t-78 25zM722 1379l-48 -220h-202l48 220h202zM1074 1379l-48 -220h-203l48 220h203z" />
    <glyph glyph-name="yacute" unicode="&#xfd;" horiz-adv-x="1024" 
d="M282 0l-90 742q-9 73 -20.5 109.5t-31 53.5t-60.5 21l15 66h352l69 -747q151 216 222.5 361t71.5 241q0 38 -18 57.5t-63 21.5l14 66h282l35 -66q-42 -113 -128 -267t-214.5 -342t-271.5 -374q-120 -156 -201 -235q-61 -60 -116 -92q-44 -27 -93 -40t-113 -13
q-30 0 -69.5 6.5t-70.5 16.5l49 225h106q1 -42 17 -62t47 -20q42 0 75.5 14t68.5 43t83 82.5t110 131.5h-57zM1006 1475l-14 -66l-410 -322l-71 72l267 316h228z" />
    <glyph glyph-name="thorn" unicode="&#xfe;" horiz-adv-x="1162" 
d="M304 1130q21 94 21 143q0 22 -4.5 34.5t-13.5 20.5t-23.5 12.5t-58.5 10.5l16 65l294 16h117l-153 -612l13 -4q63 73 116 114.5t107.5 59.5t122.5 18q69 0 122.5 -32.5t85 -104.5t31.5 -182q0 -88 -21 -193.5t-59 -187t-91 -142.5t-118.5 -101t-141.5 -60.5t-163 -20.5
q-84 0 -165 31l-38 -178q-11 -53 -14 -75.5t-3 -38.5q0 -43 22.5 -62t77.5 -25l-11 -66h-416zM410 370q-16 -74 -16 -145q0 -73 24.5 -105t82.5 -32q37 0 68.5 12t62 39.5t61.5 80.5q39 66 68.5 150t46.5 176.5t17 169.5q0 74 -21.5 109.5t-66.5 35.5q-66 0 -134.5 -64.5
t-109.5 -149.5t-75 -240z" />
    <glyph glyph-name="ydieresis" unicode="&#xff;" horiz-adv-x="1024" 
d="M282 0l-90 742q-9 73 -20.5 109.5t-31 53.5t-60.5 21l15 66h352l69 -747q151 216 222.5 361t71.5 241q0 38 -18 57.5t-63 21.5l14 66h282l35 -66q-42 -113 -128 -267t-214.5 -342t-271.5 -374q-120 -156 -201 -235q-61 -60 -116 -92q-44 -27 -93 -40t-113 -13
q-30 0 -69.5 6.5t-70.5 16.5l49 225h106q1 -42 17 -62t47 -20q42 0 75.5 14t68.5 43t83 82.5t110 131.5h-57zM635 1379l-48 -220h-202l48 220h202zM987 1379l-48 -220h-203l48 220h203z" />
    <glyph glyph-name="Amacron" unicode="&#x100;" horiz-adv-x="1258" 
d="M750 423h-391l-14 -25q-23 -40 -39.5 -72.5t-29.5 -66t-18.5 -60t-5.5 -50.5q0 -72 85 -83l-15 -66h-422l15 66q35 8 61.5 27t50.5 51.5t68 111.5l621 1116h288l43 -1069q2 -61 7 -96.5t13 -60.5t19.5 -42t29.5 -26t40 -12l-15 -66h-517l15 66q44 3 69.5 22.5t35.5 53
t10 93.5q0 43 -2 90zM421 540h326l-4 240q-2 128 -2 212q0 64 1 131h-12zM1164 1530h-565l34 154h565z" />
    <glyph glyph-name="amacron" unicode="&#x101;" horiz-adv-x="1167" 
d="M912 936l90 72l112 -16l-154 -697q-12 -53 -17.5 -85t-5.5 -54q0 -45 22 -65t78 -25l-11 -66h-384l54 205l-13 4q-68 -88 -126.5 -136.5t-115 -68.5t-130.5 -20q-70 0 -123 33t-84 104.5t-31 181.5q0 105 24.5 212t72.5 199.5t121 158.5t165.5 100.5t201.5 34.5
q149 0 254 -72zM761 622q7 32 11.5 71.5t4.5 76.5q0 66 -25 100t-82 34q-93 0 -165 -93.5t-116 -251.5t-44 -283q0 -73 21.5 -109t66.5 -36q66 0 134.5 64.5t110.5 151.5t75 238zM1008 1192h-535l34 154h535z" />
    <glyph glyph-name="Abreve" unicode="&#x102;" horiz-adv-x="1258" 
d="M750 423h-391l-14 -25q-23 -40 -39.5 -72.5t-29.5 -66t-18.5 -60t-5.5 -50.5q0 -72 85 -83l-15 -66h-422l15 66q35 8 61.5 27t50.5 51.5t68 111.5l621 1116h288l43 -1069q2 -61 7 -96.5t13 -60.5t19.5 -42t29.5 -26t40 -12l-15 -66h-517l15 66q44 3 69.5 22.5t35.5 53
t10 93.5q0 43 -2 90zM421 540h326l-4 240q-2 128 -2 212q0 64 1 131h-12zM1248 1741q-69 -128 -161.5 -195t-224.5 -67q-238 0 -246 299l99 18q13 -78 54 -117.5t114 -39.5q93 0 154.5 35t123.5 116z" />
    <glyph glyph-name="abreve" unicode="&#x103;" horiz-adv-x="1167" 
d="M912 936l90 72l112 -16l-154 -697q-12 -53 -17.5 -85t-5.5 -54q0 -45 22 -65t78 -25l-11 -66h-384l54 205l-13 4q-68 -88 -126.5 -136.5t-115 -68.5t-130.5 -20q-70 0 -123 33t-84 104.5t-31 181.5q0 105 24.5 212t72.5 199.5t121 158.5t165.5 100.5t201.5 34.5
q149 0 254 -72zM761 622q7 32 11.5 71.5t4.5 76.5q0 66 -25 100t-82 34q-93 0 -165 -93.5t-116 -251.5t-44 -283q0 -73 21.5 -109t66.5 -36q66 0 134.5 64.5t110.5 151.5t75 238zM1096 1391q-67 -129 -159 -195.5t-218 -66.5q-117 0 -178 76t-62 223l99 18q12 -76 50 -116.5
t112 -40.5q90 0 149.5 35t119.5 116z" />
    <glyph glyph-name="Aogonek" unicode="&#x104;" horiz-adv-x="1258" 
d="M913 0h-289l15 66q44 3 69.5 22.5t35.5 53t10 93.5q0 43 -2 90l-2 98h-391l-14 -25q-23 -40 -39.5 -72.5t-29.5 -66t-18.5 -60t-5.5 -50.5q0 -72 85 -83l-15 -66h-422l15 66q35 8 61.5 27t50.5 51.5t68 111.5l621 1116h288l43 -1069q2 -61 7 -96.5t13 -60.5t19.5 -42
t29.5 -26t40 -12l-15 -66h-100q-103 -85 -148 -144t-45 -108q0 -33 18 -51.5t51 -18.5q52 0 100 32l21 -89q-35 -24 -84.5 -40.5t-94.5 -16.5q-87 0 -133 41.5t-46 120.5q0 23 6.5 45.5t22 49t42.5 55.5t67 59.5t95 64.5zM421 540h326l-4 240q-2 128 -2 212q0 64 1 131h-12z
" />
    <glyph glyph-name="aogonek" unicode="&#x105;" horiz-adv-x="1167" 
d="M809 0h-167l54 205l-13 4q-68 -88 -126.5 -136.5t-115 -68.5t-130.5 -20q-70 0 -123 33t-84 104.5t-31 181.5q0 105 24.5 212t72.5 199.5t121 158.5t165.5 100.5t201.5 34.5q149 0 254 -72l90 72l112 -16l-154 -697q-12 -53 -17.5 -85t-5.5 -54q0 -45 22 -65t78 -25
l-11 -66h-89q-103 -85 -148 -144t-45 -108q0 -33 18 -51.5t51 -18.5q52 0 100 32l21 -89q-35 -24 -84.5 -40.5t-94.5 -16.5q-87 0 -133 41.5t-46 120.5q0 23 6.5 45.5t22 49t42.5 55.5t67 59.5t95 64.5zM761 622q7 32 11.5 71.5t4.5 76.5q0 66 -25 100t-82 34
q-93 0 -165 -93.5t-116 -251.5t-44 -283q0 -73 21.5 -109t66.5 -36q66 0 134.5 64.5t110.5 151.5t75 238z" />
    <glyph glyph-name="Cacute" unicode="&#x106;" horiz-adv-x="1130" 
d="M1241 1332l-64 -292h-131q-3 89 -18 134t-47 67.5t-87 22.5q-44 0 -91 -19.5t-93 -61.5q-53 -49 -100.5 -125.5t-85.5 -176.5q-30 -81 -55.5 -184t-36 -189t-10.5 -153q0 -84 15.5 -139t54 -85t106.5 -30q75 0 128.5 25.5t92 73.5t75.5 132h131l-64 -295
q-97 -28 -193 -40.5t-206 -12.5q-213 0 -327 116.5t-114 335.5q0 66 12 153q20 134 62 255q48 138 121 240t164 167.5t197.5 97.5t227.5 32q92 0 174.5 -12.5t161.5 -36.5zM1212 1798l-15 -66l-454 -264l-59 77l269 253h259z" />
    <glyph glyph-name="cacute" unicode="&#x107;" horiz-adv-x="926" 
d="M759 265l81 -87q-105 -105 -210 -149.5t-231 -44.5q-103 0 -176 44t-109.5 125.5t-36.5 191.5q0 87 21 173q15 63 39 124q32 81 75 141q51 70 122.5 121t161 77.5t192.5 26.5q67 0 145 -10.5t138 -29.5l-56 -244h-180q2 21 2 43q0 72 -22 104.5t-65 32.5q-74 0 -141 -85
t-112 -236t-45 -265q0 -188 137 -188q69 0 130.5 31t139.5 104zM986 1475l-14 -66l-410 -322l-71 72l267 316h228z" />
    <glyph glyph-name="Ccircumflex" unicode="&#x108;" horiz-adv-x="1130" 
d="M1241 1332l-64 -292h-131q-3 89 -18 134t-47 67.5t-87 22.5q-44 0 -91 -19.5t-93 -61.5q-53 -49 -100.5 -125.5t-85.5 -176.5q-30 -81 -55.5 -184t-36 -189t-10.5 -153q0 -84 15.5 -139t54 -85t106.5 -30q75 0 128.5 25.5t92 73.5t75.5 132h131l-64 -295
q-97 -28 -193 -40.5t-206 -12.5q-213 0 -327 116.5t-114 335.5q0 66 12 153q20 134 62 255q48 138 121 240t164 167.5t197.5 97.5t227.5 32q92 0 174.5 -12.5t161.5 -36.5zM999 1785l153 -262l-72 -56l-183 167h-10l-271 -167l-57 70l275 248h165z" />
    <glyph glyph-name="ccircumflex" unicode="&#x109;" horiz-adv-x="926" 
d="M759 265l81 -87q-105 -105 -210 -149.5t-231 -44.5q-103 0 -176 44t-109.5 125.5t-36.5 191.5q0 87 21 173q15 63 39 124q32 81 75 141q51 70 122.5 121t161 77.5t192.5 26.5q67 0 145 -10.5t138 -29.5l-56 -244h-180q2 21 2 43q0 72 -22 104.5t-65 32.5q-74 0 -141 -85
t-112 -236t-45 -265q0 -188 137 -188q69 0 130.5 31t139.5 104zM802 1468l131 -332l-90 -48l-146 218h-10l-269 -218l-66 68l281 312h169z" />
    <glyph glyph-name="Cdotaccent" unicode="&#x10a;" horiz-adv-x="1130" 
d="M1241 1332l-64 -292h-131q-3 89 -18 134t-47 67.5t-87 22.5q-44 0 -91 -19.5t-93 -61.5q-53 -49 -100.5 -125.5t-85.5 -176.5q-30 -81 -55.5 -184t-36 -189t-10.5 -153q0 -84 15.5 -139t54 -85t106.5 -30q75 0 128.5 25.5t92 73.5t75.5 132h131l-64 -295
q-97 -28 -193 -40.5t-206 -12.5q-213 0 -327 116.5t-114 335.5q0 66 12 153q20 134 62 255q48 138 121 240t164 167.5t197.5 97.5t227.5 32q92 0 174.5 -12.5t161.5 -36.5zM1028 1734l-52 -245h-259l55 245h256z" />
    <glyph glyph-name="cdotaccent" unicode="&#x10b;" horiz-adv-x="926" 
d="M759 265l81 -87q-105 -105 -210 -149.5t-231 -44.5q-103 0 -176 44t-109.5 125.5t-36.5 191.5q0 87 21 173q15 63 39 124q32 81 75 141q51 70 122.5 121t161 77.5t192.5 26.5q67 0 145 -10.5t138 -29.5l-56 -244h-180q2 21 2 43q0 72 -22 104.5t-65 32.5q-74 0 -141 -85
t-112 -236t-45 -265q0 -188 137 -188q69 0 130.5 31t139.5 104zM825 1391l-52 -245h-259l55 245h256z" />
    <glyph glyph-name="Ccaron" unicode="&#x10c;" horiz-adv-x="1130" 
d="M1241 1332l-64 -292h-131q-3 89 -18 134t-47 67.5t-87 22.5q-44 0 -91 -19.5t-93 -61.5q-53 -49 -100.5 -125.5t-85.5 -176.5q-30 -81 -55.5 -184t-36 -189t-10.5 -153q0 -84 15.5 -139t54 -85t106.5 -30q75 0 128.5 25.5t92 73.5t75.5 132h131l-64 -295
q-97 -28 -193 -40.5t-206 -12.5q-213 0 -327 116.5t-114 335.5q0 66 12 153q20 134 62 255q48 138 121 240t164 167.5t197.5 97.5t227.5 32q92 0 174.5 -12.5t161.5 -36.5zM756 1474l-153 262l72 56l183 -167h10l271 167l57 -70l-275 -248h-165z" />
    <glyph glyph-name="ccaron" unicode="&#x10d;" horiz-adv-x="926" 
d="M759 265l81 -87q-105 -105 -210 -149.5t-231 -44.5q-103 0 -176 44t-109.5 125.5t-36.5 191.5q0 87 21 173q15 63 39 124q32 81 75 141q51 70 122.5 121t161 77.5t192.5 26.5q67 0 145 -10.5t138 -29.5l-56 -244h-180q2 21 2 43q0 72 -22 104.5t-65 32.5q-74 0 -141 -85
t-112 -236t-45 -265q0 -188 137 -188q69 0 130.5 31t139.5 104zM544 1103l-131 332l90 48l146 -218h10l269 218l66 -68l-281 -312h-169z" />
    <glyph glyph-name="Dcaron" unicode="&#x10e;" horiz-adv-x="1390" 
d="M6 0l14 66q42 12 64.5 33t38.5 59.5t32 111.5l182 825q13 59 13 117q0 42 -19.5 61.5t-63.5 25.5l14 66h405q143 0 233 -13t158 -42q44 -20 95 -53t92.5 -90t63.5 -136t22 -176q0 -133 -30 -255t-88.5 -225.5t-140 -178t-163.5 -116t-185 -61t-244 -19.5h-493zM420 122
q46 -4 74 -4q129 0 222.5 51t166 155.5t114 255t41.5 302.5q0 103 -23 173t-63.5 113t-94 61.5t-113.5 18.5q-50 0 -77 -2zM812 1474l-153 262l72 56l183 -167h10l271 167l57 -70l-275 -248h-165z" />
    <glyph glyph-name="dcaron" unicode="&#x10f;" horiz-adv-x="1437" 
d="M863 1130q6 25 14 72t8 71q0 22 -4.5 34.5t-13.5 20.5t-24 12.5t-59 10.5l16 65l299 16h113l-252 -1137q-11 -49 -17 -82.5t-6 -56.5q0 -45 22 -65t78 -25l-11 -66h-384l54 205l-13 4q-68 -88 -126.5 -136.5t-115 -68.5t-130.5 -20q-70 0 -123 33t-84 104.5t-31 181.5
q0 105 24.5 212t72 199.5t120.5 158.5t165.5 100.5t201.5 34.5q89 0 172 -31zM761 622q6 30 11 69.5t5 77.5q0 67 -25 101t-82 34q-93 0 -165 -93.5t-116 -251.5t-44 -283q0 -73 21.5 -109t66.5 -36q66 0 134.5 64.5t110.5 151.5t75 238zM1581 1431q2 -19 2 -42v-14
q0 -67 -16 -117.5t-48.5 -92.5t-80.5 -81t-140 -101l-53 70q73 62 107.5 149t34.5 229h194z" />
    <glyph glyph-name="Dcroat" unicode="&#x110;" horiz-adv-x="1398" 
d="M14 0l14 66q42 12 64.5 33t38.5 59.5t32 111.5l84 382h-165l27 126h166l70 317q13 59 13 117q0 42 -19.5 61.5t-63.5 25.5l14 66h405q143 0 233 -13t158 -42q44 -20 95 -53t92.5 -90t63.5 -136t22 -176q0 -156 -40.5 -294t-115.5 -246q-69 -101 -177 -179
q-94 -69 -208 -101q-125 -35 -310 -35h-493zM572 778h246l-27 -126h-247l-116 -530q46 -4 74 -4q129 0 222.5 51t166 155.5t114 255t41.5 302.5q0 103 -23 173t-63.5 113t-94 61.5t-113.5 18.5q-50 0 -77 -2z" />
    <glyph glyph-name="dcroat" unicode="&#x111;" horiz-adv-x="1167" 
d="M1265 1121h-122l-183 -826q-11 -50 -17 -83.5t-6 -55.5q0 -45 22 -65t78 -25l-11 -66h-384l54 205l-13 4q-68 -88 -126.5 -136.5t-115 -68.5t-130.5 -20q-70 0 -123 33t-84 104.5t-31 181.5q0 105 24.5 212t72 199.5t120.5 158.5t165.5 100.5t201.5 34.5q89 0 172 -31
l34 144h-330l24 112h330q4 18 4 40q0 28 -9.5 44t-30 23.5t-67.5 10.5l16 65l299 16h113l-44 -199h121zM760 622q16 74 16 145t-24.5 104t-81.5 33q-37 0 -68.5 -12t-62 -39.5t-62.5 -80.5q-39 -66 -68.5 -150t-46.5 -176.5t-17 -169.5q0 -73 21.5 -109t66.5 -36
q65 0 132.5 63t109.5 148t77 243z" />
    <glyph glyph-name="Emacron" unicode="&#x112;" horiz-adv-x="1150" 
d="M1252 1365l-71 -322h-128q-5 95 -18 133t-40 55t-76 17h-251l-106 -480h139q40 0 67.5 13t51 43.5t46.5 84.5h110l-96 -406h-103q0 58 -7 89t-26 45t-65 14h-142l-118 -534h225q44 0 68.5 6t45 19t47.5 41.5t53.5 72t54.5 104.5h136l-92 -360h-951l14 66q42 12 64.5 33
t38.5 59.5t32 111.5l182 825q13 59 13 117q0 42 -19.5 61.5t-63.5 25.5l14 66h971zM1099 1530h-565l34 154h565z" />
    <glyph glyph-name="emacron" unicode="&#x113;" horiz-adv-x="1021" 
d="M910 208q-101 -114 -217.5 -169t-252.5 -55q-117 0 -199 41t-123.5 121.5t-41.5 192.5q0 52 14 133q19 110 58 196q49 106 128 182t185.5 117t233.5 41q150 0 228 -54.5t78 -166.5q0 -76 -30.5 -134t-101.5 -105t-200.5 -76t-312.5 -33q-13 -59 -13 -122q0 -37 7 -70.5
t25 -59.5t48 -41.5t77 -15.5q88 0 159 35.5t167 126.5zM380 544q184 5 281.5 70.5t97.5 185.5q0 51 -23.5 77.5t-65.5 26.5q-93 0 -167.5 -92t-122.5 -268zM955 1192h-535l34 154h535z" />
    <glyph glyph-name="Ebreve" unicode="&#x114;" horiz-adv-x="1150" 
d="M1252 1365l-71 -322h-128q-5 95 -18 133t-40 55t-76 17h-251l-106 -480h139q40 0 67.5 13t51 43.5t46.5 84.5h110l-96 -406h-103q0 58 -7 89t-26 45t-65 14h-142l-118 -534h225q44 0 68.5 6t45 19t47.5 41.5t53.5 72t54.5 104.5h136l-92 -360h-951l14 66q42 12 64.5 33
t38.5 59.5t32 111.5l182 825q13 59 13 117q0 42 -19.5 61.5t-63.5 25.5l14 66h971zM1183 1741q-69 -128 -161.5 -195t-224.5 -67q-238 0 -246 299l99 18q13 -78 54 -117.5t114 -39.5q93 0 154.5 35t123.5 116z" />
    <glyph glyph-name="ebreve" unicode="&#x115;" horiz-adv-x="1021" 
d="M910 208q-101 -114 -217.5 -169t-252.5 -55q-117 0 -199 41t-123.5 121.5t-41.5 192.5q0 52 14 133q19 110 58 196q49 106 128 182t185.5 117t233.5 41q150 0 228 -54.5t78 -166.5q0 -76 -30.5 -134t-101.5 -105t-200.5 -76t-312.5 -33q-13 -59 -13 -122q0 -37 7 -70.5
t25 -59.5t48 -41.5t77 -15.5q88 0 159 35.5t167 126.5zM380 544q184 5 281.5 70.5t97.5 185.5q0 51 -23.5 77.5t-65.5 26.5q-93 0 -167.5 -92t-122.5 -268zM1044 1391q-67 -129 -159 -195.5t-218 -66.5q-117 0 -178 76t-62 223l99 18q12 -76 50 -116.5t112 -40.5
q90 0 149.5 35t119.5 116z" />
    <glyph glyph-name="Edotaccent" unicode="&#x116;" horiz-adv-x="1150" 
d="M1252 1365l-71 -322h-128q-5 95 -18 133t-40 55t-76 17h-251l-106 -480h139q40 0 67.5 13t51 43.5t46.5 84.5h110l-96 -406h-103q0 58 -7 89t-26 45t-65 14h-142l-118 -534h225q44 0 68.5 6t45 19t47.5 41.5t53.5 72t54.5 104.5h136l-92 -360h-951l14 66q42 12 64.5 33
t38.5 59.5t32 111.5l182 825q13 59 13 117q0 42 -19.5 61.5t-63.5 25.5l14 66h971zM990 1734l-52 -245h-259l55 245h256z" />
    <glyph glyph-name="edotaccent" unicode="&#x117;" horiz-adv-x="1021" 
d="M910 208q-101 -114 -217.5 -169t-252.5 -55q-117 0 -199 41t-123.5 121.5t-41.5 192.5q0 52 14 133q19 110 58 196q49 106 128 182t185.5 117t233.5 41q150 0 228 -54.5t78 -166.5q0 -76 -30.5 -134t-101.5 -105t-200.5 -76t-312.5 -33q-13 -59 -13 -122q0 -37 7 -70.5
t25 -59.5t48 -41.5t77 -15.5q88 0 159 35.5t167 126.5zM380 544q184 5 281.5 70.5t97.5 185.5q0 51 -23.5 77.5t-65.5 26.5q-93 0 -167.5 -92t-122.5 -268zM860 1391l-52 -245h-259l55 245h256z" />
    <glyph glyph-name="Eogonek" unicode="&#x118;" horiz-adv-x="1150" 
d="M762 0h-756l14 66q42 12 64.5 33t38.5 59.5t32 111.5l182 825q13 59 13 117q0 42 -19.5 61.5t-63.5 25.5l14 66h971l-71 -322h-128q-5 95 -18 133t-40 55t-76 17h-251l-106 -480h139q40 0 67.5 13t51 43.5t46.5 84.5h110l-96 -406h-103q0 58 -7 89t-26 45t-65 14h-142
l-118 -534h225q44 0 68.5 6t45 19t47.5 41.5t53.5 72t54.5 104.5h136l-92 -360h-67q-103 -85 -148 -144t-45 -108q0 -33 18 -51.5t51 -18.5q52 0 100 32l21 -89q-35 -24 -84.5 -40.5t-94.5 -16.5q-87 0 -133 41.5t-46 120.5q0 23 6.5 45.5t22 49t42.5 55.5t67 59.5t95 64.5z
" />
    <glyph glyph-name="eogonek" unicode="&#x119;" horiz-adv-x="1021" 
d="M356 439q-13 -59 -13 -122q0 -37 7 -70.5t25 -59.5t48 -41.5t77 -15.5q86 0 157 35t169 127l84 -84q-55 -61 -112 -104q-60 -52 -105 -93t-74.5 -74t-48 -61t-28 -49.5t-13.5 -40.5t-4 -38q0 -33 18 -51.5t51 -18.5q52 0 100 32l21 -89q-35 -24 -84.5 -40.5t-94.5 -16.5
q-87 0 -133 41.5t-46 120.5q0 64 56.5 135.5t157.5 136.5q-62 -14 -131 -14q-117 0 -199 41t-123.5 121.5t-41.5 192.5q0 52 14 133q19 110 58 196q49 106 128 182t185.5 117t233.5 41q150 0 228 -54.5t78 -166.5q0 -76 -30.5 -134t-101.5 -105t-200.5 -76t-312.5 -33z
M380 544q184 5 281.5 70.5t97.5 185.5q0 51 -23.5 77.5t-65.5 26.5q-93 0 -167.5 -92t-122.5 -268z" />
    <glyph glyph-name="Ecaron" unicode="&#x11a;" horiz-adv-x="1150" 
d="M1252 1365l-71 -322h-128q-5 95 -18 133t-40 55t-76 17h-251l-106 -480h139q40 0 67.5 13t51 43.5t46.5 84.5h110l-96 -406h-103q0 58 -7 89t-26 45t-65 14h-142l-118 -534h225q44 0 68.5 6t45 19t47.5 41.5t53.5 72t54.5 104.5h136l-92 -360h-951l14 66q42 12 64.5 33
t38.5 59.5t32 111.5l182 825q13 59 13 117q0 42 -19.5 61.5t-63.5 25.5l14 66h971zM717 1474l-153 262l72 56l183 -167h10l271 167l57 -70l-275 -248h-165z" />
    <glyph glyph-name="ecaron" unicode="&#x11b;" horiz-adv-x="1021" 
d="M910 208q-101 -114 -217.5 -169t-252.5 -55q-117 0 -199 41t-123.5 121.5t-41.5 192.5q0 52 14 133q19 110 58 196q49 106 128 182t185.5 117t233.5 41q150 0 228 -54.5t78 -166.5q0 -76 -30.5 -134t-101.5 -105t-200.5 -76t-312.5 -33q-13 -59 -13 -122q0 -37 7 -70.5
t25 -59.5t48 -41.5t77 -15.5q88 0 159 35.5t167 126.5zM380 544q184 5 281.5 70.5t97.5 185.5q0 51 -23.5 77.5t-65.5 26.5q-93 0 -167.5 -92t-122.5 -268zM580 1103l-131 332l90 48l146 -218h10l269 218l66 -68l-281 -312h-169z" />
    <glyph glyph-name="Gcircumflex" unicode="&#x11c;" horiz-adv-x="1268" 
d="M807 371q8 37 10 61.5t2 44.5q0 41 -19 61.5t-65 26.5l14 66h488l-14 -66q-39 -13 -58 -31.5t-34 -54t-33 -118.5l-77 -345l-138 -32l-53 71q-131 -71 -273 -71q-210 0 -322.5 118t-112.5 341q0 109 30 247t83 250.5t124 196t157 138t180.5 80.5t203.5 26q212 0 380 -57
l-61 -286h-131q0 87 -18.5 135.5t-56.5 69.5t-102 21q-63 0 -118 -26q-64 -31 -120 -95q-66 -75 -119 -195q-58 -130 -100 -305q-36 -154 -36 -289q0 -126 41.5 -189.5t125.5 -63.5q50 0 85 17.5t59.5 46.5t39.5 66.5t24 76.5zM1019 1785l153 -262l-72 -56l-183 167h-10
l-271 -167l-57 70l275 248h165z" />
    <glyph glyph-name="gcircumflex" unicode="&#x11d;" horiz-adv-x="1157" 
d="M152 -83q-27 -33 -37.5 -62t-10.5 -63q0 -68 47.5 -101.5t142.5 -33.5q70 0 126 23t103 75.5t87.5 156t77.5 278.5l-13 9q-65 -82 -120.5 -128t-112.5 -66.5t-130 -20.5q-69 0 -122.5 33t-85 104.5t-31.5 181.5q0 137 40 270.5t113.5 229.5t183 150.5t250.5 54.5
q71 0 130.5 -15.5t121.5 -56.5l90 72l112 -16l-86 -391q-21 -96 -38 -184l-63 -308q-26 -125 -53 -205q-24 -70 -53 -119q-26 -46 -61 -82q-34 -36 -73 -61q-41 -27 -91 -45q-57 -21 -127 -32q-75 -12 -171 -12q-140 0 -235.5 25t-142 75.5t-46.5 125.5q0 62 44 117t130 105
zM761 623q16 74 16 144q0 69 -25 103t-82 34q-90 0 -162 -90t-117.5 -250t-45.5 -288q0 -73 21.5 -109t66.5 -36q43 0 87 27.5t92.5 85t81.5 138.5t59 204zM885 1468l131 -332l-90 -48l-146 218h-10l-269 -218l-66 68l281 312h169z" />
    <glyph glyph-name="Gbreve" unicode="&#x11e;" horiz-adv-x="1268" 
d="M807 371q8 37 10 61.5t2 44.5q0 41 -19 61.5t-65 26.5l14 66h488l-14 -66q-39 -13 -58 -31.5t-34 -54t-33 -118.5l-77 -345l-138 -32l-53 71q-131 -71 -273 -71q-210 0 -322.5 118t-112.5 341q0 109 30 247t83 250.5t124 196t157 138t180.5 80.5t203.5 26q212 0 380 -57
l-61 -286h-131q0 87 -18.5 135.5t-56.5 69.5t-102 21q-63 0 -118 -26q-64 -31 -120 -95q-66 -75 -119 -195q-58 -130 -100 -305q-36 -154 -36 -289q0 -126 41.5 -189.5t125.5 -63.5q50 0 85 17.5t59.5 46.5t39.5 66.5t24 76.5zM1242 1741q-69 -128 -161.5 -195t-224.5 -67
q-238 0 -246 299l99 18q13 -78 54 -117.5t114 -39.5q93 0 154.5 35t123.5 116z" />
    <glyph glyph-name="gbreve" unicode="&#x11f;" horiz-adv-x="1157" 
d="M152 -83q-27 -33 -37.5 -62t-10.5 -63q0 -68 47.5 -101.5t142.5 -33.5q70 0 126 23t103 75.5t87.5 156t77.5 278.5l-13 9q-65 -82 -120.5 -128t-112.5 -66.5t-130 -20.5q-69 0 -122.5 33t-85 104.5t-31.5 181.5q0 137 40 270.5t113.5 229.5t183 150.5t250.5 54.5
q71 0 130.5 -15.5t121.5 -56.5l90 72l112 -16l-86 -391q-21 -96 -38 -184l-63 -308q-26 -125 -53 -205q-24 -70 -53 -119q-26 -46 -61 -82q-34 -36 -73 -61q-41 -27 -91 -45q-57 -21 -127 -32q-75 -12 -171 -12q-140 0 -235.5 25t-142 75.5t-46.5 125.5q0 62 44 117t130 105
zM761 623q16 74 16 144q0 69 -25 103t-82 34q-90 0 -162 -90t-117.5 -250t-45.5 -288q0 -73 21.5 -109t66.5 -36q43 0 87 27.5t92.5 85t81.5 138.5t59 204zM1092 1391q-67 -129 -159 -195.5t-218 -66.5q-117 0 -178 76t-62 223l99 18q12 -76 50 -116.5t112 -40.5
q90 0 149.5 35t119.5 116z" />
    <glyph glyph-name="Gdotaccent" unicode="&#x120;" horiz-adv-x="1268" 
d="M807 371q8 37 10 61.5t2 44.5q0 41 -19 61.5t-65 26.5l14 66h488l-14 -66q-39 -13 -58 -31.5t-34 -54t-33 -118.5l-77 -345l-138 -32l-53 71q-131 -71 -273 -71q-210 0 -322.5 118t-112.5 341q0 109 30 247t83 250.5t124 196t157 138t180.5 80.5t203.5 26q212 0 380 -57
l-61 -286h-131q0 87 -18.5 135.5t-56.5 69.5t-102 21q-63 0 -118 -26q-64 -31 -120 -95q-66 -75 -119 -195q-58 -130 -100 -305q-36 -154 -36 -289q0 -126 41.5 -189.5t125.5 -63.5q50 0 85 17.5t59.5 46.5t39.5 66.5t24 76.5zM1049 1734l-52 -245h-259l55 245h256z" />
    <glyph glyph-name="gdotaccent" unicode="&#x121;" horiz-adv-x="1157" 
d="M152 -83q-27 -33 -37.5 -62t-10.5 -63q0 -68 47.5 -101.5t142.5 -33.5q70 0 126 23t103 75.5t87.5 156t77.5 278.5l-13 9q-65 -82 -120.5 -128t-112.5 -66.5t-130 -20.5q-69 0 -122.5 33t-85 104.5t-31.5 181.5q0 137 40 270.5t113.5 229.5t183 150.5t250.5 54.5
q71 0 130.5 -15.5t121.5 -56.5l90 72l112 -16l-86 -391q-21 -96 -38 -184l-63 -308q-26 -125 -53 -205q-24 -70 -53 -119q-26 -46 -61 -82q-34 -36 -73 -61q-41 -27 -91 -45q-57 -21 -127 -32q-75 -12 -171 -12q-140 0 -235.5 25t-142 75.5t-46.5 125.5q0 62 44 117t130 105
zM761 623q16 74 16 144q0 69 -25 103t-82 34q-90 0 -162 -90t-117.5 -250t-45.5 -288q0 -73 21.5 -109t66.5 -36q43 0 87 27.5t92.5 85t81.5 138.5t59 204zM908 1391l-52 -245h-259l55 245h256z" />
    <glyph glyph-name="uni0122" unicode="&#x122;" horiz-adv-x="1268" 
d="M807 371q8 37 10 61.5t2 44.5q0 41 -19 61.5t-65 26.5l14 66h488l-14 -66q-39 -13 -58 -31.5t-34 -54t-33 -118.5l-77 -345l-138 -32l-53 71q-131 -71 -273 -71q-210 0 -322.5 118t-112.5 341q0 109 30 247t83 250.5t124 196t157 138t180.5 80.5t203.5 26q212 0 380 -57
l-61 -286h-131q0 87 -18.5 135.5t-56.5 69.5t-102 21q-63 0 -118 -26q-64 -31 -120 -95q-66 -75 -119 -195q-58 -130 -100 -305q-36 -154 -36 -289q0 -126 41.5 -189.5t125.5 -63.5q50 0 85 17.5t59.5 46.5t39.5 66.5t24 76.5zM632 -102q2 -17 2 -31q0 -136 -99.5 -211
t-293.5 -86v95q68 9 110 35.5t62.5 71t25.5 126.5h193z" />
    <glyph glyph-name="uni0123" unicode="&#x123;" horiz-adv-x="1157" 
d="M152 -83q-27 -33 -37.5 -62t-10.5 -63q0 -68 47.5 -101.5t142.5 -33.5q70 0 126 23t103 75.5t87.5 156t77.5 278.5l-13 9q-65 -82 -120.5 -128t-112.5 -66.5t-130 -20.5q-69 0 -122.5 33t-85 104.5t-31.5 181.5q0 137 40 270.5t113.5 229.5t183 150.5t250.5 54.5
q71 0 130.5 -15.5t121.5 -56.5l90 72l112 -16l-86 -391q-21 -96 -38 -184l-63 -308q-26 -125 -53 -205q-24 -70 -53 -119q-26 -46 -61 -82q-34 -36 -73 -61q-41 -27 -91 -45q-57 -21 -127 -32q-75 -12 -171 -12q-140 0 -235.5 25t-142 75.5t-46.5 125.5q0 62 44 117t130 105
zM761 623q16 74 16 144q0 69 -25 103t-82 34q-90 0 -162 -90t-117.5 -250t-45.5 -288q0 -73 21.5 -109t66.5 -36q43 0 87 27.5t92.5 85t81.5 138.5t59 204zM613 1118q-3 27 -3 55q0 76 27 132.5t86 109.5t180 129l52 -76q-54 -40 -86 -81.5t-47.5 -92t-16.5 -146.5z" />
    <glyph glyph-name="Hcircumflex" unicode="&#x124;" horiz-adv-x="1415" 
d="M1175 270q-6 -26 -8 -41t-3.5 -32.5t-1.5 -43.5q0 -42 19.5 -61.5t63.5 -25.5l-14 -66h-503l14 66q42 12 64.5 33t38.5 59.5t32 111.5l84 382h-424l-84 -382q-6 -27 -8 -41.5t-3.5 -32t-1.5 -43.5q0 -42 19.5 -61.5t63.5 -25.5l-14 -66h-503l14 66q42 12 64.5 33
t38.5 59.5t32 111.5l182 825q13 59 13 117q0 42 -19.5 61.5t-63.5 25.5l14 66h503l-14 -66q-42 -12 -64.5 -33t-38.5 -59.5t-32 -111.5l-70 -317h424l70 317q13 59 13 117q0 42 -19.5 61.5t-63.5 25.5l14 66h503l-14 -66q-42 -12 -64.5 -33t-38.5 -59.5t-32 -111.5z
M1083 1785l153 -262l-72 -56l-183 167h-10l-271 -167l-57 70l275 248h165z" />
    <glyph glyph-name="hcircumflex" unicode="&#x125;" horiz-adv-x="1187" 
d="M499 821l13 -4q80 98 162.5 144.5t184.5 46.5t161 -57.5t59 -158.5q0 -65 -20 -155l-82 -370q-10 -46 -13.5 -71t-3.5 -43q0 -45 22.5 -63t77.5 -24l-12 -66h-415l125 544q27 116 33 160t6 69q0 45 -19 67t-55 22q-32 0 -70 -24t-85 -75t-75 -108t-45 -142l-110 -513
h-287l253 1130q22 98 22 143q0 22 -4.5 34.5t-13.5 20.5t-24 12.5t-59 10.5l16 65l299 16h113zM971 1798l153 -262l-72 -56l-183 167h-10l-271 -167l-57 70l275 248h165z" />
    <glyph glyph-name="Hbar" unicode="&#x126;" horiz-adv-x="1425" 
d="M1185 270q-6 -26 -8 -41t-3.5 -32.5t-1.5 -43.5q0 -42 19.5 -61.5t63.5 -25.5l-14 -66h-503l14 66q42 12 64.5 33t38.5 59.5t32 111.5l47 212h-434l-47 -212q-7 -32 -10 -55.5t-3 -61.5q0 -42 19.5 -61.5t63.5 -25.5l-14 -66h-503l14 66q42 12 64.5 33t38.5 59.5
t32 111.5l182 825q13 59 13 117q0 42 -19.5 61.5t-63.5 25.5l14 66h503l-14 -66q-42 -12 -64.5 -33t-38.5 -59.5t-32 -111.5l-32 -146h434l32 146q13 59 13 117q0 42 -19.5 61.5t-63.5 25.5l14 66h503l-14 -66q-42 -12 -64.5 -33t-38.5 -59.5t-32 -111.5zM527 608h434
l48 215h-434z" />
    <glyph glyph-name="hbar" unicode="&#x127;" horiz-adv-x="1187" 
d="M200 1233h127q3 24 3 42q0 27 -10 42.5t-29 23t-66 10.5l16 65l299 16h113l-50 -199h329l-24 -112h-334l-75 -300l13 -4q80 98 162.5 144.5t184.5 46.5t161 -57.5t59 -158.5q0 -65 -20 -155l-82 -370q-10 -46 -13.5 -71t-3.5 -43q0 -45 22.5 -63t77.5 -24l-12 -66h-415
l125 544q27 116 33 160t6 69q0 45 -19 67t-55 22q-32 0 -70 -24t-85 -75t-75 -108t-45 -142l-110 -513h-287l251 1121h-126z" />
    <glyph glyph-name="Itilde" unicode="&#x128;" horiz-adv-x="699" 
d="M509 0h-503l14 66q42 12 64.5 33t38.5 59.5t32 111.5l182 825q13 59 13 117q0 42 -19.5 61.5t-63.5 25.5l14 66h503l-14 -66q-42 -12 -64.5 -33t-38.5 -59.5t-32 -111.5l-182 -825q-6 -26 -8 -41t-3.5 -32.5t-1.5 -43.5q0 -42 19.5 -61.5t63.5 -25.5zM875 1749l82 -63
q-55 -83 -97 -128.5t-77 -64t-77 -18.5q-35 0 -61 11.5t-72 48.5l-29 23q-13 10 -24.5 16t-24 9t-28.5 3q-27 0 -47 -9t-43 -33t-54 -71l-82 63q61 89 98.5 130.5t73 61t80.5 19.5q23 0 41.5 -5t36.5 -15.5t49 -35.5q33 -27 47.5 -36.5t28.5 -14t38 -4.5q37 0 68.5 25
t72.5 88z" />
    <glyph glyph-name="itilde" unicode="&#x129;" horiz-adv-x="619" 
d="M407 267q-11 -50 -14 -74t-3 -40q0 -43 22.5 -62t77.5 -25l-11 -66h-416l156 698q13 60 18 93.5t5 56.5q0 39 -18.5 55.5t-77.5 22.5l15 66l293 11h114zM759 1404l82 -63q-55 -83 -97 -128.5t-77 -64t-77 -18.5q-35 0 -61 11.5t-72 48.5l-29 23q-13 10 -24.5 16t-24 9
t-28.5 3q-27 0 -47 -9t-43 -33t-54 -71l-82 63q61 89 98.5 130.5t73 61t80.5 19.5q23 0 41.5 -5t36.5 -15.5t49 -35.5q33 -27 47.5 -36.5t28.5 -14t38 -4.5q37 0 68.5 25t72.5 88z" />
    <glyph glyph-name="Imacron" unicode="&#x12a;" horiz-adv-x="699" 
d="M509 0h-503l14 66q42 12 64.5 33t38.5 59.5t32 111.5l182 825q13 59 13 117q0 42 -19.5 61.5t-63.5 25.5l14 66h503l-14 -66q-42 -12 -64.5 -33t-38.5 -59.5t-32 -111.5l-182 -825q-6 -26 -8 -41t-3.5 -32.5t-1.5 -43.5q0 -42 19.5 -61.5t63.5 -25.5zM863 1530h-565
l34 154h565z" />
    <glyph glyph-name="imacron" unicode="&#x12b;" horiz-adv-x="619" 
d="M407 267q-11 -50 -14 -74t-3 -40q0 -43 22.5 -62t77.5 -25l-11 -66h-416l156 698q13 60 18 93.5t5 56.5q0 39 -18.5 55.5t-77.5 22.5l15 66l293 11h114zM734 1192h-535l34 154h535z" />
    <glyph glyph-name="Ibreve" unicode="&#x12c;" horiz-adv-x="699" 
d="M509 0h-503l14 66q42 12 64.5 33t38.5 59.5t32 111.5l182 825q13 59 13 117q0 42 -19.5 61.5t-63.5 25.5l14 66h503l-14 -66q-42 -12 -64.5 -33t-38.5 -59.5t-32 -111.5l-182 -825q-6 -26 -8 -41t-3.5 -32.5t-1.5 -43.5q0 -42 19.5 -61.5t63.5 -25.5zM947 1741
q-69 -128 -161.5 -195t-224.5 -67q-238 0 -246 299l99 18q13 -78 54 -117.5t114 -39.5q93 0 154.5 35t123.5 116z" />
    <glyph glyph-name="ibreve" unicode="&#x12d;" horiz-adv-x="619" 
d="M407 267q-11 -50 -14 -74t-3 -40q0 -43 22.5 -62t77.5 -25l-11 -66h-416l156 698q13 60 18 93.5t5 56.5q0 39 -18.5 55.5t-77.5 22.5l15 66l293 11h114zM822 1391q-67 -129 -159 -195.5t-218 -66.5q-117 0 -178 76t-62 223l99 18q12 -76 50 -116.5t112 -40.5
q90 0 149.5 35t119.5 116z" />
    <glyph glyph-name="Iogonek" unicode="&#x12e;" horiz-adv-x="699" 
d="M307 0h-301l14 66q42 12 64.5 33t38.5 59.5t32 111.5l182 825q13 59 13 117q0 42 -19.5 61.5t-63.5 25.5l14 66h503l-14 -66q-42 -12 -64.5 -33t-38.5 -59.5t-32 -111.5l-182 -825q-6 -26 -8 -41t-3.5 -32.5t-1.5 -43.5q0 -42 19.5 -61.5t63.5 -25.5l-14 -66h-74
q-103 -85 -148 -144t-45 -108q0 -33 18 -51.5t51 -18.5q52 0 100 32l21 -89q-35 -24 -84.5 -40.5t-94.5 -16.5q-87 0 -133 41.5t-46 120.5q0 23 6.5 45.5t22 49t42.5 55.5t67 59.5t95 64.5z" />
    <glyph glyph-name="iogonek" unicode="&#x12f;" horiz-adv-x="619" 
d="M638 1391l-52 -245h-259l55 245h256zM271 0h-208l156 698q13 60 18 93.5t5 56.5q0 39 -18.5 55.5t-77.5 22.5l15 66l293 11h114l-161 -736q-11 -50 -14 -74t-3 -40q0 -43 22.5 -62t77.5 -25l-11 -66h-80q-103 -85 -148 -144t-45 -108q0 -33 18 -51.5t51 -18.5
q52 0 100 32l21 -89q-35 -24 -84.5 -40.5t-94.5 -16.5q-87 0 -133 41.5t-46 120.5q0 23 6.5 45.5t22 49t42.5 55.5t67 59.5t95 64.5z" />
    <glyph glyph-name="Idotaccent" unicode="&#x130;" horiz-adv-x="699" 
d="M509 0h-503l14 66q42 12 64.5 33t38.5 59.5t32 111.5l182 825q13 59 13 117q0 42 -19.5 61.5t-63.5 25.5l14 66h503l-14 -66q-42 -12 -64.5 -33t-38.5 -59.5t-32 -111.5l-182 -825q-6 -26 -8 -41t-3.5 -32.5t-1.5 -43.5q0 -42 19.5 -61.5t63.5 -25.5zM754 1734l-52 -245
h-259l55 245h256z" />
    <glyph glyph-name="dotlessi" unicode="&#x131;" horiz-adv-x="619" 
d="M407 267q-11 -50 -14 -74t-3 -40q0 -43 22.5 -62t77.5 -25l-11 -66h-416l156 698q13 60 18 93.5t5 56.5q0 39 -18.5 55.5t-77.5 22.5l15 66l293 11h114z" />
    <glyph glyph-name="IJ" unicode="&#x132;" horiz-adv-x="1381" 
d="M509 0h-503l14 66q42 12 64.5 33t38.5 59.5t32 111.5l182 825q13 59 13 117q0 42 -19.5 61.5t-63.5 25.5l14 66h503l-14 -66q-42 -12 -64.5 -33t-38.5 -59.5t-32 -111.5l-182 -825q-6 -26 -8 -41t-3.5 -32.5t-1.5 -43.5q0 -42 19.5 -61.5t63.5 -25.5zM1103 85
q-53 -239 -178 -355t-332 -116q-55 0 -109 15l29 118q36 -10 72 -10q59 0 94 28t60 88.5t54 189.5l234 1052q13 58 13 117q0 42 -19.5 61.5t-63.5 25.5l14 66h503l-14 -66q-42 -12 -64.5 -33t-38.5 -59.5t-32 -111.5z" />
    <glyph glyph-name="ij" unicode="&#x133;" horiz-adv-x="1227" 
d="M638 1391l-52 -245h-259l55 245h256zM407 267q-11 -50 -14 -74t-3 -40q0 -43 22.5 -62t77.5 -25l-11 -66h-416l156 698q13 60 18 93.5t5 56.5q0 39 -18.5 55.5t-77.5 22.5l15 66l293 11h114zM1257 1391l-52 -245h-259l55 245h256zM975 31q-35 -162 -99 -267t-165 -158
t-246 -53q-47 0 -95 13l27 109q28 -8 66 -8q45 0 73.5 12.5t51.5 43t43 89.5t44 166l162 720q13 56 18 91t5 59q0 39 -18.5 55.5t-77.5 22.5l15 66l293 11h114z" />
    <glyph glyph-name="Jcircumflex" unicode="&#x134;" horiz-adv-x="682" 
d="M404 85q-53 -239 -178 -355t-332 -116q-55 0 -109 15l29 118q36 -10 72 -10q59 0 94 28t60 88.5t54 189.5l234 1052q13 58 13 117q0 42 -19.5 61.5t-63.5 25.5l14 66h503l-14 -66q-42 -12 -64.5 -33t-38.5 -59.5t-32 -111.5zM716 1785l153 -262l-72 -56l-183 167h-10
l-271 -167l-57 70l275 248h165z" />
    <glyph glyph-name="jcircumflex" unicode="&#x135;" horiz-adv-x="608" 
d="M611 1468l131 -332l-90 -48l-146 218h-10l-269 -218l-66 68l281 312h169zM358 43q-55 -251 -180.5 -370.5t-331.5 -119.5q-47 0 -95 13l27 109q28 -8 66 -8q57 0 92 22t59 73t48 156l175 780q13 58 18 92t5 58q0 39 -18.5 55.5t-77.5 22.5l15 66l293 11h114z" />
    <glyph glyph-name="uni0136" unicode="&#x136;" horiz-adv-x="1341" 
d="M560 757h15q38 0 72 13t78.5 48.5t145.5 135.5q89 88 131.5 140t57.5 89q11 27 11 50q0 35 -16 48.5t-53 17.5l15 66h488l-15 -68q-33 -7 -58 -19t-62.5 -43t-111.5 -102l-362 -347l211 -520q26 -63 45 -99.5t37 -57t37 -30t42 -14.5l-13 -65h-500l15 66q27 3 38 14
t11 36q0 24 -10 61.5t-43 122.5l-91 236q-19 49 -35.5 71.5t-35 31.5t-53.5 9h-15l-83 -378q-6 -27 -8 -41.5t-3.5 -32t-1.5 -43.5q0 -42 19.5 -61.5t63.5 -25.5l-14 -66h-503l14 66q42 12 64.5 33t38.5 59.5t32 111.5l182 825q13 59 13 117q0 42 -19.5 61.5t-63.5 25.5
l14 66h503l-14 -66q-42 -12 -64.5 -33t-38.5 -59.5t-32 -111.5zM689 -102q2 -17 2 -31q0 -136 -99.5 -211t-293.5 -86v95q68 9 110 35.5t62.5 71t25.5 126.5h193z" />
    <glyph glyph-name="uni0137" unicode="&#x137;" horiz-adv-x="1102" 
d="M467 590h20q31 0 59.5 9.5t67.5 35t104 77.5q41 33 61.5 59t29 49t8.5 48q0 23 -12.5 39t-44.5 19l16 66h356l25 -65q-62 -68 -167 -148l-225 -169l130 -367q23 -66 40 -99t42 -52t73 -26l-15 -66h-356l-134 432q-10 31 -18.5 43t-21 16.5t-33.5 4.5h-25l-109 -496h-287
l253 1130q22 98 22 143q0 22 -4.5 34.5t-13.5 20.5t-24 12.5t-59 10.5l16 65l299 16h113zM564 -102q2 -17 2 -31q0 -136 -99.5 -211t-293.5 -86v95q68 9 110 35.5t62.5 71t25.5 126.5h193z" />
    <glyph glyph-name="kgreenlandic" unicode="&#x138;" horiz-adv-x="1114" 
d="M479 590h20q31 0 59.5 9.5t67.5 35t104 77.5q41 33 61.5 59t29 49t8.5 48q0 23 -12.5 39t-44.5 19l16 66h356l25 -65q-62 -68 -167 -148l-225 -169l130 -367q23 -66 40 -99t42 -52t73 -26l-15 -66h-356l-134 432q-10 31 -18.5 43t-21 16.5t-33.5 4.5h-25l-109 -496h-287
l158 701q22 98 22 143q0 42 -19 59.5t-77 22.5l15 66l292 11h116z" />
    <glyph glyph-name="Lacute" unicode="&#x139;" horiz-adv-x="1088" 
d="M608 119q49 0 76 8t49 25t48.5 47t52.5 78t53 120h136l-102 -397h-915l14 66q42 12 64.5 33t38.5 59.5t32 111.5l182 825q13 59 13 117q0 42 -19.5 61.5t-63.5 25.5l14 66h503l-14 -66q-42 -12 -64.5 -33t-38.5 -59.5t-32 -111.5l-216 -976h189zM1133 1798l-15 -66
l-454 -264l-59 77l269 253h259z" />
    <glyph glyph-name="lacute" unicode="&#x13a;" horiz-adv-x="608" 
d="M540 1432h113l-258 -1165q-10 -46 -13.5 -71t-3.5 -43q0 -43 22.5 -62t77.5 -25l-11 -66h-416l253 1130q22 98 22 143q0 22 -4.5 34.5t-13.5 20.5t-24 12.5t-59 10.5l16 65zM895 1811l-15 -66l-454 -264l-59 77l269 253h259z" />
    <glyph glyph-name="uni013B" unicode="&#x13b;" horiz-adv-x="1088" 
d="M608 119q49 0 76 8t49 25t48.5 47t52.5 78t53 120h136l-102 -397h-915l14 66q42 12 64.5 33t38.5 59.5t32 111.5l182 825q13 59 13 117q0 42 -19.5 61.5t-63.5 25.5l14 66h503l-14 -66q-42 -12 -64.5 -33t-38.5 -59.5t-32 -111.5l-216 -976h189zM552 -102q2 -17 2 -31
q0 -136 -99.5 -211t-293.5 -86v95q68 9 110 35.5t62.5 71t25.5 126.5h193z" />
    <glyph glyph-name="uni013C" unicode="&#x13c;" horiz-adv-x="608" 
d="M540 1432h113l-258 -1165q-10 -46 -13.5 -71t-3.5 -43q0 -43 22.5 -62t77.5 -25l-11 -66h-416l253 1130q22 98 22 143q0 22 -4.5 34.5t-13.5 20.5t-24 12.5t-59 10.5l16 65zM295 -102q2 -17 2 -31q0 -136 -99.5 -211t-293.5 -86v95q68 9 110 35.5t62.5 71t25.5 126.5h193
z" />
    <glyph glyph-name="Lcaron" unicode="&#x13d;" horiz-adv-x="1088" 
d="M608 119q49 0 76 8t49 25t48.5 47t52.5 78t53 120h136l-102 -397h-915l14 66q42 12 64.5 33t38.5 59.5t32 111.5l182 825q13 59 13 117q0 42 -19.5 61.5t-63.5 25.5l14 66h503l-14 -66q-42 -12 -64.5 -33t-38.5 -59.5t-32 -111.5l-216 -976h189zM1137 1431q2 -19 2 -42
v-14q0 -67 -16 -117.5t-48.5 -92.5t-80.5 -81t-140 -101l-53 70q73 62 107.5 149t34.5 229h194z" />
    <glyph glyph-name="lcaron" unicode="&#x13e;" horiz-adv-x="878" 
d="M540 1432h113l-258 -1165q-10 -46 -13.5 -71t-3.5 -43q0 -43 22.5 -62t77.5 -25l-11 -66h-416l253 1130q22 98 22 143q0 22 -4.5 34.5t-13.5 20.5t-24 12.5t-59 10.5l16 65zM1022 1431q2 -19 2 -42v-14q0 -67 -16 -117.5t-48.5 -92.5t-80.5 -81t-140 -101l-53 70
q73 62 107.5 149t34.5 229h194z" />
    <glyph glyph-name="Ldot" unicode="&#x13f;" horiz-adv-x="1323" 
d="M608 119q49 0 76 8t49 25t48.5 47t52.5 78t53 120h136l-102 -397h-915l14 66q42 12 64.5 33t38.5 59.5t32 111.5l182 825q13 59 13 117q0 42 -19.5 61.5t-63.5 25.5l14 66h503l-14 -66q-42 -12 -64.5 -33t-38.5 -59.5t-32 -111.5l-216 -976h189zM1377 817l-52 -245h-239
l55 245h236z" />
    <glyph glyph-name="ldot" unicode="&#x140;" horiz-adv-x="862" 
d="M540 1432h113l-258 -1165q-10 -46 -13.5 -71t-3.5 -43q0 -43 22.5 -62t77.5 -25l-11 -66h-416l253 1130q22 98 22 143q0 22 -4.5 34.5t-13.5 20.5t-24 12.5t-59 10.5l16 65zM912 817l-52 -245h-239l55 245h236z" />
    <glyph glyph-name="Lslash" unicode="&#x141;" horiz-adv-x="1094" 
d="M614 119q49 0 76 8t49 25t48.5 47t52.5 78t53 120h136l-102 -397h-915l14 66q42 12 64.5 33t38.5 59.5t32 111.5l66 294l-136 -83l-53 107l220 121l85 386q13 59 13 117q0 42 -19.5 61.5t-63.5 25.5l14 66h503l-14 -66q-42 -12 -64.5 -33t-38.5 -59.5t-32 -111.5
l-53 -232l287 167l56 -104l-373 -205l-133 -602h189z" />
    <glyph glyph-name="lslash" unicode="&#x142;" horiz-adv-x="684" 
d="M543 771l-111 -504q-11 -48 -14 -72.5t-3 -41.5q0 -43 22.5 -62t77.5 -25l-11 -66h-416l142 623l-141 -85l-54 102l224 123l82 367q22 98 22 143q0 22 -4.5 34.5t-13.5 20.5t-24 12.5t-59 10.5l16 65l299 16h113l-118 -522l153 92l55 -101z" />
    <glyph glyph-name="Nacute" unicode="&#x143;" horiz-adv-x="1355" 
d="M280 1365h380l193 -566q79 -231 125 -408h13q29 173 76 383l70 321q13 60 13 117q0 42 -19.5 61.5t-63.5 25.5l14 66h368l-14 -66q-42 -12 -64.5 -33t-38.5 -59.5t-32 -111.5l-241 -1095h-228l-240 699q-28 82 -50 153.5t-53 181.5l-15 1q-8 -67 -30.5 -184.5
t-53.5 -254.5l-72 -326q-6 -26 -8 -41t-3.5 -32.5t-1.5 -43.5q0 -42 19.5 -61.5t63.5 -25.5l-14 -66h-368l14 66q42 12 64.5 33t38.5 59.5t32 111.5l182 825q13 59 13 117q0 42 -19.5 61.5t-63.5 25.5zM1281 1798l-15 -66l-454 -264l-59 77l269 253h259z" />
    <glyph glyph-name="nacute" unicode="&#x144;" horiz-adv-x="1199" 
d="M1060 0h-415l125 544q27 116 33 160t6 69q0 45 -19 67t-55 22q-32 0 -70 -24t-85 -75t-75 -108t-45 -142l-110 -513h-287l157 706q5 24 13.5 68.5t8.5 74.5q0 42 -23.5 57.5t-73.5 19.5l15 66l275 11h105l-57 -216l12 -4q69 85 128 133.5t117.5 70t129.5 21.5
q103 0 162 -57.5t59 -158.5q0 -65 -20 -155l-82 -370q-10 -46 -13.5 -71t-3.5 -43q0 -45 22.5 -63t77.5 -24zM1094 1475l-14 -66l-410 -322l-71 72l267 316h228z" />
    <glyph glyph-name="uni0145" unicode="&#x145;" horiz-adv-x="1355" 
d="M280 1365h380l193 -566q79 -231 125 -408h13q29 173 76 383l70 321q13 60 13 117q0 42 -19.5 61.5t-63.5 25.5l14 66h368l-14 -66q-42 -12 -64.5 -33t-38.5 -59.5t-32 -111.5l-241 -1095h-228l-240 699q-28 82 -50 153.5t-53 181.5l-15 1q-8 -67 -30.5 -184.5
t-53.5 -254.5l-72 -326q-6 -26 -8 -41t-3.5 -32.5t-1.5 -43.5q0 -42 19.5 -61.5t63.5 -25.5l-14 -66h-368l14 66q42 12 64.5 33t38.5 59.5t32 111.5l182 825q13 59 13 117q0 42 -19.5 61.5t-63.5 25.5zM670 -102q2 -17 2 -31q0 -136 -99.5 -211t-293.5 -86v95q68 9 110 35.5
t62.5 71t25.5 126.5h193z" />
    <glyph glyph-name="uni0146" unicode="&#x146;" horiz-adv-x="1199" 
d="M1060 0h-415l125 544q27 116 33 160t6 69q0 45 -19 67t-55 22q-32 0 -70 -24t-85 -75t-75 -108t-45 -142l-110 -513h-287l157 706q5 24 13.5 68.5t8.5 74.5q0 42 -23.5 57.5t-73.5 19.5l15 66l275 11h105l-57 -216l12 -4q69 85 128 133.5t117.5 70t129.5 21.5
q103 0 162 -57.5t59 -158.5q0 -65 -20 -155l-82 -370q-10 -46 -13.5 -71t-3.5 -43q0 -45 22.5 -63t77.5 -24zM582 -102q2 -17 2 -31q0 -136 -99.5 -211t-293.5 -86v95q68 9 110 35.5t62.5 71t25.5 126.5h193z" />
    <glyph glyph-name="Ncaron" unicode="&#x147;" horiz-adv-x="1355" 
d="M280 1365h380l193 -566q79 -231 125 -408h13q29 173 76 383l70 321q13 60 13 117q0 42 -19.5 61.5t-63.5 25.5l14 66h368l-14 -66q-42 -12 -64.5 -33t-38.5 -59.5t-32 -111.5l-241 -1095h-228l-240 699q-28 82 -50 153.5t-53 181.5l-15 1q-8 -67 -30.5 -184.5
t-53.5 -254.5l-72 -326q-6 -26 -8 -41t-3.5 -32.5t-1.5 -43.5q0 -42 19.5 -61.5t63.5 -25.5l-14 -66h-368l14 66q42 12 64.5 33t38.5 59.5t32 111.5l182 825q13 59 13 117q0 42 -19.5 61.5t-63.5 25.5zM825 1474l-153 262l72 56l183 -167h10l271 167l57 -70l-275 -248h-165z
" />
    <glyph glyph-name="ncaron" unicode="&#x148;" horiz-adv-x="1199" 
d="M1060 0h-415l125 544q27 116 33 160t6 69q0 45 -19 67t-55 22q-32 0 -70 -24t-85 -75t-75 -108t-45 -142l-110 -513h-287l157 706q5 24 13.5 68.5t8.5 74.5q0 42 -23.5 57.5t-73.5 19.5l15 66l275 11h105l-57 -216l12 -4q69 85 128 133.5t117.5 70t129.5 21.5
q103 0 162 -57.5t59 -158.5q0 -65 -20 -155l-82 -370q-10 -46 -13.5 -71t-3.5 -43q0 -45 22.5 -63t77.5 -24zM649 1103l-131 332l90 48l146 -218h10l269 218l66 -68l-281 -312h-169z" />
    <glyph glyph-name="napostrophe" unicode="&#x149;" horiz-adv-x="1500" 
d="M590 1432q0 -71 -9 -124t-29.5 -100t-59.5 -94.5t-96.5 -95t-137.5 -100.5l-69 94q43 41 65.5 69t39 61.5t33 86.5t24 105.5t9.5 97.5h230zM1361 0h-415l125 544q27 116 33 160t6 69q0 45 -19 67t-55 22q-32 0 -70 -24t-85 -75t-75 -108t-45 -142l-110 -513h-287l157 706
q5 24 13.5 68.5t8.5 74.5q0 42 -23.5 57.5t-73.5 19.5l15 66l275 11h105l-57 -216l12 -4q69 85 128 133.5t117.5 70t129.5 21.5q103 0 162 -57.5t59 -158.5q0 -65 -20 -155l-82 -370q-10 -46 -13.5 -71t-3.5 -43q0 -45 22.5 -63t77.5 -24z" />
    <glyph glyph-name="Eng" unicode="&#x14a;" horiz-adv-x="1355" 
d="M1063 21q-22 -101 -52.5 -173.5t-67.5 -122.5q-34 -44 -75.5 -73t-91.5 -43.5t-125 -14.5q-32 0 -78 8.5t-70 17.5l48 222h116q1 -44 15 -63t45 -19q54 0 94 51.5t71 163.5l7 25h-68l-240 699q-28 82 -50 153.5t-53 181.5l-15 1q-8 -67 -30.5 -184.5t-53.5 -254.5
l-72 -326q-6 -26 -8 -41t-3.5 -32.5t-1.5 -43.5q0 -42 19.5 -61.5t63.5 -25.5l-14 -66h-368l14 66q42 12 64.5 33t38.5 59.5t32 111.5l182 825q13 59 13 117q0 42 -19.5 61.5t-63.5 25.5l14 66h380l193 -566q79 -231 125 -408h13q29 173 76 383l70 321q13 60 13 117
q0 42 -19.5 61.5t-63.5 25.5l14 66h368l-14 -66q-42 -12 -64.5 -33t-38.5 -59.5t-32 -111.5z" />
    <glyph glyph-name="eng" unicode="&#x14b;" horiz-adv-x="1185" 
d="M960 130q-36 -165 -101 -268.5t-165.5 -154t-241.5 -50.5q-47 0 -95 13l27 109q28 -8 66 -8q57 0 91.5 22.5t59.5 77t52 171.5l117 502q23 98 31 148t8 81q0 45 -19 67t-55 22q-32 0 -70 -24t-85 -75t-75 -108t-45 -142l-110 -513h-287l157 706q5 24 13.5 68.5t8.5 74.5
q0 42 -23.5 57.5t-73.5 19.5l15 66l275 11h105l-57 -216l12 -4q69 85 128 133.5t117.5 70t129.5 21.5q103 0 162 -57.5t59 -158.5q0 -65 -20 -155z" />
    <glyph glyph-name="Omacron" unicode="&#x14c;" horiz-adv-x="1383" 
d="M581 -16q-228 0 -344 119.5t-116 351.5q0 79 16 181t54 215.5t105 214.5t157.5 172.5t201.5 107t233 35.5q228 0 345.5 -119t117.5 -346q0 -96 -20.5 -213.5t-67 -236t-114.5 -210.5t-157 -153.5t-191.5 -90t-219.5 -28.5zM422 362q0 -138 40 -199.5t130 -61.5
q48 0 92 22q55 27 105 83q62 69 114 176t86 234q28 103 49 240q12 76 12 150q0 134 -40 196t-132 62q-87 0 -169 -77.5t-148.5 -218.5t-102.5 -316.5t-36 -289.5zM1205 1530h-565l34 154h565z" />
    <glyph glyph-name="omacron" unicode="&#x14d;" horiz-adv-x="1106" 
d="M448 -16q-110 0 -193.5 39.5t-131 120t-47.5 196.5q0 44 6 98q8 68 28 139q23 82 58 146q38 72 88 124.5t108.5 87t127.5 52.5q82 21 172 21q124 0 208 -45.5t124.5 -126.5t40.5 -188q0 -132 -44 -265t-121.5 -223t-183.5 -133t-240 -43zM345 275q0 -94 30.5 -140.5
t96.5 -46.5q37 0 70.5 15.5t66 53t58.5 95t49.5 142t36.5 165.5t13 151q0 100 -30.5 147t-94.5 47q-84 0 -145.5 -81.5t-106 -252t-44.5 -295.5zM978 1192h-535l34 154h535z" />
    <glyph glyph-name="Obreve" unicode="&#x14e;" horiz-adv-x="1383" 
d="M581 -16q-228 0 -344 119.5t-116 351.5q0 79 16 181t54 215.5t105 214.5t157.5 172.5t201.5 107t233 35.5q228 0 345.5 -119t117.5 -346q0 -96 -20.5 -213.5t-67 -236t-114.5 -210.5t-157 -153.5t-191.5 -90t-219.5 -28.5zM422 362q0 -138 40 -199.5t130 -61.5
q48 0 92 22q55 27 105 83q62 69 114 176t86 234q28 103 49 240q12 76 12 150q0 134 -40 196t-132 62q-87 0 -169 -77.5t-148.5 -218.5t-102.5 -316.5t-36 -289.5zM1289 1741q-69 -128 -161.5 -195t-224.5 -67q-238 0 -246 299l99 18q13 -78 54 -117.5t114 -39.5
q93 0 154.5 35t123.5 116z" />
    <glyph glyph-name="obreve" unicode="&#x14f;" horiz-adv-x="1106" 
d="M448 -16q-110 0 -193.5 39.5t-131 120t-47.5 196.5q0 44 6 98q8 68 28 139q23 82 58 146q38 72 88 124.5t108.5 87t127.5 52.5q82 21 172 21q124 0 208 -45.5t124.5 -126.5t40.5 -188q0 -132 -44 -265t-121.5 -223t-183.5 -133t-240 -43zM345 275q0 -94 30.5 -140.5
t96.5 -46.5q37 0 70.5 15.5t66 53t58.5 95t49.5 142t36.5 165.5t13 151q0 100 -30.5 147t-94.5 47q-84 0 -145.5 -81.5t-106 -252t-44.5 -295.5zM1066 1391q-67 -129 -159 -195.5t-218 -66.5q-117 0 -178 76t-62 223l99 18q12 -76 50 -116.5t112 -40.5q90 0 149.5 35
t119.5 116z" />
    <glyph glyph-name="Ohungarumlaut" unicode="&#x150;" horiz-adv-x="1383" 
d="M581 -16q-228 0 -344 119.5t-116 351.5q0 79 16 181t54 215.5t105 214.5t157.5 172.5t201.5 107t233 35.5q228 0 345.5 -119t117.5 -346q0 -96 -20.5 -213.5t-67 -236t-114.5 -210.5t-157 -153.5t-191.5 -90t-219.5 -28.5zM422 362q0 -138 40 -199.5t130 -61.5
q48 0 92 22q55 27 105 83q62 69 114 176t86 234q28 103 49 240q12 76 12 150q0 134 -40 196t-132 62q-87 0 -169 -77.5t-148.5 -218.5t-102.5 -316.5t-36 -289.5zM1065 1798l-15 -66l-391 -264l-59 77l276 253h189zM1432 1798l-15 -66l-414 -264l-59 77l289 253h199z" />
    <glyph glyph-name="ohungarumlaut" unicode="&#x151;" horiz-adv-x="1106" 
d="M448 -16q-110 0 -193.5 39.5t-131 120t-47.5 196.5q0 44 6 98q8 68 28 139q23 82 58 146q38 72 88 124.5t108.5 87t127.5 52.5q82 21 172 21q124 0 208 -45.5t124.5 -126.5t40.5 -188q0 -132 -44 -265t-121.5 -223t-183.5 -133t-240 -43zM345 275q0 -94 30.5 -140.5
t96.5 -46.5q37 0 70.5 15.5t66 53t58.5 95t49.5 142t36.5 165.5t13 151q0 100 -30.5 147t-94.5 47q-84 0 -145.5 -81.5t-106 -252t-44.5 -295.5zM860 1475l-14 -66l-370 -322l-71 72l282 316h173zM1194 1475l-14 -66l-395 -322l-71 72l307 316h173z" />
    <glyph glyph-name="OE" unicode="&#x152;" horiz-adv-x="1878" 
d="M1980 1365l-71 -322h-128q-5 95 -18 133t-40 55t-76 17h-246l-106 -480h134q40 0 67.5 13t51 43.5t46.5 84.5h110l-96 -406h-103q0 58 -7 89t-26 45t-65 14h-137l-118 -534h220q44 0 68.5 6t45 19t47.5 41.5t53.5 72t54.5 104.5h136l-92 -360h-764l28 127h-10
q-79 -73 -167.5 -108t-193.5 -35q-224 0 -340.5 120t-116.5 352q0 123 37 279.5t107.5 280t166 205t205 121t223.5 39.5q77 0 132.5 -13.5t99 -40.5t94.5 -81h10l25 119h759zM423 359q0 -137 37.5 -197.5t121.5 -60.5q82 0 162 71t146.5 207t106 324.5t39.5 307.5
q0 95 -18 150.5t-53 79t-91 23.5q-85 0 -164 -73t-144 -209.5t-104 -310.5t-39 -312z" />
    <glyph glyph-name="oe" unicode="&#x153;" horiz-adv-x="1652" 
d="M1541 208q-101 -114 -217.5 -169t-252.5 -55q-54 0 -94.5 9.5t-72.5 27t-57.5 40.5t-47.5 50h-8q-82 -66 -163.5 -96.5t-179.5 -30.5q-110 0 -193.5 39.5t-131 120t-47.5 196.5q0 47 8 112t31.5 142t61 144.5t86 116.5t109 83.5t130.5 52t149 17.5q96 0 171.5 -36
t127.5 -100h10q94 71 182.5 103.5t185.5 32.5q150 0 227 -55.5t77 -162.5q0 -121 -74.5 -196.5t-219.5 -113t-351 -41.5q-13 -59 -13 -122q0 -37 7 -70.5t25 -59.5t48.5 -41.5t76.5 -15.5q91 0 162 37t164 125zM345 275q0 -94 30.5 -140.5t96.5 -46.5q87 0 149 83.5
t104 253.5t42 288q0 97 -30 144t-95 47q-87 0 -149 -84.5t-105 -254t-43 -290.5zM1011 544q184 5 281.5 70.5t97.5 185.5q0 51 -23.5 77.5t-65.5 26.5q-93 0 -167.5 -92t-122.5 -268z" />
    <glyph glyph-name="Racute" unicode="&#x154;" horiz-adv-x="1294" 
d="M907 625q60 -49 87.5 -94.5t46.5 -132.5l29 -140q16 -76 30.5 -108.5t39 -53t67.5 -30.5l-14 -66h-357q-33 94 -58 223l-32 166q-14 75 -33 118t-48 62t-78 19h-62l-72 -318q-7 -33 -10 -57t-3 -60q0 -46 23.5 -65t73.5 -22l-14 -66h-517l14 66q42 12 64.5 33t38.5 59.5
t32 111.5l182 825q13 59 13 117q0 42 -19.5 61.5t-63.5 25.5l14 66h499q101 0 159.5 -5.5t112 -22t92 -41t66 -58.5t42 -79t14.5 -101q0 -151 -89 -256t-271 -168zM614 705q99 0 163.5 23t107.5 71t66 112t23 144q0 97 -49 145t-155 48q-76 0 -102 -2l-117 -541h63z
M1238 1798l-15 -66l-454 -264l-59 77l269 253h259z" />
    <glyph glyph-name="racute" unicode="&#x155;" horiz-adv-x="934" 
d="M944 720h-179q0 67 -14.5 93t-49.5 26q-16 0 -33.5 -6.5t-40 -23t-54 -53.5t-52.5 -72t-35 -73.5t-26 -97.5l-110 -513h-287l157 706q22 99 22 143q0 42 -23.5 57.5t-73.5 19.5l15 66l275 11h113l-75 -232l12 -4q84 119 177 180t201 61q66 0 140 -19zM961 1475l-14 -66
l-410 -322l-71 72l267 316h228z" />
    <glyph glyph-name="uni0156" unicode="&#x156;" horiz-adv-x="1294" 
d="M907 625q60 -49 87.5 -94.5t46.5 -132.5l29 -140q16 -76 30.5 -108.5t39 -53t67.5 -30.5l-14 -66h-357q-33 94 -58 223l-32 166q-14 75 -33 118t-48 62t-78 19h-62l-72 -318q-7 -33 -10 -57t-3 -60q0 -46 23.5 -65t73.5 -22l-14 -66h-517l14 66q42 12 64.5 33t38.5 59.5
t32 111.5l182 825q13 59 13 117q0 42 -19.5 61.5t-63.5 25.5l14 66h499q101 0 159.5 -5.5t112 -22t92 -41t66 -58.5t42 -79t14.5 -101q0 -151 -89 -256t-271 -168zM614 705q99 0 163.5 23t107.5 71t66 112t23 144q0 97 -49 145t-155 48q-76 0 -102 -2l-117 -541h63z
M672 -102q2 -17 2 -31q0 -136 -99.5 -211t-293.5 -86v95q68 9 110 35.5t62.5 71t25.5 126.5h193z" />
    <glyph glyph-name="uni0157" unicode="&#x157;" horiz-adv-x="934" 
d="M944 720h-179q0 67 -14.5 93t-49.5 26q-16 0 -33.5 -6.5t-40 -23t-54 -53.5t-52.5 -72t-35 -73.5t-26 -97.5l-110 -513h-287l157 706q22 99 22 143q0 42 -23.5 57.5t-73.5 19.5l15 66l275 11h113l-75 -232l12 -4q84 119 177 180t201 61q66 0 140 -19zM305 -102
q2 -17 2 -31q0 -136 -99.5 -211t-293.5 -86v95q68 9 110 35.5t62.5 71t25.5 126.5h193z" />
    <glyph glyph-name="Rcaron" unicode="&#x158;" horiz-adv-x="1294" 
d="M907 625q60 -49 87.5 -94.5t46.5 -132.5l29 -140q16 -76 30.5 -108.5t39 -53t67.5 -30.5l-14 -66h-357q-33 94 -58 223l-32 166q-14 75 -33 118t-48 62t-78 19h-62l-72 -318q-7 -33 -10 -57t-3 -60q0 -46 23.5 -65t73.5 -22l-14 -66h-517l14 66q42 12 64.5 33t38.5 59.5
t32 111.5l182 825q13 59 13 117q0 42 -19.5 61.5t-63.5 25.5l14 66h499q101 0 159.5 -5.5t112 -22t92 -41t66 -58.5t42 -79t14.5 -101q0 -151 -89 -256t-271 -168zM614 705q99 0 163.5 23t107.5 71t66 112t23 144q0 97 -49 145t-155 48q-76 0 -102 -2l-117 -541h63z
M781 1474l-153 262l72 56l183 -167h10l271 167l57 -70l-275 -248h-165z" />
    <glyph glyph-name="rcaron" unicode="&#x159;" horiz-adv-x="934" 
d="M944 720h-179q0 67 -14.5 93t-49.5 26q-16 0 -33.5 -6.5t-40 -23t-54 -53.5t-52.5 -72t-35 -73.5t-26 -97.5l-110 -513h-287l157 706q22 99 22 143q0 42 -23.5 57.5t-73.5 19.5l15 66l275 11h113l-75 -232l12 -4q84 119 177 180t201 61q66 0 140 -19zM516 1103l-131 332
l90 48l146 -218h10l269 218l66 -68l-281 -312h-169z" />
    <glyph glyph-name="Sacute" unicode="&#x15a;" horiz-adv-x="1026" 
d="M185 333q3 -88 27 -138.5t68 -72t116 -21.5q109 0 172 62.5t63 174.5q0 58 -20 102.5t-61.5 86.5t-143.5 117q-95 70 -143.5 155t-48.5 178q0 79 34 155t100.5 132.5t167.5 86.5t236 30q100 0 184 -10.5t173 -37.5l-61 -285h-131q-1 112 -44 164t-139 52
q-105 0 -166 -56.5t-61 -155.5q0 -70 48.5 -132.5t146.5 -133.5q89 -66 137 -118.5t72 -111.5t24 -135q0 -102 -49 -194q-47 -86 -127 -143q-71 -50 -146 -72q-92 -28 -235 -28q-92 0 -192.5 16t-193.5 45l62 288h131zM1101 1798l-15 -66l-454 -264l-59 77l269 253h259z" />
    <glyph glyph-name="sacute" unicode="&#x15b;" horiz-adv-x="906" 
d="M179 280q5 -72 29.5 -115.5t60.5 -60t84 -16.5q79 0 122 38.5t43 108.5q0 42 -14 71t-46 56.5t-104 71.5q-100 60 -145.5 124.5t-45.5 144.5q0 147 110 226t308 79q77 0 165.5 -12.5t161.5 -33.5l-52 -239h-127q-9 93 -47.5 137t-110.5 44q-67 0 -107.5 -34.5
t-40.5 -93.5q0 -37 15.5 -65t49.5 -56t101 -68q106 -63 152 -130t46 -157q0 -102 -54.5 -174t-149 -107t-215.5 -35q-107 0 -199 13t-173 35l56 248h127zM947 1475l-14 -66l-410 -322l-71 72l267 316h228z" />
    <glyph glyph-name="Scircumflex" unicode="&#x15c;" horiz-adv-x="1026" 
d="M185 333q3 -88 27 -138.5t68 -72t116 -21.5q109 0 172 62.5t63 174.5q0 58 -20 102.5t-61.5 86.5t-143.5 117q-95 70 -143.5 155t-48.5 178q0 79 34 155t100.5 132.5t167.5 86.5t236 30q100 0 184 -10.5t173 -37.5l-61 -285h-131q-1 112 -44 164t-139 52
q-105 0 -166 -56.5t-61 -155.5q0 -70 48.5 -132.5t146.5 -133.5q89 -66 137 -118.5t72 -111.5t24 -135q0 -102 -49 -194q-47 -86 -127 -143q-71 -50 -146 -72q-92 -28 -235 -28q-92 0 -192.5 16t-193.5 45l62 288h131zM888 1785l153 -262l-72 -56l-183 167h-10l-271 -167
l-57 70l275 248h165z" />
    <glyph glyph-name="scircumflex" unicode="&#x15d;" horiz-adv-x="906" 
d="M179 280q5 -72 29.5 -115.5t60.5 -60t84 -16.5q79 0 122 38.5t43 108.5q0 42 -14 71t-46 56.5t-104 71.5q-100 60 -145.5 124.5t-45.5 144.5q0 147 110 226t308 79q77 0 165.5 -12.5t161.5 -33.5l-52 -239h-127q-9 93 -47.5 137t-110.5 44q-67 0 -107.5 -34.5
t-40.5 -93.5q0 -37 15.5 -65t49.5 -56t101 -68q106 -63 152 -130t46 -157q0 -102 -54.5 -174t-149 -107t-215.5 -35q-107 0 -199 13t-173 35l56 248h127zM760 1468l131 -332l-90 -48l-146 218h-10l-269 -218l-66 68l281 312h169z" />
    <glyph glyph-name="Scedilla" unicode="&#x15e;" horiz-adv-x="1026" 
d="M185 333q3 -88 27 -138.5t68 -72t116 -21.5q109 0 172 62.5t63 174.5q0 58 -20 102.5t-61.5 86.5t-143.5 117q-95 70 -143.5 155t-48.5 178q0 79 34 155t100.5 132.5t167.5 86.5t236 30q100 0 184 -10.5t173 -37.5l-61 -285h-131q-1 112 -44 164t-139 52
q-105 0 -166 -56.5t-61 -155.5q0 -70 48.5 -132.5t146.5 -133.5q89 -66 137 -118.5t72 -111.5t24 -135q0 -98 -46.5 -188t-132.5 -150.5t-185 -82.5l-107 -66q5 -29 5 -69q0 -135 -100 -209.5t-293 -85.5v95q86 10 136.5 57t53.5 133l10 43l144 87q-10 -1 -21 -1h-21
q-92 0 -192.5 16t-193.5 45l62 288h131z" />
    <glyph glyph-name="scedilla" unicode="&#x15f;" horiz-adv-x="906" 
d="M179 280q5 -72 29.5 -115.5t60.5 -60t84 -16.5q79 0 122 38.5t43 108.5q0 42 -14 71t-46 56.5t-104 71.5q-100 60 -145.5 124.5t-45.5 144.5q0 147 110 226t308 79q77 0 165.5 -12.5t161.5 -33.5l-52 -239h-127q-9 93 -47.5 137t-110.5 44q-67 0 -107.5 -34.5
t-40.5 -93.5q0 -37 15.5 -65t49.5 -56t101 -68q106 -63 152 -130t46 -157q0 -110 -63 -186t-182 -109l-115 -71q5 -29 5 -69q0 -135 -100 -209.5t-293 -85.5v95q86 10 136.5 57t53.5 133l10 43l143 86h-14q-107 0 -199 13t-173 35l56 248h127z" />
    <glyph glyph-name="Scaron" unicode="&#x160;" horiz-adv-x="1026" 
d="M185 333q3 -88 27 -138.5t68 -72t116 -21.5q109 0 172 62.5t63 174.5q0 58 -20 102.5t-61.5 86.5t-143.5 117q-95 70 -143.5 155t-48.5 178q0 79 34 155t100.5 132.5t167.5 86.5t236 30q100 0 184 -10.5t173 -37.5l-61 -285h-131q-1 112 -44 164t-139 52
q-105 0 -166 -56.5t-61 -155.5q0 -70 48.5 -132.5t146.5 -133.5q89 -66 137 -118.5t72 -111.5t24 -135q0 -102 -49 -194q-47 -86 -127 -143q-71 -50 -146 -72q-92 -28 -235 -28q-92 0 -192.5 16t-193.5 45l62 288h131zM645 1474l-153 262l72 56l183 -167h10l271 167l57 -70
l-275 -248h-165z" />
    <glyph glyph-name="scaron" unicode="&#x161;" horiz-adv-x="906" 
d="M179 280q5 -72 29.5 -115.5t60.5 -60t84 -16.5q79 0 122 38.5t43 108.5q0 42 -14 71t-46 56.5t-104 71.5q-100 60 -145.5 124.5t-45.5 144.5q0 147 110 226t308 79q77 0 165.5 -12.5t161.5 -33.5l-52 -239h-127q-9 93 -47.5 137t-110.5 44q-67 0 -107.5 -34.5
t-40.5 -93.5q0 -37 15.5 -65t49.5 -56t101 -68q106 -63 152 -130t46 -157q0 -102 -54.5 -174t-149 -107t-215.5 -35q-107 0 -199 13t-173 35l56 248h127zM502 1103l-131 332l90 48l146 -218h10l269 218l66 -68l-281 -312h-169z" />
    <glyph glyph-name="uni0162" unicode="&#x162;" horiz-adv-x="1234" 
d="M1363 1365l-79 -362h-128q-1 111 -13 155.5t-38.5 67t-74.5 22.5h-89l-215 -978q-6 -27 -8 -41.5t-3.5 -32t-1.5 -43.5q0 -46 23.5 -65t73.5 -22l-14 -66h-531l14 66q44 6 70 26t43.5 59.5t35.5 118.5l215 978h-80q-39 0 -63.5 -7t-42.5 -19.5t-39 -35t-46.5 -61
t-54.5 -101.5h-131l75 341h1102zM615 -102q2 -17 2 -31q0 -136 -99.5 -211t-293.5 -86v95q68 9 110 35.5t62.5 71t25.5 126.5h193z" />
    <glyph glyph-name="uni0162" unicode="&#x21a;" horiz-adv-x="1234" 
d="M1363 1365l-79 -362h-128q-1 111 -13 155.5t-38.5 67t-74.5 22.5h-89l-215 -978q-6 -27 -8 -41.5t-3.5 -32t-1.5 -43.5q0 -46 23.5 -65t73.5 -22l-14 -66h-531l14 66q44 6 70 26t43.5 59.5t35.5 118.5l215 978h-80q-39 0 -63.5 -7t-42.5 -19.5t-39 -35t-46.5 -61
t-54.5 -101.5h-131l75 341h1102zM615 -102q2 -17 2 -31q0 -136 -99.5 -211t-293.5 -86v95q68 9 110 35.5t62.5 71t25.5 126.5h193z" />
    <glyph glyph-name="uni0163" unicode="&#x163;" horiz-adv-x="745" 
d="M732 182q-71 -77 -127 -118t-117 -60.5t-141 -19.5q-81 0 -134.5 29.5t-77.5 79t-24 111.5q0 47 7 89.5t29 139.5l103 434h-135l14 66q62 4 97 20.5t59.5 48.5t46.5 88t49 152h240l-58 -250h243l-27 -125h-245l-111 -457q-7 -30 -13 -59t-10 -55.5t-5.5 -44t-1.5 -31.5
q0 -47 17 -68.5t50 -21.5q45 0 92.5 32t102.5 99zM380 -102q2 -17 2 -31q0 -136 -99.5 -211t-293.5 -86v95q68 9 110 35.5t62.5 71t25.5 126.5h193z" />
    <glyph glyph-name="uni0163" unicode="&#x21b;" horiz-adv-x="745" 
d="M732 182q-71 -77 -127 -118t-117 -60.5t-141 -19.5q-81 0 -134.5 29.5t-77.5 79t-24 111.5q0 47 7 89.5t29 139.5l103 434h-135l14 66q62 4 97 20.5t59.5 48.5t46.5 88t49 152h240l-58 -250h243l-27 -125h-245l-111 -457q-7 -30 -13 -59t-10 -55.5t-5.5 -44t-1.5 -31.5
q0 -47 17 -68.5t50 -21.5q45 0 92.5 32t102.5 99zM380 -102q2 -17 2 -31q0 -136 -99.5 -211t-293.5 -86v95q68 9 110 35.5t62.5 71t25.5 126.5h193z" />
    <glyph glyph-name="Tcaron" unicode="&#x164;" horiz-adv-x="1234" 
d="M1363 1365l-79 -362h-128q-1 111 -13 155.5t-38.5 67t-74.5 22.5h-89l-215 -978q-6 -27 -8 -41.5t-3.5 -32t-1.5 -43.5q0 -46 23.5 -65t73.5 -22l-14 -66h-531l14 66q44 6 70 26t43.5 59.5t35.5 118.5l215 978h-80q-39 0 -63.5 -7t-42.5 -19.5t-39 -35t-46.5 -61
t-54.5 -101.5h-131l75 341h1102zM749 1474l-153 262l72 56l183 -167h10l271 167l57 -70l-275 -248h-165z" />
    <glyph glyph-name="tcaron" unicode="&#x165;" horiz-adv-x="976" 
d="M1114 1431q2 -19 2 -42v-14q0 -70 -16.5 -120t-50 -91.5t-83.5 -79.5t-116 -82l-53 70q66 56 97 136.5t31 222.5h189zM732 182q-71 -77 -127 -118t-117 -60.5t-141 -19.5q-81 0 -134.5 29.5t-77.5 79t-24 111.5q0 55 8.5 102.5t27.5 126.5l103 434h-135l14 66
q80 5 119.5 33t67.5 89t63 187h238l-56 -250h245l-27 -125h-245l-111 -457q-7 -30 -13 -59t-10 -55.5t-5.5 -44t-1.5 -31.5q0 -47 17 -68.5t50 -21.5q45 0 92.5 32t102.5 99z" />
    <glyph glyph-name="Tbar" unicode="&#x166;" horiz-adv-x="1234" 
d="M1045 606h-245l-74 -336q-6 -26 -8 -41t-3.5 -32.5t-1.5 -43.5q0 -46 23.5 -65t73.5 -22l-14 -66h-531l14 66q44 6 70 26t43.5 59.5t35.5 118.5l74 336h-245l27 126h245l114 516h-80q-39 0 -63.5 -7t-42.5 -19.5t-39 -35t-46.5 -61t-54.5 -101.5h-131l75 341h1102
l-79 -362h-128q-1 111 -13 155.5t-38.5 67t-74.5 22.5h-89l-114 -516h245z" />
    <glyph glyph-name="tbar" unicode="&#x167;" horiz-adv-x="772" 
d="M745 182q-71 -77 -127 -118t-117 -60.5t-141 -19.5q-81 0 -134.5 29.5t-77.5 79t-24 111.5q0 40 5.5 82.5t30.5 146.5l11 47h-127l24 112h129l66 275h-135l14 66q80 5 119.5 33t67.5 89t63 187h238l-56 -250h245l-27 -125h-245l-67 -275h213l-24 -112h-216l-17 -70
q-7 -30 -13 -59t-10 -55.5t-5.5 -44t-1.5 -31.5q0 -47 17 -68.5t50 -21.5q45 0 92.5 32t102.5 99z" />
    <glyph glyph-name="Utilde" unicode="&#x168;" horiz-adv-x="1339" 
d="M1160 476q-29 -135 -77.5 -231t-116.5 -152.5t-158 -82.5t-220 -26q-85 0 -160.5 21.5t-131.5 66.5t-88.5 112.5t-32.5 160.5q0 49 7 108t34 181l104 461q13 58 13 117q0 42 -19.5 61.5t-63.5 25.5l14 66h503l-14 -66q-42 -12 -64.5 -33t-38.5 -59.5t-32 -111.5
l-135 -613q-15 -67 -20 -111.5t-5 -85.5q0 -90 44.5 -137t130.5 -47q85 0 142 37t91.5 105.5t58.5 176.5l149 675q9 39 11 66.5t2 50.5q0 42 -19.5 61.5t-63.5 25.5l14 66h426l-14 -66q-44 -13 -66.5 -35t-38 -61t-30.5 -108zM1210 1749l82 -63q-55 -83 -97 -128.5t-77 -64
t-77 -18.5q-35 0 -61 11.5t-72 48.5l-29 23q-13 10 -24.5 16t-24 9t-28.5 3q-27 0 -47 -9t-43 -33t-54 -71l-82 63q61 89 98.5 130.5t73 61t80.5 19.5q23 0 41.5 -5t36.5 -15.5t49 -35.5q33 -27 47.5 -36.5t28.5 -14t38 -4.5q37 0 68.5 25t72.5 88z" />
    <glyph glyph-name="utilde" unicode="&#x169;" horiz-adv-x="1197" 
d="M147 992h415l-125 -544q-27 -116 -33 -160t-6 -69q0 -47 18.5 -68t54.5 -21q20 0 43 9.5t46 28t56 51.5t58 70.5t41.5 80.5t30.5 109l110 513h287l-157 -706q-5 -24 -13.5 -68.5t-8.5 -74.5q0 -42 23.5 -57.5t73.5 -19.5l-15 -66h-377l54 205l-12 4
q-93 -116 -179.5 -170.5t-196.5 -54.5q-101 0 -160 57.5t-59 158.5q0 65 20 155l82 370q10 46 13.5 71t3.5 43q0 44 -22 62t-78 25zM1048 1404l82 -63q-55 -83 -97 -128.5t-77 -64t-77 -18.5q-35 0 -61 11.5t-72 48.5l-29 23q-13 10 -24.5 16t-24 9t-28.5 3q-27 0 -47 -9
t-43 -33t-54 -71l-82 63q61 89 98.5 130.5t73 61t80.5 19.5q23 0 41.5 -5t36.5 -15.5t49 -35.5q33 -27 47.5 -36.5t28.5 -14t38 -4.5q37 0 68.5 25t72.5 88z" />
    <glyph glyph-name="Umacron" unicode="&#x16a;" horiz-adv-x="1339" 
d="M1160 476q-29 -135 -77.5 -231t-116.5 -152.5t-158 -82.5t-220 -26q-85 0 -160.5 21.5t-131.5 66.5t-88.5 112.5t-32.5 160.5q0 49 7 108t34 181l104 461q13 58 13 117q0 42 -19.5 61.5t-63.5 25.5l14 66h503l-14 -66q-42 -12 -64.5 -33t-38.5 -59.5t-32 -111.5
l-135 -613q-15 -67 -20 -111.5t-5 -85.5q0 -90 44.5 -137t130.5 -47q85 0 142 37t91.5 105.5t58.5 176.5l149 675q9 39 11 66.5t2 50.5q0 42 -19.5 61.5t-63.5 25.5l14 66h426l-14 -66q-44 -13 -66.5 -35t-38 -61t-30.5 -108zM1198 1530h-565l34 154h565z" />
    <glyph glyph-name="umacron" unicode="&#x16b;" horiz-adv-x="1197" 
d="M147 992h415l-125 -544q-27 -116 -33 -160t-6 -69q0 -47 18.5 -68t54.5 -21q20 0 43 9.5t46 28t56 51.5t58 70.5t41.5 80.5t30.5 109l110 513h287l-157 -706q-5 -24 -13.5 -68.5t-8.5 -74.5q0 -42 23.5 -57.5t73.5 -19.5l-15 -66h-377l54 205l-12 4
q-93 -116 -179.5 -170.5t-196.5 -54.5q-101 0 -160 57.5t-59 158.5q0 65 20 155l82 370q10 46 13.5 71t3.5 43q0 44 -22 62t-78 25zM1023 1192h-535l34 154h535z" />
    <glyph glyph-name="Ubreve" unicode="&#x16c;" horiz-adv-x="1339" 
d="M1160 476q-29 -135 -77.5 -231t-116.5 -152.5t-158 -82.5t-220 -26q-85 0 -160.5 21.5t-131.5 66.5t-88.5 112.5t-32.5 160.5q0 49 7 108t34 181l104 461q13 58 13 117q0 42 -19.5 61.5t-63.5 25.5l14 66h503l-14 -66q-42 -12 -64.5 -33t-38.5 -59.5t-32 -111.5
l-135 -613q-15 -67 -20 -111.5t-5 -85.5q0 -90 44.5 -137t130.5 -47q85 0 142 37t91.5 105.5t58.5 176.5l149 675q9 39 11 66.5t2 50.5q0 42 -19.5 61.5t-63.5 25.5l14 66h426l-14 -66q-44 -13 -66.5 -35t-38 -61t-30.5 -108zM1282 1741q-69 -128 -161.5 -195t-224.5 -67
q-238 0 -246 299l99 18q13 -78 54 -117.5t114 -39.5q93 0 154.5 35t123.5 116z" />
    <glyph glyph-name="ubreve" unicode="&#x16d;" horiz-adv-x="1197" 
d="M147 992h415l-125 -544q-27 -116 -33 -160t-6 -69q0 -47 18.5 -68t54.5 -21q20 0 43 9.5t46 28t56 51.5t58 70.5t41.5 80.5t30.5 109l110 513h287l-157 -706q-5 -24 -13.5 -68.5t-8.5 -74.5q0 -42 23.5 -57.5t73.5 -19.5l-15 -66h-377l54 205l-12 4
q-93 -116 -179.5 -170.5t-196.5 -54.5q-101 0 -160 57.5t-59 158.5q0 65 20 155l82 370q10 46 13.5 71t3.5 43q0 44 -22 62t-78 25zM1112 1391q-67 -129 -159 -195.5t-218 -66.5q-117 0 -178 76t-62 223l99 18q12 -76 50 -116.5t112 -40.5q90 0 149.5 35t119.5 116z" />
    <glyph glyph-name="Uring" unicode="&#x16e;" horiz-adv-x="1339" 
d="M1160 476q-29 -135 -77.5 -231t-116.5 -152.5t-158 -82.5t-220 -26q-85 0 -160.5 21.5t-131.5 66.5t-88.5 112.5t-32.5 160.5q0 49 7 108t34 181l104 461q13 58 13 117q0 42 -19.5 61.5t-63.5 25.5l14 66h503l-14 -66q-42 -12 -64.5 -33t-38.5 -59.5t-32 -111.5
l-135 -613q-15 -67 -20 -111.5t-5 -85.5q0 -90 44.5 -137t130.5 -47q85 0 142 37t91.5 105.5t58.5 176.5l149 675q9 39 11 66.5t2 50.5q0 42 -19.5 61.5t-63.5 25.5l14 66h426l-14 -66q-44 -13 -66.5 -35t-38 -61t-30.5 -108zM891 1415q-91 0 -139.5 40.5t-48.5 114.5
q0 52 19.5 104.5t55 88.5t84.5 54.5t107 18.5q98 0 150 -42t52 -114q0 -73 -35 -136t-98.5 -96t-146.5 -33zM819 1581q0 -41 21 -65t65 -24q47 0 82.5 28.5t51.5 71t16 79.5q0 43 -22 65.5t-63 22.5q-42 0 -76.5 -24t-54.5 -66.5t-20 -87.5z" />
    <glyph glyph-name="uring" unicode="&#x16f;" horiz-adv-x="1197" 
d="M147 992h415l-125 -544q-27 -116 -33 -160t-6 -69q0 -47 18.5 -68t54.5 -21q20 0 43 9.5t46 28t56 51.5t58 70.5t41.5 80.5t30.5 109l110 513h287l-157 -706q-5 -24 -13.5 -68.5t-8.5 -74.5q0 -42 23.5 -57.5t73.5 -19.5l-15 -66h-377l54 205l-12 4
q-93 -116 -179.5 -170.5t-196.5 -54.5q-101 0 -160 57.5t-59 158.5q0 65 20 155l82 370q10 46 13.5 71t3.5 43q0 44 -22 62t-78 25zM732 1084q-91 0 -139.5 40.5t-48.5 114.5q0 53 19 103t57 87t90.5 56.5t111.5 19.5q95 0 142.5 -40.5t47.5 -115.5q0 -73 -34.5 -135.5
t-98.5 -96t-147 -33.5zM660 1250q0 -41 21 -65t65 -24q47 0 82.5 28.5t51.5 71t16 79.5q0 43 -22 65.5t-63 22.5q-42 0 -76.5 -24t-54.5 -66.5t-20 -87.5z" />
    <glyph glyph-name="Uhungarumlaut" unicode="&#x170;" horiz-adv-x="1339" 
d="M1160 476q-29 -135 -77.5 -231t-116.5 -152.5t-158 -82.5t-220 -26q-85 0 -160.5 21.5t-131.5 66.5t-88.5 112.5t-32.5 160.5q0 49 7 108t34 181l104 461q13 58 13 117q0 42 -19.5 61.5t-63.5 25.5l14 66h503l-14 -66q-42 -12 -64.5 -33t-38.5 -59.5t-32 -111.5
l-135 -613q-15 -67 -20 -111.5t-5 -85.5q0 -90 44.5 -137t130.5 -47q85 0 142 37t91.5 105.5t58.5 176.5l149 675q9 39 11 66.5t2 50.5q0 42 -19.5 61.5t-63.5 25.5l14 66h426l-14 -66q-44 -13 -66.5 -35t-38 -61t-30.5 -108zM1058 1798l-15 -66l-391 -264l-59 77l276 253
h189zM1425 1798l-15 -66l-414 -264l-59 77l289 253h199z" />
    <glyph glyph-name="uhungarumlaut" unicode="&#x171;" horiz-adv-x="1197" 
d="M147 992h415l-125 -544q-27 -116 -33 -160t-6 -69q0 -47 18.5 -68t54.5 -21q20 0 43 9.5t46 28t56 51.5t58 70.5t41.5 80.5t30.5 109l110 513h287l-157 -706q-5 -24 -13.5 -68.5t-8.5 -74.5q0 -42 23.5 -57.5t73.5 -19.5l-15 -66h-377l54 205l-12 4
q-93 -116 -179.5 -170.5t-196.5 -54.5q-101 0 -160 57.5t-59 158.5q0 65 20 155l82 370q10 46 13.5 71t3.5 43q0 44 -22 62t-78 25zM906 1475l-14 -66l-370 -322l-71 72l282 316h173zM1240 1475l-14 -66l-395 -322l-71 72l307 316h173z" />
    <glyph glyph-name="Uogonek" unicode="&#x172;" horiz-adv-x="1339" 
d="M730 -4q-73 -12 -142 -12q-85 0 -160.5 21.5t-131.5 66.5t-88.5 112.5t-32.5 160.5q0 49 7 108t34 181l104 461q13 58 13 117q0 42 -19.5 61.5t-63.5 25.5l14 66h503l-14 -66q-42 -12 -64.5 -33t-38.5 -59.5t-32 -111.5l-135 -613q-15 -67 -20 -111.5t-5 -85.5
q0 -90 44.5 -137t130.5 -47q85 0 142 37t91.5 105.5t58.5 176.5l149 675q9 39 11 66.5t2 50.5q0 42 -19.5 61.5t-63.5 25.5l14 66h426l-14 -66q-44 -13 -66.5 -35t-38 -61t-30.5 -108l-135 -619q-31 -143 -85.5 -243.5t-137.5 -162.5q-126 -92 -195.5 -176t-69.5 -146
q0 -33 18 -51.5t51 -18.5q52 0 100 32l21 -89q-35 -24 -84.5 -40.5t-94.5 -16.5q-87 0 -133 41.5t-46 120.5q0 65 55.5 131.5t170.5 138.5z" />
    <glyph glyph-name="uogonek" unicode="&#x173;" horiz-adv-x="1197" 
d="M838 0h-169l54 205l-12 4q-93 -116 -179.5 -170.5t-196.5 -54.5q-101 0 -160 57.5t-59 158.5q0 65 20 155l82 370q10 46 13.5 71t3.5 43q0 44 -22 62t-78 25l12 66h415l-125 -544q-27 -116 -33 -160t-6 -69q0 -47 18.5 -68t54.5 -21q20 0 43 9.5t46 28t56 51.5t58 70.5
t41.5 80.5t30.5 109l110 513h287l-157 -706q-5 -24 -13.5 -68.5t-8.5 -74.5q0 -42 23.5 -57.5t73.5 -19.5l-15 -66h-80q-103 -85 -148 -144t-45 -108q0 -33 18 -51.5t51 -18.5q52 0 100 32l21 -89q-35 -24 -84.5 -40.5t-94.5 -16.5q-87 0 -133 41.5t-46 120.5q0 23 6.5 45.5
t22 49t42.5 55.5t67 59.5t95 64.5z" />
    <glyph glyph-name="Wcircumflex" unicode="&#x174;" horiz-adv-x="1904" 
d="M1649 975q44 85 65 139t21 90q0 30 -7 48t-26 30t-52 17l15 66h425l-15 -66q-33 -6 -58.5 -24t-48.5 -48t-45 -68.5t-59 -107.5l-573 -1058h-240l-2 644v170q0 65 1 136h-13q-33 -71 -56 -119l-418 -831h-240l-20 1064q-2 95 -14.5 144t-33.5 70.5t-59 27.5l15 66h512
l-15 -66q-29 -4 -49.5 -13.5t-34 -28t-19 -47.5t-6.5 -53l-1 -117l-4 -376q-1 -83 -5 -200l-5 -119h13q23 51 49.5 106t96.5 195l361 719h219l1 -655l1 -89q0 -140 -7 -276h13q47 98 169 339zM1347 1785l153 -262l-72 -56l-183 167h-10l-271 -167l-57 70l275 248h165z" />
    <glyph glyph-name="wcircumflex" unicode="&#x175;" horiz-adv-x="1583" 
d="M1580 992l35 -66q-47 -135 -205.5 -393.5t-376.5 -547.5h-169l-31 296q-13 120 -17 181t-4 97h-10q-56 -117 -145 -264t-206 -310h-182l-79 769q-7 70 -17.5 103.5t-30 49.5t-57.5 19l15 66h349l55 -726q115 179 168.5 284t79.5 192.5t36 183.5l14 66h225l62 -727
q145 219 210.5 356t65.5 226q0 38 -18 57.5t-63 21.5l14 66h282zM1098 1468l131 -332l-90 -48l-146 218h-10l-269 -218l-66 68l281 312h169z" />
    <glyph glyph-name="Ycircumflex" unicode="&#x176;" horiz-adv-x="1181" 
d="M681 269q-7 -29 -10 -54.5t-3 -61.5q0 -46 23.5 -65t73.5 -22l-14 -66h-531l14 66q44 6 70 26t43.5 59.5t35.5 118.5l59 271l-130 556q-9 38 -18 69.5t-21.5 59t-25.5 42.5t-25.5 21.5t-36.5 9.5l15 66h489l-15 -66q-78 -9 -78 -92q0 -53 20 -142l79 -366l229 332
q55 79 72 120.5t17 83.5q0 28 -16 43.5t-56 20.5l15 66h410l-15 -66q-20 -5 -36.5 -14t-38 -29.5t-60.5 -69.5t-90 -121l-387 -534zM976 1785l153 -262l-72 -56l-183 167h-10l-271 -167l-57 70l275 248h165z" />
    <glyph glyph-name="ycircumflex" unicode="&#x177;" horiz-adv-x="1024" 
d="M282 0l-90 742q-9 73 -20.5 109.5t-31 53.5t-60.5 21l15 66h352l69 -747q151 216 222.5 361t71.5 241q0 38 -18 57.5t-63 21.5l14 66h282l35 -66q-42 -113 -128 -267t-214.5 -342t-271.5 -374q-120 -156 -201 -235q-61 -60 -116 -92q-44 -27 -93 -40t-113 -13
q-30 0 -69.5 6.5t-70.5 16.5l49 225h106q1 -42 17 -62t47 -20q42 0 75.5 14t68.5 43t83 82.5t110 131.5h-57zM819 1468l131 -332l-90 -48l-146 218h-10l-269 -218l-66 68l281 312h169z" />
    <glyph glyph-name="Ydieresis" unicode="&#x178;" horiz-adv-x="1181" 
d="M681 269q-7 -29 -10 -54.5t-3 -61.5q0 -46 23.5 -65t73.5 -22l-14 -66h-531l14 66q44 6 70 26t43.5 59.5t35.5 118.5l59 271l-130 556q-9 38 -18 69.5t-21.5 59t-25.5 42.5t-25.5 21.5t-36.5 9.5l15 66h489l-15 -66q-78 -9 -78 -92q0 -53 20 -142l79 -366l229 332
q55 79 72 120.5t17 83.5q0 28 -16 43.5t-56 20.5l15 66h410l-15 -66q-20 -5 -36.5 -14t-38 -29.5t-60.5 -69.5t-90 -121l-387 -534zM790 1721l-48 -220h-203l48 220h203zM1161 1721l-48 -220h-203l48 220h203z" />
    <glyph glyph-name="Zacute" unicode="&#x179;" horiz-adv-x="1114" 
d="M374 119h254q33 0 54.5 5t37 13.5t32.5 25t42 50t44 70.5t38 88h131l-80 -371h-954l14 66l839 1180h-244q-42 0 -64 -6t-40.5 -18.5t-42.5 -39.5t-53.5 -77.5t-45.5 -90.5h-131l77 351h946l-15 -66zM1146 1798l-15 -66l-454 -264l-59 77l269 253h259z" />
    <glyph glyph-name="zacute" unicode="&#x17a;" horiz-adv-x="967" 
d="M541 357q-49 -62 -105.5 -129t-99.5 -113l7 -9h189q42 0 71 11.5t54.5 37.5t48 65.5t45.5 91.5h106l-67 -312h-770l-35 66l443 558q110 139 214 253l-7 9h-188q-38 0 -69 -15t-61.5 -51.5t-76.5 -121.5h-107l63 294h762l35 -66zM978 1475l-14 -66l-410 -322l-71 72
l267 316h228z" />
    <glyph glyph-name="Zdotaccent" unicode="&#x17b;" horiz-adv-x="1114" 
d="M374 119h254q33 0 54.5 5t37 13.5t32.5 25t42 50t44 70.5t38 88h131l-80 -371h-954l14 66l839 1180h-244q-42 0 -64 -6t-40.5 -18.5t-42.5 -39.5t-53.5 -77.5t-45.5 -90.5h-131l77 351h946l-15 -66zM962 1734l-52 -245h-259l55 245h256z" />
    <glyph glyph-name="zdotaccent" unicode="&#x17c;" horiz-adv-x="967" 
d="M541 357q-49 -62 -105.5 -129t-99.5 -113l7 -9h189q42 0 71 11.5t54.5 37.5t48 65.5t45.5 91.5h106l-67 -312h-770l-35 66l443 558q110 139 214 253l-7 9h-188q-38 0 -69 -15t-61.5 -51.5t-76.5 -121.5h-107l63 294h762l35 -66zM813 1391l-52 -245h-259l55 245h256z" />
    <glyph glyph-name="Zcaron" unicode="&#x17d;" horiz-adv-x="1114" 
d="M374 119h254q33 0 54.5 5t37 13.5t32.5 25t42 50t44 70.5t38 88h131l-80 -371h-954l14 66l839 1180h-244q-42 0 -64 -6t-40.5 -18.5t-42.5 -39.5t-53.5 -77.5t-45.5 -90.5h-131l77 351h946l-15 -66zM689 1474l-153 262l72 56l183 -167h10l271 167l57 -70l-275 -248h-165z
" />
    <glyph glyph-name="zcaron" unicode="&#x17e;" horiz-adv-x="967" 
d="M541 357q-49 -62 -105.5 -129t-99.5 -113l7 -9h189q42 0 71 11.5t54.5 37.5t48 65.5t45.5 91.5h106l-67 -312h-770l-35 66l443 558q110 139 214 253l-7 9h-188q-38 0 -69 -15t-61.5 -51.5t-76.5 -121.5h-107l63 294h762l35 -66zM533 1103l-131 332l90 48l146 -218h10
l269 218l66 -68l-281 -312h-169z" />
    <glyph glyph-name="longs" unicode="&#x17f;" horiz-adv-x="631" 
d="M356 31q-36 -166 -101.5 -271t-165.5 -156t-243 -51q-47 0 -95 13l27 109q28 -8 66 -8q45 0 73.5 12.5t51.5 43t43 89.5t44 166l200 889h-120l14 66q41 4 61.5 10t35.5 17.5t28 37.5t28 82q25 95 63 157.5t99 109t142.5 68t179.5 21.5q39 0 84.5 -3t103.5 -15l-45 -200
h-129q-4 62 -20 88t-50 26q-23 0 -41 -9t-35 -32t-32.5 -66.5t-32.5 -122.5z" />
    <glyph glyph-name="florin" unicode="&#x192;" horiz-adv-x="941" 
d="M511 73q-32 -145 -76 -245.5t-101 -159.5t-133 -86t-186 -27q-43 0 -85.5 5t-111.5 19l42 187h115q3 -55 20 -81t52 -26q33 0 56.5 25.5t42 75.5t38.5 140l219 967h-120l14 66q42 5 62 10.5t35 17t28 37.5t28 82q25 95 63 157.5t99 109t142.5 68t179.5 21.5q39 0 84.5 -3
t103.5 -15l-45 -200h-129q-4 62 -20 88t-50 26q-23 0 -41 -9t-35 -32t-32.5 -66.5t-32.5 -122.5l-25 -110h190l-27 -125h-191z" />
    <glyph glyph-name="Aringacute" unicode="&#x1fa;" horiz-adv-x="1258" 
d="M1261 1946l-15 -66l-450 -198l-47 77l253 187h259zM1006 1304l41 -1001q2 -39 4.5 -67t7.5 -57t14 -49.5t19 -32.5t26 -20t38 -11l-15 -66h-517l15 66q44 3 69.5 22.5t35.5 53t10 93.5q0 43 -2 90l-2 98h-391l-14 -25q-23 -40 -39.5 -72.5t-29.5 -66t-18.5 -60
t-5.5 -50.5q0 -72 85 -83l-15 -66h-422l15 66q35 8 61.5 27t50.5 51.5t68 111.5l579 1041q-38 40 -38 106q0 52 19.5 104.5t55 88.5t84.5 54.5t107 18.5q98 0 150 -42t52 -114q0 -62 -26 -118.5t-72 -90.5zM752 1414q0 -41 21 -65t65 -24q47 0 82.5 28.5t51.5 71t16 79.5
q0 43 -22 65.5t-63 22.5q-42 0 -76.5 -24t-54.5 -66.5t-20 -87.5zM421 540h326l-4 240q-2 128 -2 212q0 64 1 131h-12z" />
    <glyph glyph-name="aringacute" unicode="&#x1fb;" horiz-adv-x="1167" 
d="M912 936l90 72l112 -16l-154 -697q-12 -53 -17.5 -85t-5.5 -54q0 -45 22 -65t78 -25l-11 -66h-384l54 205l-13 4q-68 -88 -126.5 -136.5t-115 -68.5t-130.5 -20q-70 0 -123 33t-84 104.5t-31 181.5q0 105 24.5 212t72.5 199.5t121 158.5t165.5 100.5t201.5 34.5
q149 0 254 -72zM761 622q7 32 11.5 71.5t4.5 76.5q0 66 -25 100t-82 34q-93 0 -165 -93.5t-116 -251.5t-44 -283q0 -73 21.5 -109t66.5 -36q66 0 134.5 64.5t110.5 151.5t75 238zM1148 1904l-14 -66l-410 -322l-71 72l267 316h228zM717 1084q-91 0 -139.5 40.5t-48.5 114.5
q0 53 19 103t57 87t90.5 56.5t111.5 19.5q95 0 142.5 -40.5t47.5 -115.5q0 -73 -34.5 -135.5t-98.5 -96t-147 -33.5zM645 1250q0 -41 21 -65t65 -24q47 0 82.5 28.5t51.5 71t16 79.5q0 43 -22 65.5t-63 22.5q-42 0 -76.5 -24t-54.5 -66.5t-20 -87.5z" />
    <glyph glyph-name="AEacute" unicode="&#x1fc;" horiz-adv-x="1728" 
d="M1759 1043h-128q-5 95 -18 133t-40 55t-76 17h-284l-73 -480h139q40 0 67.5 13t51 43.5t46.5 84.5h110l-96 -406h-103q0 58 -7 89t-26 45t-65 14h-135l-83 -534h183q44 0 68.5 6t45 19t47.5 41.5t53.5 72t54.5 104.5h136l-92 -360h-903l14 66q34 8 54 22t32 33.5
t21.5 52.5t19.5 96l23 153h-377l-88 -130q-16 -23 -27 -42t-18 -36.5t-9.5 -31t-2.5 -27.5q0 -40 22 -61.5t62 -28.5l-15 -66h-448l15 66q26 4 56 26.5t66 63.5t78 101l788 1108h932zM814 540l41 270q13 87 44 247l13 71h-14l-401 -588h317zM1682 1798l-15 -66l-454 -264
l-59 77l269 253h259z" />
    <glyph glyph-name="aeacute" unicode="&#x1fd;" horiz-adv-x="1538" 
d="M1427 208q-101 -114 -217.5 -169t-252.5 -55q-117 0 -200.5 45.5t-130.5 137.5h-10q-90 -93 -177.5 -138t-177.5 -45q-120 0 -182.5 54t-62.5 155q0 110 75 190t215.5 122.5t332.5 44.5l23 110q14 67 14 110q0 65 -28.5 97.5t-92.5 32.5q-77 0 -125 -51.5t-69 -148.5
h-195l37 177q99 48 167.5 73.5t139.5 41.5t140 16q53 0 89 -10t67 -36.5t53 -74.5h10q86 60 171 90.5t174 30.5q150 0 227 -55t77 -162q0 -81 -32 -141t-103.5 -105.5t-199.5 -73.5t-310 -32q-13 -59 -13 -122q0 -37 7 -70.5t25 -59.5t48 -41.5t77 -15.5q90 0 161 36.5
t165 125.5zM897 544q184 5 281.5 70.5t97.5 185.5q0 51 -23.5 77.5t-65.5 26.5q-93 0 -167.5 -92t-122.5 -268zM619 452q-174 -3 -263 -57.5t-89 -157.5q0 -54 30 -81t82 -27q45 0 89 25.5t81 82t54 140.5zM1263 1475l-14 -66l-410 -322l-71 72l267 316h228z" />
    <glyph glyph-name="Oslashacute" unicode="&#x1fe;" horiz-adv-x="1383" 
d="M12 -135l205 260q-96 117 -96 330q0 79 16 181t54 215.5t105 214.5t157.5 172.5t201.5 107t233 35.5q161 0 271 -62l142 180h160l-206 -261q96 -118 96 -322q0 -96 -20.5 -213.5t-67 -236t-114.5 -210.5t-157 -153.5t-191.5 -90t-219.5 -28.5q-163 0 -268 60l-141 -179
h-160zM417 373l617 788q-20 56 -59 79.5t-97 23.5q-88 0 -171 -76.5t-150 -217.5t-102.5 -311t-37.5 -286zM1055 989l-617 -786q19 -51 56 -76.5t98 -25.5q89 0 172 76t148.5 215t102.5 312t40 285zM1280 1798l-15 -66l-454 -264l-59 77l269 253h259z" />
    <glyph glyph-name="oslashacute" unicode="&#x1ff;" horiz-adv-x="1106" 
d="M157 95q-81 93 -81 245q0 44 6 98q8 68 28 139q23 82 58 146q38 72 88 124.5t108.5 87t127.5 52.5q82 21 172 21q119 0 202 -42l131 161h146l-188 -230q82 -94 82 -249q0 -132 -44 -265t-121.5 -223t-183.5 -133t-240 -43q-114 0 -201 43l-132 -162h-145zM340 315
l414 513q-16 42 -45 59t-68 17q-87 0 -148 -79.5t-102.5 -236.5t-50.5 -273zM771 676l-414 -514q15 -39 43.5 -56.5t71.5 -17.5q57 0 101 33q51 38 90.5 117t71 210.5t36.5 227.5zM1047 1475l-14 -66l-410 -322l-71 72l267 316h228z" />
    <glyph glyph-name="uni0218" unicode="&#x218;" horiz-adv-x="1026" 
d="M185 333q3 -88 27 -138.5t68 -72t116 -21.5q109 0 172 62.5t63 174.5q0 58 -20 102.5t-61.5 86.5t-143.5 117q-95 70 -143.5 155t-48.5 178q0 79 34 155t100.5 132.5t167.5 86.5t236 30q100 0 184 -10.5t173 -37.5l-61 -285h-131q-1 112 -44 164t-139 52
q-105 0 -166 -56.5t-61 -155.5q0 -70 48.5 -132.5t146.5 -133.5q89 -66 137 -118.5t72 -111.5t24 -135q0 -102 -49 -194q-47 -86 -127 -143q-71 -50 -146 -72q-92 -28 -235 -28q-92 0 -192.5 16t-193.5 45l62 288h131zM509 -102q2 -17 2 -31q0 -136 -99.5 -211t-293.5 -86
v95q68 9 110 35.5t62.5 71t25.5 126.5h193z" />
    <glyph glyph-name="uni0219" unicode="&#x219;" horiz-adv-x="906" 
d="M179 280q5 -72 29.5 -115.5t60.5 -60t84 -16.5q79 0 122 38.5t43 108.5q0 42 -14 71t-46 56.5t-104 71.5q-100 60 -145.5 124.5t-45.5 144.5q0 147 110 226t308 79q77 0 165.5 -12.5t161.5 -33.5l-52 -239h-127q-9 93 -47.5 137t-110.5 44q-67 0 -107.5 -34.5
t-40.5 -93.5q0 -37 15.5 -65t49.5 -56t101 -68q106 -63 152 -130t46 -157q0 -102 -54.5 -174t-149 -107t-215.5 -35q-107 0 -199 13t-173 35l56 248h127zM447 -102q2 -17 2 -31q0 -136 -99.5 -211t-293.5 -86v95q68 9 110 35.5t62.5 71t25.5 126.5h193z" />
    <glyph glyph-name="circumflex" unicode="&#x2c6;" horiz-adv-x="554" 
d="M583 1468l131 -332l-90 -48l-146 218h-10l-269 -218l-66 68l281 312h169z" />
    <glyph glyph-name="caron" unicode="&#x2c7;" horiz-adv-x="554" 
d="M326 1103l-131 332l90 48l146 -218h10l269 218l66 -68l-281 -312h-169z" />
    <glyph glyph-name="breve" unicode="&#x2d8;" horiz-adv-x="554" 
d="M789 1391q-67 -129 -159 -195.5t-218 -66.5q-117 0 -178 76t-62 223l99 18q12 -76 50 -116.5t112 -40.5q90 0 149.5 35t119.5 116z" />
    <glyph glyph-name="dotaccent" unicode="&#x2d9;" horiz-adv-x="554" 
d="M600 1391l-52 -245h-259l55 245h256z" />
    <glyph glyph-name="ring" unicode="&#x2da;" horiz-adv-x="554" 
d="M411 1084q-91 0 -139.5 40.5t-48.5 114.5q0 53 19 103t57 87t90.5 56.5t111.5 19.5q95 0 142.5 -40.5t47.5 -115.5q0 -73 -34.5 -135.5t-98.5 -96t-147 -33.5zM339 1250q0 -41 21 -65t65 -24q47 0 82.5 28.5t51.5 71t16 79.5q0 43 -22 65.5t-63 22.5q-42 0 -76.5 -24
t-54.5 -66.5t-20 -87.5z" />
    <glyph glyph-name="ogonek" unicode="&#x2db;" horiz-adv-x="554" 
d="M222 5h125q-40 -33 -81 -70t-69 -73t-38.5 -63t-10.5 -51q0 -33 18 -51.5t51 -18.5q52 0 100 32l21 -89q-35 -24 -84.5 -40.5t-94.5 -16.5q-87 0 -133 41.5t-46 120.5q0 26 8.5 51.5t29 55.5t52 60.5t73 59.5t79.5 52z" />
    <glyph glyph-name="tilde" unicode="&#x2dc;" horiz-adv-x="554" 
d="M727 1404l82 -63q-55 -83 -97 -128.5t-77 -64t-77 -18.5q-35 0 -61 11.5t-72 48.5l-29 23q-13 10 -24.5 16t-24 9t-28.5 3q-27 0 -47 -9t-43 -33t-54 -71l-82 63q61 89 98.5 130.5t73 61t80.5 19.5q23 0 41.5 -5t36.5 -15.5t49 -35.5q33 -27 47.5 -36.5t28.5 -14t38 -4.5
q37 0 68.5 25t72.5 88z" />
    <glyph glyph-name="hungarumlaut" unicode="&#x2dd;" horiz-adv-x="554" 
d="M555 1475l-14 -66l-370 -322l-71 72l282 316h173zM889 1475l-14 -66l-395 -322l-71 72l307 316h173z" />
    <glyph glyph-name="gravecomb" unicode="&#x300;" horiz-adv-x="0" 
d="M-167 1475l136 -339l-85 -48l-246 321l14 66h181z" />
    <glyph glyph-name="acutecomb" unicode="&#x301;" horiz-adv-x="0" 
d="M92 1475l-14 -66l-410 -322l-71 72l267 316h228z" />
    <glyph glyph-name="uni0302" unicode="&#x302;" horiz-adv-x="0" 
d="M-55 1468l131 -332l-90 -48l-146 218h-10l-269 -218l-66 68l281 312h169z" />
    <glyph glyph-name="tildecomb" unicode="&#x303;" horiz-adv-x="0" 
d="M89 1404l82 -63q-55 -83 -97 -128.5t-77 -64t-77 -18.5q-35 0 -61 11.5t-72 48.5l-29 23q-13 10 -24.5 16t-24 9t-28.5 3q-27 0 -47 -9t-43 -33t-54 -71l-82 63q61 89 98.5 130.5t73 61t80.5 19.5q23 0 41.5 -5t36.5 -15.5t49 -35.5q33 -27 47.5 -36.5t28.5 -14t38 -4.5
q37 0 68.5 25t72.5 88z" />
    <glyph glyph-name="uni0304" unicode="&#x304;" horiz-adv-x="0" 
d="M63 1192h-535l34 154h535z" />
    <glyph glyph-name="uni0306" unicode="&#x306;" horiz-adv-x="0" 
d="M151 1391q-69 -132 -161.5 -197t-215.5 -65q-117 0 -178 76t-62 223l99 18q12 -76 50 -116.5t112 -40.5q90 0 149.5 35t119.5 116z" />
    <glyph glyph-name="uni0307" unicode="&#x307;" horiz-adv-x="0" 
d="M-38 1391l-52 -245h-259l55 245h256z" />
    <glyph glyph-name="uni0308" unicode="&#x308;" horiz-adv-x="0" 
d="M-238 1379l-48 -220h-202l48 220h202zM114 1379l-48 -220h-203l48 220h203z" />
    <glyph glyph-name="uni030A" unicode="&#x30a;" horiz-adv-x="0" 
d="M-227 1084q-91 0 -139.5 40.5t-48.5 114.5q0 53 19 103t57 87t90.5 56.5t111.5 19.5q95 0 142.5 -40.5t47.5 -115.5q0 -73 -34.5 -135.5t-98.5 -96t-147 -33.5zM-299 1250q0 -41 21 -65t65 -24q47 0 82.5 28.5t51.5 71t16 79.5q0 43 -22 65.5t-63 22.5q-42 0 -76.5 -24
t-54.5 -66.5t-20 -87.5z" />
    <glyph glyph-name="uni030B" unicode="&#x30b;" horiz-adv-x="0" 
d="M-83 1475l-14 -66l-370 -322l-71 72l282 316h173zM251 1475l-14 -66l-395 -322l-71 72l307 316h173z" />
    <glyph glyph-name="uni030C" unicode="&#x30c;" horiz-adv-x="0" 
d="M-312 1103l-131 332l90 48l146 -218h10l269 218l66 -68l-281 -312h-169z" />
    <glyph glyph-name="uni0315" unicode="&#x315;" horiz-adv-x="526" 
d="M567 1431q2 -19 2 -42v-14q0 -67 -16 -117.5t-48.5 -92.5t-80.5 -81t-140 -101l-53 70q73 62 107.5 149t34.5 229h194z" />
    <glyph glyph-name="uni0326" unicode="&#x326;" horiz-adv-x="0" 
d="M-292 -102q2 -17 2 -31q0 -136 -99.5 -211t-293.5 -86v95q68 9 110 35.5t62.5 71t25.5 126.5h193z" />
    <glyph glyph-name="uni0327" unicode="&#x327;" horiz-adv-x="0" 
d="M-384 -66q5 -29 5 -69q0 -135 -100 -209.5t-293 -85.5v95q86 10 136.5 57t53.5 133l10 43l299 179l40 -49z" />
    <glyph glyph-name="uni0328" unicode="&#x328;" horiz-adv-x="0" 
d="M-416 5h125q-40 -33 -81 -70t-69 -73t-38.5 -63t-10.5 -51q0 -33 18 -51.5t51 -18.5q52 0 100 32l21 -89q-35 -24 -84.5 -40.5t-94.5 -16.5q-87 0 -133 41.5t-46 120.5q0 26 8.5 51.5t29 55.5t52 60.5t73 59.5t79.5 52z" />
    <glyph glyph-name="uni0344" unicode="&#x344;" horiz-adv-x="0" 
d="M125 1546l-338 -446l-70 37l195 475h227zM-311 1378l-47 -219h-209l47 219h209zM285 1378l-47 -219h-209l47 219h209z" />
    <glyph glyph-name="uni0374" unicode="&#x374;" horiz-adv-x="819" 
d="M791 1445l-301 -455l-100 52l229 469h186z" />
    <glyph glyph-name="uni0375" unicode="&#x375;" horiz-adv-x="819" 
d="M31 -371l303 455l100 -51l-231 -469h-187z" />
    <glyph glyph-name="uni037E" unicode="&#x37e;" horiz-adv-x="555" 
d="M509 932l-68 -302h-255l67 302h256zM348 302q-2 -64 -8 -117t-19.5 -103t-35.5 -90.5t-69 -90t-106 -96.5t-140 -98l-68 94q73 54 115.5 115.5t66.5 160t33 225.5h231zM390 992z" />
    <glyph glyph-name="tonos" unicode="&#x384;" horiz-adv-x="586" 
d="M717 1507l-338 -446l-70 37l195 475h227z" />
    <glyph glyph-name="dieresistonos" unicode="&#x385;" horiz-adv-x="586" 
d="M725 1546l-338 -446l-70 37l195 475h227zM289 1378l-47 -219h-209l47 219h209zM885 1378l-47 -219h-209l47 219h209z" />
    <glyph glyph-name="Alphatonos" unicode="&#x386;" horiz-adv-x="1258" 
d="M750 423h-391l-14 -25q-23 -40 -39.5 -72.5t-29.5 -66t-18.5 -60t-5.5 -50.5q0 -72 85 -83l-15 -66h-422l15 66q35 8 61.5 27t50.5 51.5t68 111.5l621 1116h288l43 -1069q2 -61 7 -96.5t13 -60.5t19.5 -42t29.5 -26t40 -12l-15 -66h-517l15 66q44 3 69.5 22.5t35.5 53
t10 93.5q0 43 -2 90zM421 540h326l-4 240q-2 128 -2 212q0 64 1 131h-12zM514 1316l-338 -446l-70 37l195 475h227z" />
    <glyph glyph-name="anoteleia" unicode="&#x387;" horiz-adv-x="461" 
d="M485 1095l-66 -302h-255l65 302h256z" />
    <glyph glyph-name="Epsilontonos" unicode="&#x388;" horiz-adv-x="1479" 
d="M1581 1365l-71 -322h-128q-5 95 -18 133t-40 55t-76 17h-251l-106 -480h139q40 0 67.5 13t51 43.5t46.5 84.5h110l-96 -406h-103q0 58 -7 89t-26 45t-65 14h-142l-118 -534h225q44 0 68.5 6t45 19t47.5 41.5t53.5 72t54.5 104.5h136l-92 -360h-951l14 66q42 12 64.5 33
t38.5 59.5t32 111.5l182 825q13 59 13 117q0 42 -19.5 61.5t-63.5 25.5l14 66h971zM522 1316l-338 -446l-70 37l195 475h227z" />
    <glyph glyph-name="Etatonos" unicode="&#x389;" horiz-adv-x="1749" 
d="M1509 270q-6 -26 -8 -41t-3.5 -32.5t-1.5 -43.5q0 -42 19.5 -61.5t63.5 -25.5l-14 -66h-503l14 66q42 12 64.5 33t38.5 59.5t32 111.5l84 382h-424l-84 -382q-6 -27 -8 -41.5t-3.5 -32t-1.5 -43.5q0 -42 19.5 -61.5t63.5 -25.5l-14 -66h-503l14 66q42 12 64.5 33
t38.5 59.5t32 111.5l182 825q13 59 13 117q0 42 -19.5 61.5t-63.5 25.5l14 66h503l-14 -66q-42 -12 -64.5 -33t-38.5 -59.5t-32 -111.5l-70 -317h424l70 317q13 59 13 117q0 42 -19.5 61.5t-63.5 25.5l14 66h503l-14 -66q-42 -12 -64.5 -33t-38.5 -59.5t-32 -111.5z
M522 1316l-338 -446l-70 37l195 475h227z" />
    <glyph glyph-name="Iotatonos" unicode="&#x38a;" horiz-adv-x="1031" 
d="M841 0h-503l14 66q42 12 64.5 33t38.5 59.5t32 111.5l182 825q13 59 13 117q0 42 -19.5 61.5t-63.5 25.5l14 66h503l-14 -66q-42 -12 -64.5 -33t-38.5 -59.5t-32 -111.5l-182 -825q-6 -26 -8 -41t-3.5 -32.5t-1.5 -43.5q0 -42 19.5 -61.5t63.5 -25.5zM522 1316l-338 -446
l-70 37l195 475h227z" />
    <glyph glyph-name="Omicrontonos" unicode="&#x38c;" horiz-adv-x="1602" 
d="M800 -16q-228 0 -344 119.5t-116 351.5q0 79 16 181t54 215.5t105 214.5t157.5 172.5t201.5 107t233 35.5q228 0 345.5 -119t117.5 -346q0 -96 -20.5 -213.5t-67 -236t-114.5 -210.5t-157 -153.5t-191.5 -90t-219.5 -28.5zM641 362q0 -138 40 -199.5t130 -61.5
q48 0 92 22q55 27 105 83q62 69 114 176t86 234q28 103 49 240q12 76 12 150q0 134 -40 196t-132 62q-87 0 -169 -77.5t-148.5 -218.5t-102.5 -316.5t-36 -289.5zM491 1316l-338 -446l-70 37l195 475h227z" />
    <glyph glyph-name="Upsilontonos" unicode="&#x38e;" horiz-adv-x="1738" 
d="M1181 721q314 659 571 659q104 0 141 -28l-61 -281h-111q0 88 -61 88q-88 0 -253 -278.5t-216 -509.5l-39 -164q-8 -34 -8 -62q0 -36 20.5 -52.5t89.5 -26.5l-14 -66h-569l14 66q96 18 123 41t45 100l43 182q12 49 12 114q0 183 -59 400t-99 263t-92 46q-50 0 -84 -36
l-30 65q116 139 276 139q123 0 190.5 -72.5t113 -256.5t48.5 -330h9zM522 1316l-338 -446l-70 37l195 475h227z" />
    <glyph glyph-name="Omegatonos" unicode="&#x38f;" horiz-adv-x="1734" 
d="M665 242q-240 242 -240 479q0 269 187.5 464t517.5 195q253 0 384.5 -125.5t131.5 -306.5q0 -363 -428 -706l-8 -27h133q48 0 87.5 28t86.5 122h137l-123 -365h-586l41 180q139 98 246 363.5t107 464.5q0 124 -58 190t-159 66q-198 0 -296 -205t-98 -436q0 -212 99 -443
l-41 -180h-557l45 365h137q4 -80 23.5 -115t74.5 -35h148zM490 1316l-338 -446l-70 37l195 475h227z" />
    <glyph glyph-name="iotadieresistonos" unicode="&#x390;" horiz-adv-x="672" 
d="M285 991h280l-145 -663q-12 -55 -12 -103q0 -54 15.5 -78t57.5 -24q47 0 127 57l47 -71q-161 -125 -321 -125q-211 0 -211 209q0 55 16 131zM771 1546l-338 -446l-70 37l195 475h227zM335 1378l-47 -219h-209l47 219h209zM931 1378l-47 -219h-209l47 219h209z" />
    <glyph glyph-name="Alpha" unicode="&#x391;" horiz-adv-x="1258" 
d="M750 423h-391l-14 -25q-23 -40 -39.5 -72.5t-29.5 -66t-18.5 -60t-5.5 -50.5q0 -72 85 -83l-15 -66h-422l15 66q35 8 61.5 27t50.5 51.5t68 111.5l621 1116h288l43 -1069q2 -61 7 -96.5t13 -60.5t19.5 -42t29.5 -26t40 -12l-15 -66h-517l15 66q44 3 69.5 22.5t35.5 53
t10 93.5q0 43 -2 90zM421 540h326l-4 240q-2 128 -2 212q0 64 1 131h-12z" />
    <glyph glyph-name="Beta" unicode="&#x392;" horiz-adv-x="1280" 
d="M855 1365q141 0 228 -19t138 -55q46 -32 70.5 -82.5t24.5 -120.5q0 -95 -34.5 -165t-104 -122.5t-184.5 -97.5l-2 -11q94 -38 145.5 -106t51.5 -157q0 -68 -19 -128.5t-55 -107t-94.5 -87t-120 -62t-147 -33t-203.5 -11.5h-543l14 66q42 12 64.5 33t38.5 59.5t32 111.5
l182 825q13 59 13 117q0 42 -19.5 61.5t-63.5 25.5l14 66h574zM717 767q88 0 153.5 39.5t100.5 109.5t35 161q0 86 -54 128.5t-168 42.5q-70 0 -118 -5l-105 -476h156zM420 120q21 -2 66.5 -2.5t61.5 -0.5q96 0 157.5 26.5t100 72t60 111.5t21.5 135q0 93 -53 140.5
t-160 47.5h-138z" />
    <glyph glyph-name="Gamma" unicode="&#x393;" horiz-adv-x="1128" 
d="M668 1247l-219 -997q-9 -41 -9 -94q0 -85 97 -90l-15 -66h-516l14 66q61 19 86.5 59.5t45.5 126.5l180 815q18 82 18 137q0 48 -17 67t-67 27l15 68h962l-88 -403h-143q5 181 -28 232.5t-110 51.5h-206z" />
    <glyph glyph-name="uni0394" unicode="&#x394;" horiz-adv-x="1279" 
d="M-62 74l807 1300h266l117 -1302l-17 -72h-1190zM182 199h610l-62 903z" />
    <glyph glyph-name="Epsilon" unicode="&#x395;" horiz-adv-x="1150" 
d="M1252 1365l-71 -322h-128q-5 95 -18 133t-40 55t-76 17h-251l-106 -480h139q40 0 67.5 13t51 43.5t46.5 84.5h110l-96 -406h-103q0 58 -7 89t-26 45t-65 14h-142l-118 -534h225q44 0 68.5 6t45 19t47.5 41.5t53.5 72t54.5 104.5h136l-92 -360h-951l14 66q42 12 64.5 33
t38.5 59.5t32 111.5l182 825q13 59 13 117q0 42 -19.5 61.5t-63.5 25.5l14 66h971z" />
    <glyph glyph-name="Zeta" unicode="&#x396;" horiz-adv-x="1114" 
d="M374 119h254q33 0 54.5 5t37 13.5t32.5 25t42 50t44 70.5t38 88h131l-80 -371h-954l14 66l839 1180h-244q-42 0 -64 -6t-40.5 -18.5t-42.5 -39.5t-53.5 -77.5t-45.5 -90.5h-131l77 351h946l-15 -66z" />
    <glyph glyph-name="Eta" unicode="&#x397;" horiz-adv-x="1415" 
d="M1175 270q-6 -26 -8 -41t-3.5 -32.5t-1.5 -43.5q0 -42 19.5 -61.5t63.5 -25.5l-14 -66h-503l14 66q42 12 64.5 33t38.5 59.5t32 111.5l84 382h-424l-84 -382q-6 -27 -8 -41.5t-3.5 -32t-1.5 -43.5q0 -42 19.5 -61.5t63.5 -25.5l-14 -66h-503l14 66q42 12 64.5 33
t38.5 59.5t32 111.5l182 825q13 59 13 117q0 42 -19.5 61.5t-63.5 25.5l14 66h503l-14 -66q-42 -12 -64.5 -33t-38.5 -59.5t-32 -111.5l-70 -317h424l70 317q13 59 13 117q0 42 -19.5 61.5t-63.5 25.5l14 66h503l-14 -66q-42 -12 -64.5 -33t-38.5 -59.5t-32 -111.5z" />
    <glyph glyph-name="Theta" unicode="&#x398;" horiz-adv-x="1403" 
d="M594 -16q-473 0 -473 454q0 202 87 437t267 370t430 135q469 0 469 -450q0 -369 -198.5 -657.5t-581.5 -288.5zM424 354q0 -133 41 -193.5t135 -60.5q212 0 339.5 303.5t127.5 608.5q0 133 -39 192.5t-131 59.5q-207 0 -340 -303t-133 -607zM799 506q-2 49 -11.5 69.5
t-48.5 20.5h-26q-37 0 -55 -17.5t-46 -72.5h-90l86 373h92q0 -56 12.5 -74.5t55.5 -18.5h8q43 0 63 18.5t46 74.5h90l-86 -373h-90z" />
    <glyph glyph-name="Iota" unicode="&#x399;" horiz-adv-x="699" 
d="M509 0h-503l14 66q42 12 64.5 33t38.5 59.5t32 111.5l182 825q13 59 13 117q0 42 -19.5 61.5t-63.5 25.5l14 66h503l-14 -66q-42 -12 -64.5 -33t-38.5 -59.5t-32 -111.5l-182 -825q-6 -26 -8 -41t-3.5 -32.5t-1.5 -43.5q0 -42 19.5 -61.5t63.5 -25.5z" />
    <glyph glyph-name="Kappa" unicode="&#x39a;" horiz-adv-x="1341" 
d="M560 757h15q38 0 72 13t78.5 48.5t145.5 135.5q89 88 131.5 140t57.5 89q11 27 11 50q0 35 -16 48.5t-53 17.5l15 66h488l-15 -68q-33 -7 -58 -19t-62.5 -43t-111.5 -102l-362 -347l211 -520q26 -63 45 -99.5t37 -57t37 -30t42 -14.5l-13 -65h-500l15 66q27 3 38 14
t11 36q0 24 -10 61.5t-43 122.5l-91 236q-19 49 -35.5 71.5t-35 31.5t-53.5 9h-15l-83 -378q-6 -27 -8 -41.5t-3.5 -32t-1.5 -43.5q0 -42 19.5 -61.5t63.5 -25.5l-14 -66h-503l14 66q42 12 64.5 33t38.5 59.5t32 111.5l182 825q13 59 13 117q0 42 -19.5 61.5t-63.5 25.5
l14 66h503l-14 -66q-42 -12 -64.5 -33t-38.5 -59.5t-32 -111.5z" />
    <glyph glyph-name="Lambda" unicode="&#x39b;" horiz-adv-x="1258" 
d="M742 1122h-13l-385 -725q-92 -173 -92 -247q0 -72 84 -84l-14 -66h-422l14 66q54 13 87.5 49t92.5 141l621 1116h289l43 -1069q5 -116 26.5 -172t81.5 -65l-14 -66h-516l14 66q43 3 67.5 21.5t35 49t11.5 83.5l-1 106z" />
    <glyph glyph-name="Mu" unicode="&#x39c;" horiz-adv-x="1676" 
d="M743 1365l78 -835l474 835h465l-14 -66q-42 -12 -64.5 -33t-38.5 -59.5t-32 -111.5l-182 -825q-6 -26 -8 -41t-3.5 -32.5t-1.5 -43.5q0 -42 19.5 -61.5t63.5 -25.5l-14 -66h-503l14 66q42 12 64.5 33t38.5 59.5t32 111.5l92 420q15 68 43 181.5t65 237.5h-20
q-47 -86 -101 -179l-450 -779h-162l-66 601q-13 114 -19.5 199t-10.5 168h-16q-14 -92 -36 -210.5t-40 -199.5l-97 -439q-6 -26 -8 -41t-3.5 -32.5t-1.5 -43.5q0 -42 19.5 -61.5t63.5 -25.5l-14 -66h-367l14 66q42 12 64.5 33t38.5 59.5t32 111.5l182 825q13 59 13 117
q0 42 -19.5 61.5t-63.5 25.5l14 66h466z" />
    <glyph glyph-name="Nu" unicode="&#x39d;" horiz-adv-x="1355" 
d="M280 1365h380l193 -566q79 -231 125 -408h13q29 173 76 383l70 321q13 60 13 117q0 42 -19.5 61.5t-63.5 25.5l14 66h368l-14 -66q-42 -12 -64.5 -33t-38.5 -59.5t-32 -111.5l-241 -1095h-228l-240 699q-28 82 -50 153.5t-53 181.5l-15 1q-8 -67 -30.5 -184.5
t-53.5 -254.5l-72 -326q-6 -26 -8 -41t-3.5 -32.5t-1.5 -43.5q0 -42 19.5 -61.5t63.5 -25.5l-14 -66h-368l14 66q42 12 64.5 33t38.5 59.5t32 111.5l182 825q13 59 13 117q0 42 -19.5 61.5t-63.5 25.5z" />
    <glyph glyph-name="Xi" unicode="&#x39e;" horiz-adv-x="1188" 
d="M1062 1020q-3 97 -24.5 118t-126.5 21h-322q-90 0 -130 -22t-87 -117h-135l80 346h958l-79 -346h-134zM772 516q-2 68 -19 83t-76 15h-108q-57 0 -81.5 -15t-57.5 -83h-121l90 389h121q2 -71 18 -85.5t76 -14.5h108q59 0 82 14.5t58 85.5h119l-91 -389h-118zM-11 0
l70 381h133q-3 -102 24.5 -134t131.5 -32h364q76 0 106.5 8.5t65 40.5t68.5 117h133l-109 -381h-987z" />
    <glyph glyph-name="Omicron" unicode="&#x39f;" horiz-adv-x="1383" 
d="M581 -16q-228 0 -344 119.5t-116 351.5q0 79 16 181t54 215.5t105 214.5t157.5 172.5t201.5 107t233 35.5q228 0 345.5 -119t117.5 -346q0 -96 -20.5 -213.5t-67 -236t-114.5 -210.5t-157 -153.5t-191.5 -90t-219.5 -28.5zM422 362q0 -138 40 -199.5t130 -61.5
q48 0 92 22q55 27 105 83q62 69 114 176t86 234q28 103 49 240q12 76 12 150q0 134 -40 196t-132 62q-87 0 -169 -77.5t-148.5 -218.5t-102.5 -316.5t-36 -289.5z" />
    <glyph glyph-name="Pi" unicode="&#x3a0;" horiz-adv-x="1397" 
d="M1151 252q-10 -45 -10 -94q0 -83 84 -92l-15 -66h-503l14 66q65 19 88.5 64t40.5 122l219 987h-403l-213 -969q-13 -59 -13 -114q0 -82 82 -90l-12 -66h-504l14 66q59 17 84.5 58t45.5 128l190 860q12 54 12 96q0 81 -88 90l17 68h1206l-14 -68q-59 -14 -85.5 -55
t-46.5 -127z" />
    <glyph glyph-name="Rho" unicode="&#x3a1;" horiz-adv-x="1221" 
d="M780 1365q105 0 160 -6q75 -7 136.5 -30.5t103.5 -62t64 -93t22 -124.5q0 -112 -41.5 -200.5t-117.5 -152.5t-193.5 -96.5t-262.5 -32.5h-29q-61 0 -102 5l-67 -302q-7 -32 -10 -55.5t-3 -61.5q0 -46 23.5 -65t73.5 -22l-14 -66h-517l14 66q42 12 64.5 33t38.5 59.5
t32 111.5l182 825q13 59 13 117q0 42 -19.5 61.5t-63.5 25.5l14 66h499zM597 683q101 0 166 23t108.5 72t66 118.5t22.5 150.5q0 101 -47.5 151t-147.5 50q-56 0 -97 -2l-123 -563h52z" />
    <glyph glyph-name="Sigma" unicode="&#x3a3;" horiz-adv-x="1186" 
d="M-84 0l20 86l562 547l-281 647l21 86h1038l-80 -350h-129q-5 119 -14.5 163.5t-23 58t-54.5 13.5h-398l203 -467l-16 -67l-469 -465h489q62 0 97.5 36t91.5 167h131l-133 -455h-1055z" />
    <glyph glyph-name="Tau" unicode="&#x3a4;" horiz-adv-x="1234" 
d="M1363 1365l-79 -362h-128q-1 111 -13 155.5t-38.5 67t-74.5 22.5h-89l-215 -978q-6 -27 -8 -41.5t-3.5 -32t-1.5 -43.5q0 -46 23.5 -65t73.5 -22l-14 -66h-531l14 66q44 6 70 26t43.5 59.5t35.5 118.5l215 978h-80q-39 0 -63.5 -7t-42.5 -19.5t-39 -35t-46.5 -61
t-54.5 -101.5h-131l75 341h1102z" />
    <glyph glyph-name="Upsilon" unicode="&#x3a5;" horiz-adv-x="1352" 
d="M795 721q314 659 571 659q104 0 141 -28l-61 -281h-111q0 88 -61 88q-88 0 -253 -278.5t-216 -509.5l-39 -164q-8 -34 -8 -62q0 -36 20.5 -52.5t89.5 -26.5l-14 -66h-569l14 66q96 18 123 41t45 100l43 182q12 49 12 114q0 183 -59 400t-99 263t-92 46q-50 0 -84 -36
l-30 65q116 139 276 139q123 0 190.5 -72.5t113 -256.5t48.5 -330h9z" />
    <glyph glyph-name="Phi" unicode="&#x3a6;" horiz-adv-x="1677" 
d="M987 0h-483l14 66q95 17 129 178h-12q-249 0 -381.5 99t-132.5 292q0 236 191 375t528 139h4q4 30 4 63q0 76 -84 86l14 68h484l-15 -68q-92 -22 -123 -149h6q245 0 382 -99t137 -278q0 -240 -186.5 -382.5t-538.5 -145.5q-6 -25 -6 -90q0 -78 81 -88zM946 346
q190 4 300 123.5t110 288.5q0 128 -68 204.5t-188 81.5zM823 1044q-188 -3 -298.5 -122.5t-110.5 -319.5q0 -106 69 -176t187 -80z" />
    <glyph glyph-name="Chi" unicode="&#x3a7;" horiz-adv-x="1200" 
d="M727 1365l-15 -66q-43 -4 -62.5 -26.5t-19.5 -58.5q0 -30 11 -71.5t34 -99.5l63 -166l134 166q64 80 89 120.5t25 67.5q0 34 -17 48.5t-56 19.5l15 66h416l-15 -67q-18 -3 -37 -12.5t-43 -30.5t-64 -63.5t-107 -121.5l-287 -333l177 -461q33 -87 56 -127t45 -57.5
t54 -25.5l-14 -66h-510l14 66q39 4 59 22t20 50q0 36 -9 73t-26 82l-89 235l-207 -247q-46 -55 -65 -87t-19 -63q0 -60 74 -65l-14 -66h-417l14 66q24 6 48.5 21t61.5 52t125 137l345 390l-153 404q-11 29 -29 71.5t-34.5 74t-31 47.5t-28.5 24t-35 12l15 66h509z" />
    <glyph glyph-name="Psi" unicode="&#x3a8;" horiz-adv-x="1641" 
d="M963 0h-484l15 66q59 17 86 61t49 143l45 211h-29q-432 0 -432 342q0 76 23 168l26 121q19 88 19 109q0 58 -82 79l14 66h381l-94 -416q-17 -75 -17 -133q0 -105 57 -162t160 -57l111 498q12 54 12 116q0 77 -84 86l15 68h483l-14 -68q-54 -13 -82.5 -51t-53.5 -151
l-110 -498h2q271 0 352 352l92 416h385l-14 -66q-76 -19 -102 -52.5t-47 -133.5l-31 -147q-55 -260 -212.5 -373t-449.5 -113h-2l-45 -211q-12 -56 -12 -116q0 -78 82 -88z" />
    <glyph glyph-name="uni03A9" unicode="&#x3a9;" horiz-adv-x="1534" 
d="M465 242q-240 242 -240 479q0 269 187.5 464t517.5 195q253 0 384.5 -125.5t131.5 -306.5q0 -363 -428 -706l-8 -27h133q48 0 87.5 28t86.5 122h137l-123 -365h-586l41 180q139 98 246 363.5t107 464.5q0 124 -58 190t-159 66q-198 0 -296 -205t-98 -436q0 -212 99 -443
l-41 -180h-557l45 365h137q4 -80 23.5 -115t74.5 -35h148z" />
    <glyph glyph-name="Iotadieresis" unicode="&#x3aa;" horiz-adv-x="699" 
d="M509 0h-503l14 66q42 12 64.5 33t38.5 59.5t32 111.5l182 825q13 59 13 117q0 42 -19.5 61.5t-63.5 25.5l14 66h503l-14 -66q-42 -12 -64.5 -33t-38.5 -59.5t-32 -111.5l-182 -825q-6 -26 -8 -41t-3.5 -32.5t-1.5 -43.5q0 -42 19.5 -61.5t63.5 -25.5zM538 1721l-48 -220
h-203l48 220h203zM909 1721l-48 -220h-203l48 220h203z" />
    <glyph glyph-name="Upsilondieresis" unicode="&#x3ab;" horiz-adv-x="1352" 
d="M795 721q314 659 571 659q104 0 141 -28l-61 -281h-111q0 88 -61 88q-88 0 -253 -278.5t-216 -509.5l-39 -164q-8 -34 -8 -62q0 -36 20.5 -52.5t89.5 -26.5l-14 -66h-569l14 66q96 18 123 41t45 100l43 182q12 49 12 114q0 183 -59 400t-99 263t-92 46q-50 0 -84 -36
l-30 65q116 139 276 139q123 0 190.5 -72.5t113 -256.5t48.5 -330h9zM833 1721l-48 -220h-203l48 220h203zM1204 1721l-48 -220h-203l48 220h203z" />
    <glyph glyph-name="alphatonos" unicode="&#x3ac;" horiz-adv-x="1309" 
d="M975 748l119 245h229l25 -67q-34 -42 -78 -93q-217 -255 -268 -325q-9 -92 -9 -159q0 -208 97 -208q45 0 98 39l29 -65q-153 -131 -271 -131q-186 0 -194 256h-4q-213 -256 -412 -256q-126 0 -198 88t-72 225q0 267 183.5 489t426.5 222q250 0 295 -260h4zM776 471
q15 115 15 209q0 215 -121 215q-138 0 -237 -182.5t-99 -395.5q0 -82 28.5 -129t78.5 -47q164 0 335 330zM1044 1507l-338 -446l-70 37l195 475h227z" />
    <glyph glyph-name="epsilontonos" unicode="&#x3ad;" horiz-adv-x="988" 
d="M406 541q-218 47 -218 196q0 128 119.5 199.5t325.5 71.5q209 0 371 -60l-48 -205h-141q-13 160 -170 160q-81 0 -131.5 -46.5t-50.5 -125.5q0 -135 205 -135h57l-29 -127h-65q-119 0 -214 -54.5t-95 -150.5q0 -63 52 -101t140 -38q148 0 313 92l58 -88
q-232 -145 -461 -145q-189 0 -289 74t-100 192q0 114 107 190.5t261 91.5zM945 1507l-338 -446l-70 37l195 475h227z" />
    <glyph glyph-name="etatonos" unicode="&#x3ae;" horiz-adv-x="1188" 
d="M504 801q176 207 352 207q116 0 176 -57.5t60 -157.5q0 -57 -17 -138l-239 -1087h-289l223 973q41 179 41 229q0 92 -74 92q-72 0 -157 -99t-109 -208l-121 -555h-287l158 700q10 44 10 76q0 66 -51 66q-53 0 -108 -60l-39 58q152 168 293 168q180 0 180 -168
q0 -9 -6 -39h4zM1020 1507l-338 -446l-70 37l195 475h227z" />
    <glyph glyph-name="iotatonos" unicode="&#x3af;" horiz-adv-x="672" 
d="M285 991h280l-145 -663q-12 -55 -12 -103q0 -54 15.5 -78t57.5 -24q47 0 127 57l47 -71q-161 -125 -321 -125q-211 0 -211 209q0 55 16 131zM763 1507l-338 -446l-70 37l195 475h227z" />
    <glyph glyph-name="upsilondieresistonos" unicode="&#x3b0;" horiz-adv-x="1167" 
d="M98 807l-39 70q179 131 291 131q166 0 166 -162q0 -57 -16 -121l-70 -305q-18 -78 -18 -137q0 -168 133 -168q130 0 214.5 163t84.5 369q0 176 -74 271l16 73h273q22 -86 22 -172q0 -342 -175.5 -588.5t-448.5 -246.5q-326 0 -326 295q0 65 19 137l63 286q8 36 8 68
q0 68 -47 68q-32 0 -76 -31zM940 1546l-338 -446l-70 37l195 475h227zM504 1378l-47 -219h-209l47 219h209zM1100 1378l-47 -219h-209l47 219h209z" />
    <glyph glyph-name="alpha" unicode="&#x3b1;" horiz-adv-x="1309" 
d="M975 748l119 245h229l25 -67q-34 -42 -78 -93q-217 -255 -268 -325q-9 -92 -9 -159q0 -208 97 -208q45 0 98 39l29 -65q-153 -131 -271 -131q-186 0 -194 256h-4q-213 -256 -412 -256q-126 0 -198 88t-72 225q0 267 183.5 489t426.5 222q250 0 295 -260h4zM776 471
q15 115 15 209q0 215 -121 215q-138 0 -237 -182.5t-99 -395.5q0 -82 28.5 -129t78.5 -47q164 0 335 330z" />
    <glyph glyph-name="beta" unicode="&#x3b2;" horiz-adv-x="1180" 
d="M848 756q248 -43 248 -283q0 -205 -142 -347t-387 -142q-140 0 -221 71l-106 -487h-281l281 1282q70 321 220 453.5t390 132.5q373 0 373 -265q0 -288 -373 -407zM631 805q133 10 226 113.5t93 259.5q0 151 -112 151q-207 0 -318 -479l-127 -576q-7 -34 -7 -63
q0 -56 51.5 -89.5t109.5 -33.5q106 0 187 113.5t81 257.5q0 239 -209 241z" />
    <glyph glyph-name="gamma" unicode="&#x3b3;" horiz-adv-x="1135" 
d="M567 285q273 435 396 706h249l27 -57q-160 -181 -688 -871q-24 -192 -94 -464h-174l-74 120q40 109 121 254q26 218 26 408q0 461 -163 461q-47 0 -91 -35l-47 51q137 150 287 150q256 0 256 -369q0 -160 -31 -354z" />
    <glyph glyph-name="delta" unicode="&#x3b4;" horiz-adv-x="1135" 
d="M543 926q-142 156 -142 278q0 103 84 168.5t232 65.5q129 0 267.5 -39t199.5 -88l-49 -205h-136q-24 227 -241 227q-48 0 -88.5 -29.5t-40.5 -82.5q0 -67 128 -200q137 -144 179.5 -201t71 -137.5t28.5 -186.5q0 -197 -146 -354.5t-396 -157.5q-186 0 -290 108t-104 260
q0 204 117.5 355t325.5 219zM621 846q-119 -47 -187.5 -196.5t-68.5 -332.5q0 -112 42.5 -171.5t116.5 -59.5q101 0 168.5 115.5t67.5 283.5q0 204 -139 361z" />
    <glyph glyph-name="epsilon" unicode="&#x3b5;" horiz-adv-x="988" 
d="M406 541q-218 47 -218 196q0 128 119.5 199.5t325.5 71.5q209 0 371 -60l-48 -205h-141q-13 160 -170 160q-81 0 -131.5 -46.5t-50.5 -125.5q0 -135 205 -135h57l-29 -127h-65q-119 0 -214 -54.5t-95 -150.5q0 -63 52 -101t140 -38q148 0 313 92l58 -88
q-232 -145 -461 -145q-189 0 -289 74t-100 192q0 114 107 190.5t261 91.5z" />
    <glyph glyph-name="zeta" unicode="&#x3b6;" horiz-adv-x="893" 
d="M1055 1321q-380 -308 -542.5 -524.5t-162.5 -407.5q0 -129 180 -211q207 -90 207 -248q0 -118 -107 -216.5t-292 -151.5l-57 90q249 97 249 223q0 35 -35 63.5t-139 71.5q-278 117 -278 359q0 174 131 359t534 480l2 9h-413l39 169h698z" />
    <glyph glyph-name="eta" unicode="&#x3b7;" horiz-adv-x="1188" 
d="M504 801q176 207 352 207q116 0 176 -57.5t60 -157.5q0 -57 -17 -138l-239 -1087h-289l223 973q41 179 41 229q0 92 -74 92q-72 0 -157 -99t-109 -208l-121 -555h-287l158 700q10 44 10 76q0 66 -51 66q-53 0 -108 -60l-39 58q152 168 293 168q180 0 180 -168
q0 -9 -6 -39h4z" />
    <glyph glyph-name="theta" unicode="&#x3b8;" horiz-adv-x="1214" 
d="M123 375q0 292 166.5 655t524.5 363q370 0 370 -385q0 -297 -165.5 -660.5t-526.5 -363.5q-369 0 -369 391zM868 772q52 219 52 340q0 176 -127 176q-95 0 -162 -120.5t-125 -320.5q-10 -35 -23 -75h385zM838 647h-387q-62 -249 -62 -381q0 -178 121 -178q88 0 156 103
t172 456z" />
    <glyph glyph-name="iota" unicode="&#x3b9;" horiz-adv-x="672" 
d="M285 991h280l-145 -663q-12 -55 -12 -103q0 -54 15.5 -78t57.5 -24q47 0 127 57l47 -71q-161 -125 -321 -125q-211 0 -211 209q0 55 16 131z" />
    <glyph glyph-name="kappa" unicode="&#x3ba;" horiz-adv-x="1227" 
d="M63 0l154 698q25 113 25 150q0 74 -99 78l17 65l289 13h126l-100 -437q56 34 189 165q33 32 61 56q56 51 99 92q134 128 272 128q68 0 123 -27l-58 -252h-119q-7 88 -59 88q-40 0 -72 -20.5t-155 -128.5l170 -445q35 -92 90 -92q46 0 82 31l28 -64q-161 -114 -295 -114
q-63 0 -109 35t-89 153l-109 313q-2 -1 -82 -51l-92 -434h-287z" />
    <glyph glyph-name="lambda" unicode="&#x3bb;" horiz-adv-x="1081" 
d="M608 616l-370 -616h-326l12 61q144 160 615 874l49 73q-19 132 -64 198t-131 66q-91 0 -160 -72l-45 53q144 185 285 185q131 0 189.5 -96.5t76.5 -587.5q10 -303 59 -458t124 -155q49 0 90 25l37 -62l-45 -33q-114 -87 -195 -87q-112 0 -156.5 140t-44.5 492z" />
    <glyph glyph-name="uni03BC" unicode="&#x3bc;" horiz-adv-x="1221" 
d="M268 991h285l-125 -540q-35 -151 -35 -193q0 -57 20.5 -87t78.5 -30q69 0 148 98t95 183l127 569h289l-162 -700q-8 -35 -8 -78q0 -68 57 -68q45 0 111 56l39 -62q-181 -155 -311 -155q-168 0 -168 172v39h-4q-157 -211 -322 -211q-75 0 -123 57l-10 -6
q-28 -201 -23 -295l-14 -55l-150 -86h-104z" />
    <glyph glyph-name="nu" unicode="&#x3bd;" horiz-adv-x="1100" 
d="M294 -16q-6 212 -38 505t-55.5 327t-60.5 34t-82 -35l-33 62q134 131 269 131q105 0 153 -90t67 -304.5t19 -427.5h4q277 313 277 631q0 32 -16 80q-5 13 -9 29l15 65h280q0 -122 -46 -266t-225.5 -383t-310.5 -358h-208z" />
    <glyph glyph-name="xi" unicode="&#x3be;" horiz-adv-x="829" 
d="M625 1272q-261 -6 -332 127l227 41q37 -86 223 -86q110 0 283 37l-27 -119q-222 -42 -360.5 -129.5t-138.5 -198.5q0 -130 169 -130q42 0 89 9l61 13l-28 -121l-43 -10q-441 -103 -441 -316q0 -65 41.5 -116t198.5 -126q147 -71 147 -210q0 -248 -399 -377l-55 90
q245 98 245 225q0 37 -24.5 58t-118.5 67q-178 84 -242.5 163.5t-64.5 176.5q0 286 497 401v4q-305 -9 -305 189q0 108 105.5 194.5t292.5 139.5v4z" />
    <glyph glyph-name="omicron" unicode="&#x3bf;" horiz-adv-x="1106" 
d="M448 -16q-110 0 -193.5 39.5t-131 120t-47.5 196.5q0 44 6 98q8 68 28 139q23 82 58 146q38 72 88 124.5t108.5 87t127.5 52.5q82 21 172 21q124 0 208 -45.5t124.5 -126.5t40.5 -188q0 -132 -44 -265t-121.5 -223t-183.5 -133t-240 -43zM345 275q0 -94 30.5 -140.5
t96.5 -46.5q37 0 70.5 15.5t66 53t58.5 95t49.5 142t36.5 165.5t13 151q0 100 -30.5 147t-94.5 47q-84 0 -145.5 -81.5t-106 -252t-44.5 -295.5z" />
    <glyph glyph-name="pi" unicode="&#x3c0;" horiz-adv-x="1343" 
d="M414 811q-179 0 -291 -119l-57 64q185 235 428 235h882l-41 -178h-213l-131 -596q-4 -18 -4 -31q0 -24 16.5 -43.5t45.5 -19.5q64 0 118 35l41 -74q-151 -100 -309 -100q-171 0 -171 165q0 50 13 113l121 551h-237l-189 -813h-305l14 63q148 221 248 654z" />
    <glyph glyph-name="rho" unicode="&#x3c1;" horiz-adv-x="1178" 
d="M346 55l-106 -487h-281l195 887q63 287 205 420t382 133q179 0 273 -96.5t94 -264.5q0 -244 -151 -453.5t-402 -209.5q-135 0 -209 71zM444 502l-49 -217q-7 -33 -7 -68q0 -64 46 -96.5t105 -32.5q97 0 158 89.5t102 268t41 263.5q0 194 -115 194q-102 0 -165.5 -87
t-115.5 -314z" />
    <glyph glyph-name="sigma1" unicode="&#x3c2;" horiz-adv-x="977" 
d="M969 969l-56 -244h-180q0 40 -2.5 85.5t-24 69t-57.5 23.5q-105 0 -200 -152.5t-95 -316.5q0 -82 30.5 -144t147.5 -114q110 -46 155.5 -104.5t45.5 -143.5q0 -115 -103.5 -212t-291.5 -158l-57 90q247 106 247 227q0 60 -149 125q-170 74 -236.5 171.5t-66.5 227.5
q0 253 172.5 431t437.5 178q156 0 283 -39z" />
    <glyph glyph-name="sigma" unicode="&#x3c3;" horiz-adv-x="1253" 
d="M1247 813h-336v-4q56 -37 90.5 -115.5t34.5 -156.5q0 -220 -155.5 -386.5t-409.5 -166.5q-189 0 -292 99t-103 271q0 149 71 283t223 244t416 110h502zM731 813q-156 0 -271.5 -147.5t-115.5 -372.5q0 -205 139 -205q115 0 199 158t84 338q0 122 -29 229h-6z" />
    <glyph glyph-name="tau" unicode="&#x3c4;" horiz-adv-x="1141" 
d="M758 813l-115 -526q-5 -21 -5 -40q0 -72 17.5 -98t57.5 -26q58 0 155 57l41 -74q-193 -122 -348 -122q-95 0 -151 56t-56 161q0 53 19 135l106 477h-53q-187 0 -301 -121l-62 66q110 130 209.5 181.5t223.5 51.5h684l-43 -178h-379z" />
    <glyph glyph-name="upsilon" unicode="&#x3c5;" horiz-adv-x="1167" 
d="M98 807l-39 70q179 131 291 131q166 0 166 -162q0 -57 -16 -121l-70 -305q-18 -78 -18 -137q0 -168 133 -168q130 0 214.5 163t84.5 369q0 176 -74 271l16 73h273q22 -86 22 -172q0 -342 -175.5 -588.5t-448.5 -246.5q-326 0 -326 295q0 65 19 137l63 286q8 36 8 68
q0 68 -47 68q-32 0 -76 -31z" />
    <glyph glyph-name="phi" unicode="&#x3c6;" horiz-adv-x="1497" 
d="M659 -432h-239l90 418q-212 34 -323 138.5t-111 258.5q0 429 487 625l51 -93q-163 -148 -217.5 -276.5t-54.5 -290.5q0 -95 53 -165.5t140 -86.5l98 451q64 292 171.5 376.5t272.5 84.5q159 0 254.5 -97.5t95.5 -263.5q0 -264 -192.5 -462.5t-482.5 -198.5zM774 92
q190 23 288.5 219t98.5 439q0 61 -26 104t-74 43q-111 0 -166 -252z" />
    <glyph glyph-name="chi" unicode="&#x3c7;" horiz-adv-x="1090" 
d="M1180 934q-113 -104 -230 -238l-377 -436q55 -320 98 -413t126 -93q49 0 94 53l45 -51q-46 -63 -117.5 -106t-130.5 -43q-81 0 -125 37t-72.5 146t-44.5 337l-190 -268q-104 -146 -158 -242h-327l12 57q140 135 231 242l398 465q-57 309 -99 394t-120 85q-53 0 -109 -45
l-35 62q129 131 266 131q71 0 112.5 -39.5t69.5 -144.5t44 -302l161 223q91 125 160 246h326z" />
    <glyph glyph-name="psi" unicode="&#x3c8;" horiz-adv-x="1518" 
d="M1104 1386l-283 -1284q188 17 288.5 158.5t100.5 386.5q0 172 -73 271l16 73h272q23 -89 23 -172q0 -348 -173 -589t-478 -246l-92 -416h-240l90 416q-414 13 -414 331q0 55 17 138l55 249q8 36 8 68q0 68 -47 68q-32 0 -76 -31l-39 70q179 131 291 131q148 0 148 -154
q0 -37 -23 -129l-59 -272q-17 -78 -17 -146q0 -85 50.5 -146t132.5 -61l280 1286h242z" />
    <glyph glyph-name="omega" unicode="&#x3c9;" horiz-adv-x="1569" 
d="M741 158h-4q-105 -172 -321 -172q-151 0 -248.5 98.5t-97.5 255.5q0 209 136 387t376 281l49 -70q-125 -110 -204 -307t-79 -348q0 -195 113 -195q114 0 174 279l74 333h280l-74 -325q-20 -88 -20 -166q0 -121 98 -121q94 0 166 167t72 382q0 214 -49 313l69 58
q248 -219 248 -478q0 -218 -135 -381t-369 -163q-200 0 -254 172z" />
    <glyph glyph-name="iotadieresis" unicode="&#x3ca;" horiz-adv-x="672" 
d="M285 991h280l-145 -663q-12 -55 -12 -103q0 -54 15.5 -78t57.5 -24q47 0 127 57l47 -71q-161 -125 -321 -125q-211 0 -211 209q0 55 16 131zM430 1379l-48 -220h-202l48 220h202zM782 1379l-48 -220h-203l48 220h203z" />
    <glyph glyph-name="upsilondieresis" unicode="&#x3cb;" horiz-adv-x="1167" 
d="M98 807l-39 70q179 131 291 131q166 0 166 -162q0 -57 -16 -121l-70 -305q-18 -78 -18 -137q0 -168 133 -168q130 0 214.5 163t84.5 369q0 176 -74 271l16 73h273q22 -86 22 -172q0 -342 -175.5 -588.5t-448.5 -246.5q-326 0 -326 295q0 65 19 137l63 286q8 36 8 68
q0 68 -47 68q-32 0 -76 -31zM633 1379l-48 -220h-202l48 220h202zM985 1379l-48 -220h-203l48 220h203z" />
    <glyph glyph-name="omicrontonos" unicode="&#x3cc;" horiz-adv-x="1106" 
d="M448 -16q-110 0 -193.5 39.5t-131 120t-47.5 196.5q0 44 6 98q8 68 28 139q23 82 58 146q38 72 88 124.5t108.5 87t127.5 52.5q82 21 172 21q124 0 208 -45.5t124.5 -126.5t40.5 -188q0 -132 -44 -265t-121.5 -223t-183.5 -133t-240 -43zM345 275q0 -94 30.5 -140.5
t96.5 -46.5q37 0 70.5 15.5t66 53t58.5 95t49.5 142t36.5 165.5t13 151q0 100 -30.5 147t-94.5 47q-84 0 -145.5 -81.5t-106 -252t-44.5 -295.5zM956 1507l-338 -446l-70 37l195 475h227z" />
    <glyph glyph-name="upsilontonos" unicode="&#x3cd;" horiz-adv-x="1167" 
d="M98 807l-39 70q179 131 291 131q166 0 166 -162q0 -57 -16 -121l-70 -305q-18 -78 -18 -137q0 -168 133 -168q130 0 214.5 163t84.5 369q0 176 -74 271l16 73h273q22 -86 22 -172q0 -342 -175.5 -588.5t-448.5 -246.5q-326 0 -326 295q0 65 19 137l63 286q8 36 8 68
q0 68 -47 68q-32 0 -76 -31zM962 1507l-338 -446l-70 37l195 475h227z" />
    <glyph glyph-name="omegatonos" unicode="&#x3ce;" horiz-adv-x="1569" 
d="M741 158h-4q-105 -172 -321 -172q-151 0 -248.5 98.5t-97.5 255.5q0 209 136 387t376 281l49 -70q-125 -110 -204 -307t-79 -348q0 -195 113 -195q114 0 174 279l74 333h280l-74 -325q-20 -88 -20 -166q0 -121 98 -121q94 0 166 167t72 382q0 214 -49 313l69 58
q248 -219 248 -478q0 -218 -135 -381t-369 -163q-200 0 -254 172zM1236 1507l-338 -446l-70 37l195 475h227z" />
    <glyph glyph-name="uni0400" unicode="&#x400;" horiz-adv-x="1150" 
d="M1252 1365l-71 -322h-128q-5 95 -18 133t-40 55t-76 17h-251l-106 -480h139q40 0 67.5 13t51 43.5t46.5 84.5h110l-96 -406h-103q0 58 -7 89t-26 45t-65 14h-142l-118 -534h225q44 0 68.5 6t45 19t47.5 41.5t53.5 72t54.5 104.5h136l-92 -360h-951l14 66q42 12 64.5 33
t38.5 59.5t32 111.5l182 825q13 59 13 117q0 42 -19.5 61.5t-63.5 25.5l14 66h971zM860 1798l187 -266l-69 -64l-351 264l15 66h218z" />
    <glyph glyph-name="uni0401" unicode="&#x401;" horiz-adv-x="1150" 
d="M1252 1365l-71 -322h-128q-5 95 -18 133t-40 55t-76 17h-251l-106 -480h139q40 0 67.5 13t51 43.5t46.5 84.5h110l-96 -406h-103q0 58 -7 89t-26 45t-65 14h-142l-118 -534h225q44 0 68.5 6t45 19t47.5 41.5t53.5 72t54.5 104.5h136l-92 -360h-951l14 66q42 12 64.5 33
t38.5 59.5t32 111.5l182 825q13 59 13 117q0 42 -19.5 61.5t-63.5 25.5l14 66h971zM814 1721l-48 -220h-203l48 220h203zM1185 1721l-48 -220h-203l48 220h203z" />
    <glyph glyph-name="uni0402" unicode="&#x402;" horiz-adv-x="1562" 
d="M265 0l14 66q58 8 90 45.5t59 158.5l215 978h-80q-77 0 -130.5 -46t-115.5 -178h-131l75 341h1102l-79 -362h-128q0 151 -30 198t-96 47h-89l-98 -445q137 32 266 32q388 0 388 -335q0 -205 -125.5 -356t-371.5 -151q-133 0 -249 34l43 190h135q0 -120 76 -120
q83 0 140.5 121t57.5 269q0 212 -215 212q-72 0 -173 -20l-149 -679h-401z" />
    <glyph glyph-name="uni0403" unicode="&#x403;" horiz-adv-x="1083" 
d="M523 0h-517l14 66q61 17 86.5 58t43.5 128l191 861q12 54 12 90q0 90 -86 96l15 66h940l-84 -378h-117q4 158 -28 208t-125 50h-200l-221 -994q-11 -49 -11 -85q0 -93 101 -100zM1174 1798l-15 -66l-454 -264l-59 77l269 253h259z" />
    <glyph glyph-name="uni0404" unicode="&#x404;" horiz-adv-x="1162" 
d="M1216 1333l-64 -293h-131q-1 128 -32.5 176t-103.5 48q-111 0 -214.5 -123.5t-176.5 -351.5h441l-34 -157h-450q-37 -162 -37 -277q0 -254 180 -254q91 0 152.5 48.5t122.5 182.5h131l-64 -297q-181 -51 -374 -51q-215 0 -328 116.5t-113 335.5q0 189 83.5 427t257 378
t415.5 140q174 0 339 -48z" />
    <glyph glyph-name="uni0405" unicode="&#x405;" horiz-adv-x="1026" 
d="M185 333q3 -88 27 -138.5t68 -72t116 -21.5q109 0 172 62.5t63 174.5q0 58 -20 102.5t-61.5 86.5t-143.5 117q-95 70 -143.5 155t-48.5 178q0 79 34 155t100.5 132.5t167.5 86.5t236 30q100 0 184 -10.5t173 -37.5l-61 -285h-131q-1 112 -44 164t-139 52
q-105 0 -166 -56.5t-61 -155.5q0 -70 48.5 -132.5t146.5 -133.5q89 -66 137 -118.5t72 -111.5t24 -135q0 -102 -49 -194q-47 -86 -127 -143q-71 -50 -146 -72q-92 -28 -235 -28q-92 0 -192.5 16t-193.5 45l62 288h131z" />
    <glyph glyph-name="uni0406" unicode="&#x406;" horiz-adv-x="699" 
d="M509 0h-503l14 66q42 12 64.5 33t38.5 59.5t32 111.5l182 825q13 59 13 117q0 42 -19.5 61.5t-63.5 25.5l14 66h503l-14 -66q-42 -12 -64.5 -33t-38.5 -59.5t-32 -111.5l-182 -825q-6 -26 -8 -41t-3.5 -32.5t-1.5 -43.5q0 -42 19.5 -61.5t63.5 -25.5z" />
    <glyph glyph-name="uni0407" unicode="&#x407;" horiz-adv-x="699" 
d="M509 0h-503l14 66q42 12 64.5 33t38.5 59.5t32 111.5l182 825q13 59 13 117q0 42 -19.5 61.5t-63.5 25.5l14 66h503l-14 -66q-42 -12 -64.5 -33t-38.5 -59.5t-32 -111.5l-182 -825q-6 -26 -8 -41t-3.5 -32.5t-1.5 -43.5q0 -42 19.5 -61.5t63.5 -25.5zM528 1721l-48 -220
h-203l48 220h203zM899 1721l-48 -220h-203l48 220h203z" />
    <glyph glyph-name="uni0408" unicode="&#x408;" horiz-adv-x="682" 
d="M404 85q-53 -239 -178 -355t-332 -116q-55 0 -109 15l29 118q36 -10 72 -10q59 0 94 28t60 88.5t54 189.5l234 1052q13 58 13 117q0 42 -19.5 61.5t-63.5 25.5l14 66h503l-14 -66q-42 -12 -64.5 -33t-38.5 -59.5t-32 -111.5z" />
    <glyph glyph-name="uni0409" unicode="&#x409;" horiz-adv-x="1959" 
d="M1267 785q152 13 234 13q393 0 393 -317q0 -228 -153 -354.5t-456 -126.5h-576l14 66q52 12 79 51t49 134l221 995h-210q-88 -367 -270.5 -722.5t-298.5 -447.5t-231 -92q-87 0 -154 24l54 242h116q0 -88 68 -88q34 0 89.5 51.5t167 244.5t201.5 426t90 324q0 89 -89 91
l15 66h865l-15 -66q-61 -16 -84.5 -49t-49.5 -151zM1240 664l-121 -544q54 -3 100 -3q145 0 214 35.5t114.5 122.5t45.5 192q0 203 -208 203q-74 0 -145 -6z" />
    <glyph glyph-name="uni040A" unicode="&#x40a;" horiz-adv-x="1981" 
d="M961 652h-424l-84 -382q-13 -59 -13 -117q0 -77 83 -87l-14 -66h-503l14 66q56 15 83.5 55.5t51.5 148.5l182 825q13 59 13 117q0 77 -83 87l14 66h503l-14 -66q-56 -15 -83.5 -55.5t-51.5 -148.5l-70 -317h424l70 317q13 59 13 117q0 77 -83 87l14 66h503l-14 -66
q-56 -15 -83.5 -55.5t-51.5 -148.5l-68 -310q152 13 234 13q393 0 393 -317q0 -228 -153 -354.5t-456 -126.5h-576l14 66q93 16 128 185zM1262 664l-121 -544q54 -3 100 -3q145 0 214 35.5t114.5 122.5t45.5 192q0 203 -208 203q-74 0 -145 -6z" />
    <glyph glyph-name="uni040B" unicode="&#x40b;" horiz-adv-x="1613" 
d="M733 252q-14 -63 -14 -100q0 -72 76 -86l-14 -66h-504l14 66q71 17 97 50.5t47 134.5l221 997h-78q-83 0 -135.5 -38.5t-123.5 -195.5h-132l78 351h1130l-78 -351h-131q-2 158 -37.5 196t-125.5 38h-69l-102 -463q151 36 287 36q151 0 229.5 -65t78.5 -179
q0 -64 -22 -162l-33 -149q-14 -63 -14 -104q0 -90 89 -97l-14 -65h-521l14 65q72 12 99.5 55.5t50.5 145.5l31 138q22 98 22 150q0 135 -152 135q-81 0 -172 -24z" />
    <glyph glyph-name="uni040C" unicode="&#x40c;" horiz-adv-x="1353" 
d="M806 0l11 50q-61 427 -101 512.5t-161 85.5h-20l-88 -397q-11 -50 -11 -86q0 -93 88 -99l-14 -66h-504l14 66q57 13 84 53t46 132l191 862q12 54 12 90q0 90 -87 96l15 66h504l-15 -66q-57 -12 -83.5 -50t-48.5 -136l-79 -356h17q104 0 183 68.5t153 206.5
q112 206 201 277.5t237 71.5q88 0 143 -23l-55 -247h-126q0 91 -73 91q-41 0 -79.5 -39.5t-115.5 -172.5q-123 -200 -222 -252l-3 -10q92 -20 138.5 -60.5t67 -99t48.5 -204.5q35 -180 61 -234.5t78 -63.5l-14 -66h-392zM1291 1798l-15 -66l-454 -264l-59 77l269 253h259z
" />
    <glyph glyph-name="uni040D" unicode="&#x40d;" horiz-adv-x="1443" 
d="M1199 251q-11 -50 -11 -86q0 -78 85 -99l-14 -66h-501l14 66q62 15 84.5 47.5t45.5 137.5l82 373q37 167 67 269h-6l-597 -642q-11 -48 -11 -83q0 -95 87 -102l-14 -66h-504l14 66q66 16 89.5 57.5t41.5 127.5l191 862q12 54 12 91q0 90 -88 95l15 66h504l-15 -66
q-57 -17 -82.5 -52t-48.5 -135l-95 -425q-31 -140 -49 -197h6l597 646q10 43 10 72q0 76 -90 91l15 66h501l-15 -66q-49 -11 -76 -41.5t-53 -145.5zM989 1798l187 -266l-69 -64l-351 264l15 66h218z" />
    </font>
</defs>
</svg>
